<?xml version="1.0" standalone="no"?>
<!DOCTYPE svg PUBLIC "-//W3C//DTD SVG 20010904//EN"
 "http://www.w3.org/TR/2001/REC-SVG-20010904/DTD/svg10.dtd">
<svg version="1.0" xmlns="http://www.w3.org/2000/svg"
 width="300.000000pt" height="300.000000pt" viewBox="0 0 300.000000 300.000000"
 preserveAspectRatio="xMidYMid meet">

<g transform="translate(0.000000,300.000000) scale(0.100000,-0.100000)"
fill="#000000" stroke="none">
<path d="M1289 2985 c-192 -31 -321 -74 -489 -161 -395 -205 -673 -578 -771
-1034 -33 -152 -33 -428 0 -580 99 -460 377 -830 781 -1039 132 -68 249 -110
400 -142 152 -33 428 -33 580 0 151 32 268 74 400 142 404 209 682 579 781
1039 33 152 33 428 0 580 -32 151 -74 268 -142 400 -208 402 -581 684 -1034
780 -131 28 -383 35 -506 15z m431 -40 c315 -47 601 -195 826 -427 100 -102
156 -176 222 -292 288 -503 250 -1141 -96 -1601 -65 -86 -195 -218 -282 -285
-523 -401 -1257 -401 -1780 0 -87 67 -217 199 -282 285 -346 460 -384 1099
-97 1600 189 330 499 573 865 680 49 14 127 32 174 40 114 18 334 18 450 0z"/>
<path d="M1440 2838 c0 -29 3 -97 7 -150 5 -86 8 -98 25 -98 17 0 18 11 18
150 l0 150 -25 0 c-23 0 -25 -3 -25 -52z"/>
<path d="M1587 2858 c-11 -65 -17 -193 -8 -173 9 22 26 205 18 205 -3 0 -7
-15 -10 -32z"/>
<path d="M1300 2873 c0 -5 7 -52 15 -107 13 -91 19 -116 29 -105 7 8 -27 219
-36 219 -4 0 -8 -3 -8 -7z"/>
<path d="M1711 2764 c-13 -58 -20 -108 -17 -111 8 -8 12 7 36 117 23 110 22
100 12 100 -5 0 -19 -48 -31 -106z"/>
<path d="M1160 2843 c0 -11 43 -197 47 -202 2 -2 6 -2 9 2 8 8 -38 207 -48
207 -4 0 -8 -3 -8 -7z"/>
<path d="M1877 2830 c-31 -85 -58 -183 -55 -197 2 -10 18 28 36 85 18 57 31
109 29 115 -3 8 -6 7 -10 -3z"/>
<path d="M1020 2806 c0 -20 74 -205 81 -201 4 3 -6 43 -23 88 -16 45 -33 90
-35 100 -5 14 -23 25 -23 13z"/>
<path d="M1971 2691 c-23 -57 -40 -105 -37 -108 3 -3 14 14 24 38 11 24 29 67
42 96 12 29 20 57 18 64 -2 7 -23 -34 -47 -90z"/>
<path d="M890 2750 c0 -7 73 -166 87 -189 2 -2 5 -2 8 1 3 3 -15 49 -39 102
-41 89 -56 111 -56 86z"/>
<path d="M2127 2723 c-2 -5 -35 -64 -72 -132 -52 -96 -64 -126 -53 -132 7 -5
17 -7 23 -6 5 2 40 61 78 131 55 102 67 130 56 137 -17 11 -27 11 -32 2z"/>
<path d="M768 2689 c-15 -8 -10 -22 50 -118 97 -156 94 -153 114 -138 15 12 9
25 -57 132 -41 65 -78 122 -82 126 -4 4 -16 3 -25 -2z"/>
<path d="M2249 2627 c-8 -12 -37 -52 -63 -89 -26 -38 -43 -68 -38 -68 9 0 132
163 132 175 0 12 -16 2 -31 -18z"/>
<path d="M647 2588 c5 -7 33 -44 63 -83 30 -38 55 -72 57 -74 2 -2 6 -2 9 2 8
7 -115 167 -128 167 -7 0 -7 -5 -1 -12z"/>
<path d="M2306 2479 c-37 -44 -65 -83 -62 -86 3 -4 7 -4 9 -2 2 2 33 38 70 80
37 42 67 79 67 83 0 17 -21 -2 -84 -75z"/>
<path d="M530 2502 c0 -11 149 -157 154 -151 3 3 -27 39 -65 82 -65 71 -89 90
-89 69z"/>
<path d="M2403 2386 c-43 -41 -73 -75 -68 -75 16 0 161 137 153 144 -4 4 -42
-27 -85 -69z"/>
<path d="M440 2387 c35 -31 136 -114 148 -121 6 -4 12 -3 12 1 0 13 -146 133
-161 133 -10 0 -10 -3 1 -13z"/>
<path d="M2490 2288 c-45 -34 -78 -64 -72 -66 10 -3 172 113 172 123 0 13 -24
-1 -100 -57z"/>
<path d="M350 2282 c0 -6 35 -32 78 -59 103 -66 102 -66 102 -55 0 6 -35 32
-77 59 -104 66 -103 66 -103 55z"/>
<path d="M2528 2159 c-115 -64 -127 -73 -118 -90 11 -19 12 -19 53 2 42 22
219 119 226 125 5 5 -20 34 -28 33 -3 0 -63 -32 -133 -70z"/>
<path d="M275 2170 c-4 -12 -5 -23 -3 -24 1 -2 60 -33 130 -70 120 -64 127
-66 137 -47 10 18 0 26 -117 88 -70 37 -130 69 -134 71 -3 2 -9 -6 -13 -18z"/>
<path d="M2635 2063 c-99 -50 -101 -51 -93 -58 7 -8 198 85 198 96 0 14 -9 11
-105 -38z"/>
<path d="M210 2032 c0 -11 189 -86 197 -78 9 9 6 10 -90 50 -91 37 -107 42
-107 28z"/>
<path d="M2685 1938 c-98 -33 -101 -35 -92 -44 7 -8 195 54 202 67 10 14 -14
10 -110 -23z"/>
<path d="M164 1899 c-3 -5 1 -11 8 -14 128 -43 218 -61 196 -40 -12 13 -199
62 -204 54z"/>
<path d="M2726 1813 c-98 -23 -114 -29 -105 -38 5 -4 208 41 216 48 14 15 -23
11 -111 -10z"/>
<path d="M133 1756 c2 -6 41 -18 88 -28 95 -19 119 -21 119 -10 0 4 -47 17
-105 28 -66 13 -104 17 -102 10z"/>
<path d="M2716 1679 c-56 -8 -74 -15 -65 -23 6 -5 199 21 206 28 9 8 -69 5
-141 -5z"/>
<path d="M110 1612 c0 -11 202 -32 213 -21 11 9 -27 16 -130 25 -51 4 -83 2
-83 -4z"/>
<path d="M2570 1530 c0 -19 7 -20 150 -20 143 0 150 1 150 20 0 19 -7 20 -150
20 -143 0 -150 -1 -150 -20z"/>
<path d="M100 1480 c0 -19 7 -20 155 -20 148 0 155 1 155 20 0 19 -7 20 -155
20 -148 0 -155 -1 -155 -20z"/>
<path d="M2654 1419 c-2 -4 21 -10 51 -13 30 -3 80 -9 110 -12 36 -3 55 -2 55
5 0 6 -15 11 -32 12 -18 0 -66 4 -106 8 -40 4 -75 4 -78 0z"/>
<path d="M193 1348 c-95 -13 -99 -33 -5 -24 104 11 142 18 142 27 0 11 -40 10
-137 -3z"/>
<path d="M2646 1291 c11 -10 194 -44 202 -37 7 7 -9 12 -102 30 -89 18 -114
20 -100 7z"/>
<path d="M247 1215 c-54 -13 -101 -26 -104 -28 -13 -14 21 -12 92 4 44 10 90
21 103 24 12 3 22 10 22 15 0 12 5 13 -113 -15z"/>
<path d="M2616 1172 c9 -9 181 -62 199 -62 26 0 -19 20 -96 44 -90 27 -120 32
-103 18z"/>
<path d="M281 1089 c-83 -28 -121 -49 -90 -49 22 0 199 64 199 73 0 12 -20 7
-109 -24z"/>
<path d="M2570 1061 c0 -9 170 -81 192 -81 22 0 -3 14 -95 52 -105 43 -97 41
-97 29z"/>
<path d="M341 964 c-101 -47 -107 -51 -99 -59 8 -8 198 82 198 94 0 14 11 17
-99 -35z"/>
<path d="M2441 991 c-12 -22 -22 -14 153 -116 78 -45 100 -55 107 -44 5 8 9
17 9 21 0 5 -164 106 -252 155 -4 2 -12 -5 -17 -16z"/>
<path d="M426 892 c-66 -43 -121 -82 -123 -87 -1 -6 1 -16 6 -23 6 -11 36 4
130 63 66 42 123 81 126 85 6 10 -5 40 -14 39 -3 0 -60 -35 -125 -77z"/>
<path d="M2450 843 c0 -7 149 -111 173 -121 4 -2 7 1 7 6 0 8 -163 122 -175
122 -3 0 -5 -3 -5 -7z"/>
<path d="M490 749 c-36 -28 -74 -57 -84 -65 -11 -7 -17 -16 -13 -20 7 -7 177
116 177 128 0 16 -16 7 -80 -43z"/>
<path d="M2380 752 c0 -13 148 -142 163 -142 7 1 0 11 -14 23 -15 12 -54 46
-88 75 -33 30 -61 50 -61 44z"/>
<path d="M560 635 c-41 -41 -71 -78 -67 -82 4 -4 42 27 84 69 41 41 71 78 66
81 -5 3 -43 -27 -83 -68z"/>
<path d="M2349 591 c65 -74 91 -98 91 -86 0 12 -131 155 -142 155 -6 0 17 -31
51 -69z"/>
<path d="M660 544 c-90 -105 -87 -116 4 -19 42 44 76 83 76 88 0 19 -21 1 -80
-69z"/>
<path d="M2044 576 c-8 -20 124 -266 141 -266 30 0 23 26 -42 150 -64 123 -86
149 -99 116z"/>
<path d="M2200 584 c0 -12 124 -174 133 -174 11 0 4 11 -65 103 -55 72 -68 86
-68 71z"/>
<path d="M919 498 c-23 -40 -57 -99 -76 -132 -26 -45 -31 -61 -22 -72 6 -8 14
-14 18 -14 4 0 36 51 71 113 35 61 70 122 77 134 13 19 12 23 -6 32 -18 10
-24 4 -62 -61z"/>
<path d="M770 474 c-71 -100 -73 -104 -61 -104 13 0 123 159 119 172 -2 6 -28
-25 -58 -68z"/>
<path d="M1996 438 c12 -39 85 -180 90 -175 6 6 -82 197 -91 197 -3 0 -3 -10
1 -22z"/>
<path d="M1019 384 c-42 -98 -60 -147 -54 -152 7 -8 8 -6 50 96 39 94 43 145
4 56z"/>
<path d="M1496 422 c-17 -4 -18 -11 -12 -86 3 -44 6 -111 6 -148 0 -61 2 -68
20 -68 19 0 20 7 20 149 0 83 -3 152 -7 154 -5 2 -17 2 -27 -1z"/>
<path d="M1880 398 c0 -14 58 -187 67 -197 2 -2 5 -2 8 1 5 5 -60 196 -70 207
-3 2 -5 -3 -5 -11z"/>
<path d="M1123 288 c-28 -95 -32 -121 -17 -105 4 4 63 192 64 205 0 1 -4 2 -8
2 -5 0 -22 -46 -39 -102z"/>
<path d="M1760 365 c0 -7 40 -173 46 -194 3 -8 7 -11 10 -8 8 7 -38 207 -48
207 -4 0 -8 -2 -8 -5z"/>
<path d="M1260 303 c-6 -32 -15 -78 -20 -103 -8 -42 -6 -60 5 -48 10 9 42 208
34 208 -4 0 -13 -26 -19 -57z"/>
<path d="M1640 328 c0 -50 21 -183 32 -193 7 -7 8 4 4 35 -3 25 -8 70 -12 100
-8 63 -23 102 -24 58z"/>
<path d="M1390 312 c0 -16 -2 -65 -5 -108 -4 -50 -2 -72 3 -59 15 32 25 195
13 195 -6 0 -11 -13 -11 -28z"/>
</g>
</svg>
