<?xml version="1.0" standalone="no"?>
<!DOCTYPE svg PUBLIC "-//W3C//DTD SVG 20010904//EN"
 "http://www.w3.org/TR/2001/REC-SVG-20010904/DTD/svg10.dtd">
<svg version="1.0" xmlns="http://www.w3.org/2000/svg"
 width="2700.000000pt" height="2700.000000pt" viewBox="0 0 2700.000000 2700.000000"
 preserveAspectRatio="xMidYMid meet">
<metadata>
Created by potrace 1.16, written by Peter Selinger 2001-2019
</metadata>
<g transform="translate(0.000000,2700.000000) scale(0.100000,-0.100000)"
fill="#000000" stroke="none">
<path d="M13280 25763 c-303 -5 -745 -34 -1045 -68 -71 -9 -180 -20 -240 -25
-146 -12 -641 -91 -885 -142 -107 -23 -228 -47 -269 -54 -40 -7 -142 -31 -225
-53 -83 -22 -167 -43 -186 -46 -116 -21 -669 -189 -985 -300 -289 -101 -331
-116 -420 -154 -49 -21 -101 -42 -115 -46 -39 -11 -432 -181 -573 -248 -237
-112 -730 -364 -808 -413 -20 -12 -52 -30 -70 -38 -19 -9 -63 -34 -98 -56 -34
-22 -65 -40 -68 -40 -7 0 -164 -97 -254 -156 -36 -24 -69 -44 -73 -44 -4 0
-26 -13 -49 -29 -23 -16 -82 -55 -131 -88 -49 -32 -106 -69 -127 -83 -21 -14
-84 -56 -139 -95 -55 -38 -115 -80 -133 -92 -17 -12 -57 -41 -87 -64 -30 -22
-98 -72 -150 -111 -52 -38 -106 -79 -120 -92 -14 -12 -38 -31 -55 -41 -16 -11
-49 -35 -71 -55 -23 -19 -70 -58 -105 -86 -100 -81 -262 -215 -284 -236 -11
-10 -126 -114 -255 -230 -298 -269 -569 -540 -838 -838 -116 -129 -220 -244
-230 -255 -21 -22 -153 -181 -236 -284 -28 -35 -65 -80 -82 -100 -17 -20 -41
-52 -54 -71 -13 -19 -34 -46 -46 -60 -13 -14 -54 -68 -93 -120 -38 -52 -88
-120 -111 -150 -22 -30 -51 -70 -63 -87 -12 -18 -53 -78 -92 -133 -38 -55 -81
-118 -95 -139 -14 -21 -51 -78 -83 -127 -33 -49 -72 -108 -88 -131 -16 -23
-29 -45 -29 -49 0 -4 -20 -37 -44 -73 -59 -90 -156 -247 -156 -254 0 -3 -18
-34 -40 -68 -22 -35 -47 -79 -56 -98 -8 -18 -26 -50 -38 -70 -49 -78 -301
-571 -413 -808 -67 -141 -237 -534 -248 -573 -4 -14 -25 -65 -46 -115 -38 -89
-53 -131 -154 -420 -114 -324 -282 -877 -301 -990 -4 -22 -24 -105 -45 -184
-21 -79 -43 -172 -49 -205 -6 -34 -29 -142 -50 -241 -22 -99 -48 -238 -59
-310 -10 -71 -35 -231 -54 -355 -20 -124 -40 -279 -46 -345 -6 -66 -18 -181
-26 -255 -81 -753 -77 -1639 9 -2435 14 -121 27 -252 30 -292 3 -40 22 -166
41 -280 20 -114 42 -254 50 -310 8 -57 32 -185 54 -285 22 -101 42 -199 46
-218 12 -70 108 -459 150 -605 24 -82 46 -163 49 -180 9 -42 90 -297 138 -435
22 -63 48 -142 57 -175 18 -62 66 -191 151 -405 28 -69 50 -129 50 -133 0 -12
171 -403 261 -597 102 -221 371 -745 410 -801 10 -15 23 -38 28 -51 5 -14 30
-58 55 -97 25 -39 46 -75 46 -80 0 -5 16 -33 36 -62 20 -30 54 -85 77 -124 22
-38 51 -84 64 -101 13 -17 23 -34 23 -39 0 -11 337 -514 365 -545 12 -14 28
-36 35 -50 7 -14 26 -41 41 -60 16 -19 70 -91 120 -160 51 -69 103 -136 116
-149 13 -13 23 -27 23 -32 0 -5 19 -30 42 -58 24 -27 75 -88 113 -137 39 -48
89 -110 113 -138 24 -28 62 -73 85 -100 74 -88 157 -180 342 -382 129 -140
499 -510 639 -639 179 -164 250 -228 377 -339 51 -44 162 -135 374 -307 125
-100 346 -266 485 -364 19 -13 82 -57 139 -97 57 -40 111 -77 120 -83 9 -5 82
-54 163 -107 80 -54 150 -98 153 -98 4 0 28 -15 54 -34 25 -18 71 -47 101 -64
30 -16 79 -46 109 -66 29 -20 57 -36 62 -36 5 0 41 -21 80 -46 39 -25 83 -50
97 -55 13 -5 36 -18 51 -28 62 -44 535 -287 801 -410 74 -35 182 -85 240 -112
58 -27 110 -49 116 -49 6 0 60 -22 120 -50 60 -27 114 -50 121 -50 7 0 47 -15
90 -34 43 -19 106 -44 141 -55 35 -12 108 -39 163 -61 54 -22 116 -44 137 -49
20 -6 96 -30 167 -54 161 -56 410 -135 450 -143 17 -3 89 -24 162 -46 73 -21
160 -45 195 -52 35 -8 117 -28 183 -46 66 -17 183 -44 260 -60 77 -15 208 -42
290 -59 216 -44 694 -120 821 -131 60 -5 168 -16 239 -24 424 -49 795 -70
1285 -70 490 0 861 21 1285 70 72 8 179 19 238 24 143 12 632 91 877 142 107
23 228 47 269 54 40 7 142 31 225 53 83 22 167 43 186 47 35 6 136 34 260 72
36 11 81 23 100 27 19 4 96 26 170 50 74 24 164 53 200 64 102 30 327 108 420
145 47 19 103 40 125 47 22 6 78 29 125 49 47 20 98 40 113 44 25 6 115 44
191 82 16 8 34 14 40 14 6 0 58 22 116 49 440 205 611 287 650 310 25 15 79
44 120 64 105 53 262 139 291 159 13 10 27 18 32 18 5 0 40 19 79 43 38 23 91
54 116 68 77 43 233 139 267 165 18 13 35 24 39 24 8 0 152 92 231 147 22 16
54 37 72 48 58 36 252 173 429 303 136 99 153 112 202 152 24 19 57 44 72 55
15 11 94 74 174 140 81 66 166 135 189 154 23 18 62 51 87 74 98 87 157 140
203 180 175 154 690 663 847 837 108 120 128 143 179 200 26 30 66 75 88 100
23 25 56 64 74 87 19 23 88 108 154 189 66 80 129 159 140 174 11 15 36 48 55
72 40 49 53 66 152 202 127 173 261 363 303 430 11 17 32 49 48 71 55 79 147
223 147 231 0 4 11 21 24 39 26 34 122 190 165 267 14 25 45 78 69 116 23 39
42 74 42 79 0 5 8 19 18 32 20 29 107 187 159 291 20 41 46 91 58 110 12 19
77 152 144 295 195 412 221 469 221 481 0 6 6 24 14 40 38 76 76 166 82 191 4
15 24 66 44 113 20 47 43 103 49 125 7 22 28 78 47 125 37 95 115 320 145 420
11 36 37 119 59 185 22 66 47 149 55 185 8 36 25 99 38 140 13 41 34 116 47
165 12 50 40 158 61 241 22 83 46 185 53 225 7 41 31 162 54 269 51 245 130
734 142 877 5 59 16 167 24 238 49 424 70 795 70 1285 0 490 -21 861 -70 1285
-8 72 -19 179 -24 239 -11 127 -87 605 -131 821 -17 83 -44 213 -59 290 -16
77 -43 194 -60 260 -18 66 -38 148 -46 183 -7 35 -31 122 -52 195 -22 73 -43
146 -46 162 -8 40 -87 289 -143 450 -24 72 -48 147 -54 167 -5 21 -27 83 -49
137 -22 55 -49 128 -61 163 -11 35 -36 98 -55 141 -19 43 -34 83 -34 90 0 7
-23 61 -50 121 -28 60 -50 114 -50 120 0 6 -22 58 -49 116 -27 58 -77 166
-112 240 -123 266 -366 739 -410 801 -10 15 -23 38 -28 51 -5 14 -30 58 -55
97 -25 39 -46 75 -46 80 0 4 -23 42 -50 84 -28 42 -50 79 -50 82 0 4 -22 40
-50 81 -27 41 -50 77 -50 80 0 3 -44 72 -97 152 -54 81 -102 154 -108 163 -5
9 -43 63 -83 120 -40 57 -84 120 -97 139 -99 142 -268 367 -365 485 -22 28
-75 93 -116 145 -42 52 -91 111 -108 131 -17 20 -51 60 -76 90 -78 91 -158
181 -345 385 -129 140 -499 510 -639 639 -202 185 -294 268 -382 342 -27 23
-72 61 -100 85 -28 24 -90 75 -138 113 -49 39 -110 89 -137 113 -28 23 -53 42
-58 42 -5 0 -19 10 -32 23 -13 13 -80 65 -149 116 -69 50 -141 104 -160 120
-19 15 -46 34 -60 41 -14 7 -36 23 -50 35 -31 28 -534 365 -545 365 -5 0 -22
10 -39 23 -17 13 -63 42 -102 65 -39 22 -95 57 -124 76 -30 20 -58 36 -62 36
-4 0 -40 21 -79 46 -39 25 -83 50 -97 55 -13 5 -36 18 -51 28 -35 24 -180 101
-451 238 -294 149 -485 238 -800 371 -152 65 -567 225 -655 252 -22 7 -102 35
-177 62 -76 26 -143 48 -149 48 -6 0 -70 20 -143 44 -72 24 -147 47 -166 51
-19 3 -102 26 -185 50 -146 41 -534 138 -605 150 -19 4 -117 24 -218 46 -100
22 -228 46 -285 54 -56 8 -196 30 -310 50 -114 19 -240 38 -280 41 -40 3 -171
16 -292 29 -326 36 -611 55 -975 65 -179 5 -334 9 -345 8 -11 -2 -85 -3 -165
-5z m150 -357 l0 -284 -207 -6 c-115 -4 -311 -13 -438 -21 -126 -8 -285 -17
-352 -21 l-123 -6 0 68 c0 38 -11 163 -25 278 -13 116 -22 212 -19 215 11 12
238 30 499 41 149 6 284 12 300 14 17 1 105 4 198 4 l167 2 0 -284z m835 265
c212 -10 447 -30 464 -41 7 -4 4 -61 -10 -175 -11 -94 -24 -219 -27 -280 l-7
-110 -30 1 c-16 1 -111 7 -210 12 -360 22 -543 32 -707 38 l-168 6 0 286 0
285 248 -7 c136 -4 337 -11 447 -15z m-2065 -113 c0 -35 11 -160 25 -278 26
-229 26 -230 -25 -230 -14 0 -133 -15 -265 -34 -132 -19 -265 -37 -295 -41
-30 -3 -156 -26 -278 -50 -123 -25 -230 -45 -238 -45 -8 0 -14 10 -14 26 0 14
-22 124 -49 243 -58 256 -64 288 -48 294 7 2 41 9 77 15 36 6 151 27 255 46
281 51 710 112 808 115 l47 1 0 -62z m2855 37 c105 -13 226 -29 270 -35 44 -5
179 -28 300 -50 121 -22 249 -45 285 -52 36 -6 70 -13 77 -15 16 -6 10 -38
-48 -294 -27 -119 -49 -231 -49 -248 0 -36 33 -39 -290 25 -124 24 -265 48
-315 53 -49 5 -146 19 -215 30 -69 11 -169 25 -222 32 -54 6 -98 14 -98 18 0
3 11 103 25 221 14 117 25 242 25 277 l0 63 33 0 c17 0 118 -11 222 -25z
m-4102 -282 c14 -60 31 -137 37 -173 7 -36 21 -104 31 -151 11 -48 19 -95 19
-105 0 -19 -16 -24 -425 -121 -33 -8 -111 -30 -174 -49 -62 -19 -121 -34 -130
-34 -9 0 -84 -22 -167 -49 -83 -27 -163 -51 -179 -53 -27 -3 -30 0 -43 47 -8
28 -37 118 -64 200 -84 260 -90 277 -81 285 14 13 414 136 505 156 32 6 135
33 230 58 156 41 375 92 404 95 7 1 23 -45 37 -106z m5246 81 c64 -14 186 -43
271 -66 85 -22 189 -48 230 -58 68 -15 207 -56 438 -128 46 -14 85 -29 88 -34
5 -8 -2 -32 -84 -283 -27 -82 -57 -176 -66 -208 -14 -46 -21 -57 -33 -52 -9 3
-35 10 -57 15 -23 5 -103 30 -179 55 -76 25 -144 45 -152 45 -8 0 -83 20 -167
44 -84 25 -180 49 -213 56 -33 6 -118 26 -190 44 -113 29 -130 36 -127 52 1
10 11 60 21 109 11 50 24 119 31 155 18 101 61 280 67 280 3 0 58 -12 122 -26z
m1317 -378 c67 -25 126 -46 132 -46 5 0 65 -22 133 -50 68 -27 129 -50 136
-50 7 0 32 -9 56 -19 124 -57 181 -81 192 -81 6 0 47 -17 91 -39 43 -21 96
-44 118 -52 21 -8 41 -19 43 -25 2 -7 -5 -30 -16 -53 -12 -22 -21 -45 -21 -50
0 -6 -20 -51 -44 -101 -25 -50 -48 -100 -52 -113 -3 -12 -27 -66 -52 -119
l-45 -97 -46 23 c-25 13 -57 27 -71 31 -23 7 -45 17 -185 80 -31 14 -64 25
-73 25 -10 0 -22 4 -27 8 -17 15 -478 192 -500 192 -10 0 -149 47 -162 54 -1
1 10 33 24 71 14 39 38 113 54 165 15 52 45 145 66 205 l38 111 45 -12 c25 -6
99 -32 166 -58z m-7782 -43 c21 -60 48 -144 61 -188 12 -44 34 -114 49 -154
15 -41 23 -77 19 -81 -10 -10 -176 -70 -191 -70 -6 0 -46 -14 -89 -31 -43 -17
-118 -46 -168 -64 -88 -31 -221 -83 -340 -133 -33 -13 -107 -44 -164 -68 -58
-24 -106 -43 -107 -41 -5 5 -84 176 -84 183 0 3 -16 41 -36 83 -45 93 -104
232 -104 243 0 5 12 13 28 19 15 6 72 30 127 54 193 83 343 145 352 145 5 0
65 23 133 50 68 28 128 50 133 50 5 0 64 21 131 47 106 40 162 58 202 62 6 0
27 -47 48 -106z m4266 67 c248 -14 610 -44 930 -80 163 -18 606 -92 820 -137
118 -25 238 -49 265 -53 28 -4 127 -28 221 -54 93 -25 177 -46 185 -46 9 0 76
-18 150 -41 74 -23 159 -47 189 -55 79 -19 322 -99 477 -156 73 -26 137 -48
143 -48 7 0 71 -23 143 -51 196 -77 228 -89 274 -110 22 -10 70 -29 105 -43
117 -44 364 -156 681 -308 17 -8 106 -55 337 -175 46 -24 89 -48 95 -52 5 -5
39 -24 75 -44 126 -68 226 -126 296 -171 39 -25 74 -46 77 -46 4 0 40 -22 80
-50 41 -27 76 -50 79 -50 7 0 310 -199 348 -228 14 -10 63 -45 110 -77 81 -56
143 -100 241 -172 24 -18 49 -36 54 -41 6 -4 51 -39 100 -77 140 -107 167
-127 212 -165 23 -19 68 -56 100 -83 340 -279 773 -682 1067 -996 125 -133
384 -427 446 -505 16 -21 36 -44 43 -50 7 -6 26 -29 42 -51 16 -22 34 -44 41
-50 6 -5 24 -28 40 -50 16 -22 37 -49 47 -60 10 -11 46 -57 80 -102 34 -46 65
-83 69 -83 4 0 8 -6 8 -14 0 -7 17 -33 38 -57 22 -24 51 -62 65 -84 47 -71
164 -235 181 -253 9 -10 16 -23 16 -28 0 -5 10 -20 21 -34 27 -34 172 -251
181 -271 3 -9 26 -46 50 -81 76 -115 178 -284 250 -418 17 -30 34 -59 38 -65
52 -66 383 -728 508 -1015 130 -298 152 -351 152 -361 0 -6 22 -63 49 -128 26
-64 51 -129 55 -144 4 -16 26 -79 50 -140 23 -62 47 -130 53 -152 6 -22 29
-94 51 -160 68 -204 124 -387 142 -465 9 -41 36 -141 59 -222 22 -82 41 -155
41 -165 0 -9 20 -102 46 -207 25 -105 49 -220 54 -256 4 -36 27 -162 49 -280
23 -118 45 -260 51 -315 5 -55 19 -170 30 -255 96 -724 106 -1795 25 -2525
-59 -527 -104 -819 -185 -1195 -16 -74 -39 -180 -51 -235 -11 -55 -39 -167
-61 -250 -23 -82 -48 -184 -58 -225 -9 -41 -36 -136 -59 -210 -23 -74 -51
-162 -61 -195 -44 -146 -165 -487 -231 -652 -27 -67 -49 -127 -49 -133 0 -5
-23 -63 -51 -127 -175 -404 -231 -525 -375 -808 -89 -177 -140 -272 -258 -486
-48 -87 -118 -205 -152 -257 -17 -26 -43 -69 -58 -97 -16 -27 -43 -71 -62 -96
-18 -25 -37 -55 -41 -65 -5 -10 -44 -73 -88 -138 -44 -65 -91 -136 -105 -156
-21 -32 -110 -159 -198 -283 -13 -17 -33 -45 -46 -62 -13 -16 -68 -88 -122
-160 -54 -71 -101 -131 -105 -133 -4 -2 -22 -25 -39 -53 -18 -27 -36 -49 -40
-49 -4 0 -20 -19 -36 -43 -15 -23 -33 -47 -40 -52 -7 -6 -51 -58 -99 -115
-249 -298 -664 -734 -940 -986 -55 -50 -116 -106 -135 -124 -58 -53 -300 -263
-349 -302 -82 -66 -145 -118 -192 -156 -74 -60 -248 -194 -298 -230 -25 -18
-73 -52 -106 -77 -96 -71 -265 -188 -299 -208 -17 -11 -40 -27 -51 -37 -11
-10 -58 -42 -105 -70 -47 -28 -94 -60 -105 -69 -11 -10 -27 -20 -36 -23 -8 -3
-49 -28 -91 -54 -131 -84 -191 -121 -243 -149 -27 -15 -73 -43 -101 -61 -28
-19 -55 -34 -59 -34 -5 0 -42 -20 -84 -44 -174 -101 -882 -456 -910 -456 -5 0
-57 -23 -115 -50 -58 -28 -109 -50 -114 -50 -4 0 -60 -22 -123 -50 -62 -27
-119 -50 -125 -50 -11 0 -132 -48 -179 -71 -11 -5 -54 -20 -95 -33 -41 -14
-118 -40 -170 -59 -199 -72 -662 -214 -785 -241 -33 -7 -132 -32 -220 -54
-325 -83 -859 -185 -1180 -227 -654 -84 -1086 -110 -1703 -102 -451 5 -676 18
-1022 58 -96 11 -225 24 -286 29 -61 5 -205 26 -320 46 -115 20 -240 40 -279
46 -106 15 -520 104 -700 150 -88 22 -194 48 -235 58 -135 30 -564 164 -809
252 -74 26 -139 48 -145 48 -6 0 -60 21 -121 47 -60 25 -123 49 -140 54 -16 4
-79 28 -140 54 -60 26 -157 68 -215 92 -234 101 -686 320 -915 445 -196 108
-290 160 -315 177 -14 10 -38 25 -55 33 -57 28 -254 150 -402 250 -40 26 -76
48 -80 48 -5 0 -19 10 -33 21 -14 11 -68 49 -120 84 -52 35 -119 81 -148 102
-29 21 -72 52 -95 68 -23 17 -93 68 -156 115 -63 47 -126 94 -141 105 -33 24
-129 100 -150 118 -8 7 -37 31 -65 52 -46 36 -201 165 -249 208 -109 95 -279
246 -360 321 -99 90 -499 489 -566 563 -19 21 -66 72 -103 113 -38 41 -87 97
-110 123 -23 26 -54 61 -69 78 -26 29 -125 145 -220 259 -25 31 -63 78 -84
105 -20 28 -41 52 -46 53 -5 2 -15 17 -23 33 -9 16 -34 51 -58 78 -36 42 -188
246 -262 351 -80 115 -145 210 -168 245 -15 22 -39 58 -54 79 -16 22 -37 54
-48 72 -19 31 -56 90 -162 259 -81 127 -112 180 -130 215 -10 19 -38 68 -62
109 -46 77 -73 126 -153 276 -57 108 -298 592 -298 600 0 3 -22 52 -50 109
-27 57 -50 108 -50 114 0 5 -23 58 -50 117 -28 59 -50 112 -50 119 0 6 -23 63
-50 125 -28 63 -50 120 -50 127 0 6 -18 54 -39 105 -21 52 -46 119 -55 149 -9
30 -36 111 -60 180 -70 201 -185 581 -230 765 -70 278 -109 447 -116 490 -4
27 -28 156 -54 285 -129 660 -195 1378 -196 2125 0 744 67 1463 197 2125 25
129 49 258 53 286 5 29 27 125 50 215 23 90 46 186 51 214 19 105 165 595 250
840 26 77 51 151 55 165 4 14 26 74 50 134 24 61 44 115 44 122 0 11 14 46 65
159 12 28 28 68 35 90 7 22 32 82 56 133 24 51 44 98 44 103 0 6 23 57 50 114
28 57 50 107 50 110 0 11 243 499 272 546 15 25 28 51 28 56 0 5 22 48 50 94
27 46 50 88 50 93 0 5 15 32 34 60 18 28 47 76 63 106 48 88 174 295 240 395
23 34 52 80 64 101 11 22 34 57 50 79 16 22 40 56 52 75 52 79 141 206 157
225 10 11 26 34 37 51 10 17 36 56 59 85 22 30 74 99 115 154 40 55 79 105 85
110 7 6 21 24 31 41 10 17 37 53 60 80 24 27 100 119 171 204 71 86 138 167
150 180 12 14 42 48 66 75 41 47 134 149 216 238 19 20 139 141 265 269 276
277 600 572 849 772 61 48 119 97 129 107 10 10 21 19 26 19 4 0 33 21 63 48
57 48 281 217 348 262 20 14 56 39 78 55 38 27 102 72 267 185 90 62 227 150
233 150 2 0 30 17 61 38 56 38 183 115 266 162 24 14 70 40 102 59 62 37 69
41 263 146 198 107 323 171 495 252 88 42 191 91 229 109 38 19 73 34 78 34 5
0 57 23 115 50 58 28 111 50 117 50 7 0 63 23 124 50 61 28 117 50 123 50 6 0
68 22 137 49 230 89 708 252 738 251 7 0 85 23 174 50 89 28 169 50 178 50 8
0 101 22 206 49 105 27 225 56 266 64 41 8 152 30 245 50 190 39 630 112 775
127 383 41 783 75 980 83 193 8 815 6 990 -3z m4730 -523 c58 -27 137 -66 175
-85 39 -20 82 -42 98 -49 66 -31 263 -135 335 -177 35 -20 66 -36 69 -36 8 0
123 -72 123 -77 0 -2 -11 -21 -25 -41 -14 -20 -25 -40 -25 -43 0 -4 -18 -36
-40 -70 -22 -35 -47 -80 -56 -99 -9 -19 -31 -58 -49 -85 -18 -28 -45 -76 -61
-108 -15 -31 -31 -57 -35 -57 -4 0 -40 20 -80 45 -40 25 -76 45 -81 45 -4 0
-31 14 -60 31 -79 47 -359 190 -566 290 -101 48 -186 89 -188 92 -6 5 5 30 75
183 28 61 51 114 51 118 0 3 23 54 50 112 28 58 50 110 50 115 0 9 40 -9 240
-104z m-10177 4 c25 -54 55 -121 66 -150 12 -28 34 -78 51 -111 17 -33 37 -80
46 -106 14 -43 14 -47 -3 -60 -10 -7 -23 -14 -30 -14 -10 0 -408 -189 -464
-220 -9 -5 -70 -36 -135 -70 -66 -34 -123 -66 -129 -70 -5 -4 -39 -23 -75 -42
-36 -19 -80 -43 -99 -54 -20 -11 -35 -15 -37 -9 -2 6 -24 44 -49 85 -24 41
-56 98 -70 125 -14 28 -43 79 -65 114 -22 34 -40 66 -40 70 0 3 -12 24 -26 44
-14 21 -24 40 -22 41 29 23 102 68 120 75 13 5 59 30 102 55 43 25 82 46 86
46 5 0 48 23 96 50 48 28 91 50 95 50 5 0 45 20 89 44 44 25 90 48 102 51 13
4 66 29 118 55 129 64 203 99 216 99 6 1 31 -43 57 -98z m-1197 -528 c21 -31
115 -195 148 -258 12 -22 33 -58 48 -81 14 -23 36 -58 47 -79 24 -45 19 -54
-42 -84 -23 -11 -73 -41 -111 -66 -38 -25 -72 -45 -76 -45 -4 0 -25 -13 -46
-28 -21 -15 -74 -50 -117 -77 -43 -26 -85 -54 -92 -62 -8 -7 -31 -23 -53 -36
-61 -34 -246 -162 -261 -181 -7 -9 -18 -16 -24 -16 -5 0 -25 -12 -44 -26 l-33
-25 -28 32 c-15 17 -38 49 -52 69 -55 83 -169 237 -184 249 -9 7 -16 18 -16
24 0 5 -12 26 -27 45 l-26 35 29 24 c16 14 50 39 75 56 26 18 104 71 173 120
70 48 129 87 133 87 3 0 26 15 52 34 25 18 78 53 116 76 39 23 72 46 75 50 3
4 27 19 54 34 27 15 74 44 105 64 31 20 72 44 92 53 20 9 40 22 43 28 11 17
22 13 42 -16z m12333 13 c6 -8 26 -20 44 -27 18 -7 65 -35 104 -61 40 -26 76
-48 81 -48 5 0 34 -18 66 -41 31 -22 66 -46 79 -52 19 -11 138 -87 188 -121 9
-6 59 -40 110 -75 52 -35 102 -70 112 -79 10 -9 33 -25 51 -37 19 -11 52 -34
73 -50 l40 -31 -28 -34 c-16 -19 -29 -39 -29 -46 0 -6 -7 -18 -16 -25 -15 -12
-112 -143 -191 -258 -17 -25 -44 -60 -60 -78 l-28 -31 -110 79 c-60 43 -119
83 -131 88 -11 5 -33 20 -50 33 -33 28 -241 168 -248 168 -3 0 -41 24 -85 53
-139 92 -225 145 -248 151 -50 15 -44 48 33 167 16 24 38 62 50 84 33 63 127
227 148 258 21 31 29 33 45 13z m-13379 -673 c0 -5 24 -38 53 -75 28 -36 75
-99 102 -138 28 -40 69 -96 92 -125 22 -29 48 -66 57 -82 19 -38 29 -29 -222
-215 -44 -33 -83 -65 -297 -241 -88 -73 -171 -142 -185 -155 -85 -77 -151
-132 -160 -132 -6 0 -18 10 -28 22 -9 13 -36 42 -59 65 -24 24 -43 46 -43 50
0 4 -20 28 -44 53 -25 25 -81 85 -125 135 l-80 89 52 48 c93 85 106 96 260
223 84 69 174 145 202 168 27 23 65 52 85 66 19 13 43 32 53 42 10 11 35 31
55 44 20 14 78 56 127 94 89 69 105 78 105 64z m14487 -65 c53 -40 106 -80
119 -89 13 -8 45 -33 70 -55 26 -21 57 -46 70 -54 12 -8 44 -33 71 -55 26 -22
86 -71 133 -110 47 -38 103 -85 126 -105 23 -19 65 -55 94 -80 28 -25 74 -65
101 -90 l49 -45 -81 -90 c-44 -49 -100 -110 -125 -135 -24 -25 -44 -49 -44
-53 0 -4 -19 -27 -42 -50 -24 -24 -56 -58 -72 -75 -16 -18 -32 -32 -36 -32 -4
0 -67 53 -141 118 -75 64 -168 144 -209 177 -40 33 -91 77 -114 97 -23 21 -46
38 -52 38 -6 0 -21 11 -34 25 -13 14 -76 65 -140 113 -63 47 -131 100 -150
117 l-35 31 20 32 c11 18 40 59 65 91 25 33 68 92 95 131 28 39 74 102 102
138 29 37 53 70 53 75 0 14 12 7 107 -65z m1023 -853 c79 -72 543 -538 631
-634 l86 -94 -106 -97 c-58 -53 -160 -144 -225 -202 l-119 -106 -36 42 c-94
108 -489 509 -699 710 l-62 58 20 26 c11 14 96 108 188 210 92 101 171 190
177 197 7 11 19 5 55 -28 25 -23 65 -59 90 -82z m-16306 -99 c88 -98 165 -185
169 -193 6 -10 -10 -31 -60 -76 -78 -71 -566 -560 -663 -666 -36 -39 -68 -70
-73 -71 -7 0 -128 106 -309 273 -73 67 -105 103 -100 112 16 30 162 183 403
424 242 243 302 300 393 378 47 41 24 58 240 -181z m-984 -790 c36 -32 88 -79
115 -103 28 -25 70 -63 95 -86 25 -23 56 -50 68 -59 32 -26 28 -42 -27 -101
-49 -52 -129 -143 -164 -187 -10 -12 -61 -75 -113 -139 -52 -64 -109 -133
-127 -155 -17 -21 -41 -50 -52 -66 -77 -106 -196 -260 -200 -260 -14 0 -72 35
-120 73 -29 23 -85 65 -125 92 -39 28 -99 72 -133 98 -34 27 -68 52 -76 56
-10 6 5 32 60 106 41 54 87 117 103 139 16 23 35 45 42 51 7 5 23 26 36 45 13
20 42 58 65 85 23 28 98 118 167 201 69 84 138 166 153 183 15 16 48 53 73 80
l45 50 25 -22 c14 -13 54 -49 90 -81z m18187 -42 c22 -27 61 -72 85 -99 23
-28 79 -95 123 -149 44 -55 97 -119 118 -143 20 -24 37 -47 37 -51 0 -4 17
-25 37 -47 19 -22 43 -51 51 -65 9 -14 35 -47 57 -75 83 -101 118 -157 104
-166 -8 -4 -42 -29 -76 -56 -34 -26 -94 -70 -133 -98 -40 -27 -96 -69 -125
-92 -29 -22 -66 -48 -82 -56 -16 -9 -35 -23 -43 -32 -12 -14 -16 -12 -44 22
-17 20 -42 54 -56 74 -30 46 -209 278 -259 336 -20 24 -52 61 -71 83 -19 23
-44 54 -55 70 -16 23 -151 181 -226 266 -18 20 -18 21 18 55 20 19 56 53 79
77 24 23 47 42 51 42 4 0 28 20 53 44 25 25 86 81 135 125 l90 81 45 -49 c25
-27 64 -71 87 -97z m748 -960 c12 -18 28 -41 37 -51 13 -15 51 -70 157 -227 8
-11 39 -59 69 -106 31 -47 73 -111 94 -142 21 -32 43 -68 48 -80 6 -13 28 -50
50 -83 22 -33 44 -71 50 -84 6 -13 20 -37 32 -54 l21 -30 -24 -18 c-13 -11
-66 -43 -118 -72 -137 -76 -192 -108 -258 -147 -32 -19 -74 -42 -95 -52 l-36
-16 -54 86 c-29 48 -56 94 -60 103 -3 9 -26 45 -50 81 -24 35 -47 72 -51 81
-4 10 -27 47 -52 81 -25 35 -45 66 -45 70 0 3 -22 37 -50 76 -27 39 -50 74
-50 78 0 4 -13 23 -28 42 -16 19 -57 77 -92 128 -58 84 -63 95 -47 104 10 5
33 22 50 37 18 16 48 39 68 52 77 50 235 168 248 183 7 9 19 16 25 16 7 0 27
13 46 29 l34 28 31 -40 c16 -21 39 -54 50 -73z m-19811 81 c18 -14 38 -25 43
-25 6 0 17 -7 24 -16 12 -15 161 -125 248 -184 21 -14 54 -38 73 -54 l36 -30
-29 -35 c-16 -20 -29 -41 -29 -47 0 -6 -7 -17 -15 -24 -9 -7 -41 -52 -72 -99
-31 -47 -69 -102 -85 -121 -15 -19 -28 -40 -28 -46 0 -6 -9 -21 -20 -34 -11
-12 -34 -46 -51 -74 -18 -28 -54 -84 -81 -124 -26 -41 -48 -78 -48 -82 0 -5
-20 -38 -45 -74 -24 -36 -51 -80 -58 -98 -23 -56 -40 -64 -87 -39 -21 11 -59
33 -82 48 -24 15 -61 37 -83 49 -82 43 -232 130 -259 150 l-28 20 26 38 c14
22 26 42 26 46 0 4 18 34 39 66 21 33 51 82 66 109 16 28 31 52 35 55 4 3 27
37 50 75 23 39 58 91 76 116 19 26 34 49 34 52 0 4 39 63 88 133 48 69 93 136
101 148 29 42 94 126 98 126 2 0 19 -11 37 -25z m-725 -1089 c6 -8 26 -20 44
-27 18 -7 59 -30 92 -51 33 -21 76 -45 95 -54 19 -9 58 -31 85 -49 28 -18 76
-45 107 -61 l56 -27 -25 -40 c-14 -22 -43 -74 -65 -116 -23 -42 -68 -125 -100
-186 -32 -60 -68 -130 -80 -155 -11 -25 -24 -52 -28 -60 -3 -8 -20 -42 -37
-75 -63 -123 -153 -318 -153 -331 0 -7 -4 -15 -9 -19 -11 -6 -28 1 -187 74
-61 28 -114 51 -118 51 -7 0 -219 99 -225 106 -6 5 35 97 99 224 26 52 51 105
55 118 3 12 26 58 51 102 24 44 44 84 44 89 0 4 23 47 50 95 28 48 50 91 50
96 0 4 23 46 50 93 28 47 50 88 50 93 0 11 74 124 81 124 4 0 12 -6 18 -14z
m21198 -33 c17 -27 45 -77 63 -113 18 -36 38 -72 45 -80 7 -8 27 -44 43 -80
17 -36 44 -90 60 -120 63 -117 106 -204 180 -360 97 -206 112 -240 103 -240
-5 0 -51 -20 -103 -44 -51 -24 -117 -54 -145 -65 -29 -11 -84 -36 -123 -56
-38 -19 -74 -35 -80 -35 -5 0 -32 -11 -59 -24 l-49 -23 -41 91 c-59 130 -151
322 -209 434 -18 34 -46 90 -64 125 -17 34 -39 74 -50 89 -10 14 -18 31 -18
38 0 6 -22 48 -49 93 -27 45 -51 91 -53 102 -2 15 14 28 77 62 44 24 92 52
108 64 15 11 46 29 70 39 23 11 69 37 102 58 33 21 74 44 92 51 18 7 38 19 44
27 18 22 25 18 56 -33z m-21692 -1097 c44 -18 114 -50 156 -70 42 -20 80 -36
84 -36 11 0 195 -89 195 -94 0 -3 -11 -31 -25 -62 -14 -31 -25 -61 -25 -65 0
-5 -17 -47 -39 -92 -21 -46 -44 -101 -51 -123 -7 -21 -29 -77 -48 -124 -19
-47 -47 -121 -62 -165 -79 -228 -149 -427 -152 -430 -2 -2 -35 8 -73 22 -39
14 -113 38 -165 54 -52 15 -143 44 -203 65 l-107 38 6 35 c3 20 28 95 55 167
27 72 49 135 49 140 0 5 23 68 51 139 27 72 60 155 71 185 12 30 34 83 50 118
15 34 28 66 28 71 0 5 22 58 48 118 27 59 52 116 55 126 8 23 10 22 102 -17z
m22235 19 c0 -13 65 -163 90 -207 6 -10 10 -23 10 -29 0 -6 22 -63 49 -127 68
-163 151 -376 151 -388 0 -6 21 -66 46 -135 25 -68 51 -144 58 -169 l11 -45
-110 -38 c-60 -21 -147 -49 -192 -62 -45 -13 -128 -40 -183 -61 -105 -38 -119
-38 -120 6 0 8 -13 51 -29 95 -16 44 -39 109 -52 145 -12 36 -43 121 -70 190
-26 69 -53 143 -59 165 -7 22 -27 72 -45 111 -18 39 -38 88 -45 110 -7 21 -30
76 -52 122 -42 91 -42 92 -29 92 5 0 56 23 114 50 58 28 108 50 112 50 4 0 42
16 84 36 123 59 225 102 244 103 9 1 17 -6 17 -14z m-22695 -1199 c33 -10 125
-40 205 -66 80 -26 171 -55 203 -64 31 -9 57 -21 57 -26 0 -19 -24 -108 -61
-225 -21 -66 -44 -142 -50 -170 -7 -27 -29 -113 -50 -190 -21 -77 -44 -165
-50 -195 -13 -68 -71 -314 -74 -318 -4 -5 -565 115 -572 122 -6 5 45 230 94
414 24 95 51 198 57 230 15 66 116 403 148 490 4 13 14 22 21 20 6 -2 39 -12
72 -22z m23167 -66 c70 -218 228 -788 228 -826 0 -9 12 -67 26 -126 14 -60 24
-111 22 -114 -5 -4 -226 -53 -448 -99 -69 -15 -135 -29 -147 -31 -23 -6 -20
-13 -54 161 -25 133 -147 591 -220 827 -17 54 -28 102 -25 106 3 5 38 19 78
32 128 41 361 117 423 137 33 12 67 20 75 19 9 -1 25 -33 42 -86z m-23270
-1204 c108 -25 210 -46 227 -46 16 0 32 -3 34 -7 6 -11 -14 -137 -62 -393 -22
-118 -42 -244 -46 -280 -10 -102 -56 -455 -60 -459 -2 -2 -107 8 -232 23 -126
14 -257 26 -291 26 l-62 0 0 32 c0 81 66 553 116 823 19 105 40 219 46 255 6
36 13 70 15 76 6 16 91 2 315 -50z m23589 -37 c6 -41 26 -153 45 -249 42 -226
102 -644 116 -810 l3 -35 -110 -7 c-60 -4 -202 -18 -315 -31 -113 -14 -207
-23 -209 -21 -2 2 -8 54 -13 116 -5 62 -24 214 -44 338 -20 124 -40 259 -46
300 -6 41 -23 140 -39 220 -16 79 -25 148 -21 152 4 4 39 12 77 17 39 6 149
29 245 52 205 48 282 60 292 43 4 -6 13 -45 19 -85z m-23876 -1185 c72 -8 183
-19 247 -23 65 -4 120 -10 123 -13 4 -3 -1 -82 -10 -174 -13 -139 -33 -641
-35 -876 l0 -58 -300 0 -300 0 0 113 c0 266 38 978 56 1040 5 15 13 17 47 12
23 -3 101 -12 172 -21z m24068 -176 c20 -239 37 -637 37 -830 l0 -138 -318 0
-319 0 -6 288 c-6 251 -15 408 -43 739 l-7 81 79 6 c44 3 178 16 299 29 121
14 229 25 241 26 20 1 21 -7 37 -201z m-23740 -1215 c4 -58 7 -174 7 -257 0
-164 12 -358 36 -590 8 -81 13 -151 10 -153 -3 -3 -61 -9 -128 -14 -68 -4
-199 -17 -293 -28 -114 -14 -171 -17 -175 -10 -19 30 -42 404 -56 912 l-7 247
300 0 300 0 6 -107z m23777 -30 c0 -252 -40 -1014 -54 -1030 -2 -2 -108 8
-237 22 -129 14 -274 28 -323 31 l-89 6 7 67 c35 375 56 712 56 907 l0 134
320 0 320 0 0 -137z m-415 -1068 c121 -13 249 -26 285 -27 l65 -3 -3 -35 c-1
-19 -14 -120 -27 -225 -14 -104 -29 -226 -35 -270 -5 -44 -28 -174 -49 -290
-21 -115 -45 -246 -53 -290 l-13 -80 -40 3 c-22 2 -139 25 -260 52 -121 26
-247 53 -279 59 -32 6 -60 12 -62 14 -2 2 12 75 31 163 18 87 38 193 44 234 5
41 26 174 45 295 20 121 41 269 48 328 l12 108 36 -6 c19 -3 134 -16 255 -30z
m-23292 -7 c3 -18 13 -94 22 -168 29 -238 46 -351 81 -540 19 -102 43 -230 53
-285 10 -55 18 -101 16 -103 -2 -2 -31 -7 -66 -12 -35 -5 -143 -28 -239 -51
-201 -47 -287 -60 -293 -45 -2 6 -9 40 -15 76 -7 36 -30 162 -51 280 -22 118
-45 253 -51 300 -6 47 -22 171 -35 275 -14 105 -25 205 -25 223 l0 32 73 1
c39 0 158 11 262 24 267 32 262 32 268 -7z m23271 -1254 c88 -19 162 -36 164
-39 5 -4 -34 -182 -73 -340 -14 -55 -37 -147 -52 -205 -23 -93 -52 -192 -151
-522 -14 -49 -30 -88 -35 -88 -9 0 -51 13 -282 88 -278 90 -327 107 -331 113
-2 3 16 66 40 140 24 74 48 152 53 174 6 22 29 105 51 185 63 220 133 500 139
551 l5 45 157 -33 c86 -19 228 -49 315 -69z m-23034 -100 c0 -12 22 -102 48
-200 27 -98 54 -201 61 -229 11 -45 31 -112 116 -391 14 -44 25 -83 25 -86 0
-2 -33 -15 -72 -28 -40 -13 -140 -45 -223 -72 -256 -83 -276 -89 -283 -84 -5
3 -20 42 -34 88 -72 231 -113 370 -128 438 -10 41 -36 145 -58 230 -48 181
-95 391 -89 396 4 4 220 52 457 102 l135 28 22 -86 c12 -47 23 -94 23 -106z
m22370 -1005 c61 -22 148 -51 193 -64 45 -13 132 -41 192 -62 l110 -38 -16
-60 c-9 -33 -35 -109 -58 -169 -22 -60 -41 -114 -41 -120 0 -6 -23 -66 -50
-133 -28 -67 -50 -127 -50 -134 0 -6 -22 -62 -50 -124 -27 -62 -50 -118 -50
-123 0 -6 -22 -58 -50 -116 -27 -58 -50 -113 -50 -121 0 -8 -6 -15 -13 -15
-15 0 -141 52 -248 104 -42 20 -80 36 -84 36 -4 0 -54 23 -112 50 -58 28 -110
50 -116 50 -7 0 -17 4 -24 8 -15 9 2 63 47 154 16 32 40 89 54 126 13 37 43
109 65 161 23 52 41 99 41 104 0 6 21 62 46 125 25 63 52 135 59 161 14 49 86
241 91 241 1 0 53 -18 114 -41z m-22046 -106 c26 -76 62 -181 80 -233 18 -52
47 -126 65 -164 17 -38 31 -74 31 -81 0 -7 21 -59 46 -116 25 -57 49 -116 54
-130 4 -15 26 -66 49 -114 45 -97 45 -95 32 -95 -5 0 -56 -22 -113 -49 -56
-27 -113 -52 -125 -55 -12 -4 -57 -24 -101 -45 -117 -58 -213 -94 -221 -85 -4
5 -14 25 -21 44 -8 19 -31 71 -52 114 -21 44 -38 85 -38 91 0 11 -24 68 -81
192 -10 24 -19 49 -19 56 0 7 -22 68 -50 136 -27 68 -50 128 -50 133 0 6 -21
65 -46 132 -26 67 -52 141 -58 166 l-11 45 110 38 c61 21 148 50 195 63 47 13
126 39 175 58 50 19 93 35 96 35 3 1 27 -61 53 -136z m21554 -1013 c34 -16 66
-30 72 -30 6 0 42 -16 80 -35 39 -20 93 -44 121 -55 28 -11 80 -34 117 -52 37
-17 83 -38 103 -47 l36 -16 -29 -65 c-77 -172 -335 -691 -369 -740 -9 -14 -35
-61 -58 -105 -23 -44 -50 -91 -59 -103 l-18 -24 -39 26 c-21 14 -41 26 -45 26
-5 0 -37 18 -71 40 -35 22 -86 51 -114 65 -55 28 -181 101 -284 164 -11 7 -8
16 13 47 14 21 26 43 26 48 0 5 23 46 50 92 28 46 50 88 50 94 0 7 8 24 18 38
20 29 75 134 168 321 30 61 115 240 136 288 13 29 26 52 29 53 4 0 34 -13 67
-30z m-21056 -205 c23 -51 124 -248 204 -400 31 -60 66 -128 77 -150 11 -22
27 -51 37 -65 10 -14 31 -50 48 -82 36 -65 35 -67 -58 -113 -30 -15 -77 -42
-105 -60 -27 -18 -66 -40 -85 -49 -19 -9 -62 -33 -95 -54 -33 -21 -74 -44 -92
-51 -18 -7 -38 -19 -44 -27 -6 -8 -15 -14 -19 -14 -7 0 -80 112 -80 123 0 3
-16 34 -36 69 -42 72 -146 269 -177 336 -7 15 -29 59 -49 97 -36 73 -113 231
-167 348 -17 37 -27 67 -22 67 5 0 51 20 103 44 51 24 117 54 145 65 29 11 84
36 123 56 38 19 75 35 82 36 7 0 33 10 58 23 l45 22 47 -95 c25 -53 52 -109
60 -126z m20495 -916 c43 -23 96 -54 118 -68 22 -14 58 -35 80 -47 82 -43 232
-130 259 -150 l29 -21 -27 -39 c-14 -21 -26 -42 -26 -46 0 -9 -87 -149 -241
-388 -60 -92 -61 -94 -147 -220 -32 -47 -78 -114 -102 -150 -25 -36 -55 -76
-67 -90 -13 -14 -23 -29 -23 -33 0 -5 -17 5 -37 22 -21 17 -43 31 -49 31 -6 0
-18 7 -25 16 -7 9 -58 48 -113 88 -54 39 -122 88 -150 108 -28 21 -75 53 -103
73 -29 20 -53 39 -53 44 0 4 12 26 28 48 15 21 51 75 81 119 30 43 62 88 72
99 10 11 24 31 31 45 7 14 57 91 111 171 53 81 97 149 97 151 0 3 23 39 50 81
28 42 50 79 50 82 0 8 70 115 75 115 2 0 39 -19 82 -41z m-19947 -93 c51 -83
126 -200 181 -283 27 -40 49 -76 49 -79 0 -3 22 -36 48 -73 26 -36 62 -89 80
-117 18 -28 41 -59 52 -69 11 -10 20 -23 20 -29 0 -6 23 -40 50 -75 28 -35 50
-66 50 -70 0 -3 -20 -18 -43 -34 -23 -15 -65 -44 -93 -65 -28 -20 -96 -69
-150 -108 -55 -40 -106 -79 -113 -88 -7 -9 -19 -16 -25 -16 -7 0 -27 -13 -46
-29 l-34 -28 -31 40 c-16 21 -39 54 -50 73 -12 18 -28 41 -37 51 -9 10 -44 60
-79 112 -35 51 -69 101 -75 110 -34 50 -110 169 -121 188 -6 13 -30 48 -52 79
-23 32 -41 61 -41 66 0 5 -22 42 -50 84 -27 41 -50 79 -50 83 0 5 -12 25 -26
47 l-26 38 28 20 c27 20 177 107 259 150 22 12 59 33 82 49 24 15 71 42 105
60 l63 33 20 -31 c11 -18 36 -57 55 -89z m19274 -876 c26 -22 51 -40 55 -40 4
0 35 -21 69 -47 33 -27 93 -70 132 -98 39 -27 102 -74 138 -102 37 -29 73 -53
79 -53 11 0 -34 -65 -167 -240 -70 -92 -102 -132 -135 -171 -16 -20 -64 -78
-105 -129 -104 -129 -204 -247 -300 -351 l-45 -49 -90 81 c-49 44 -112 101
-140 126 -27 24 -70 63 -95 86 -25 23 -73 67 -107 97 -34 30 -59 57 -54 60 10
7 148 165 231 264 36 43 84 100 108 126 23 26 42 51 42 57 0 5 12 20 26 34 14
13 47 51 72 84 140 183 203 268 212 285 6 11 14 20 18 20 4 0 29 -18 56 -40z
m-18628 -71 c38 -51 78 -104 89 -119 20 -27 246 -309 279 -346 9 -11 41 -48
72 -84 125 -145 140 -163 175 -198 l36 -37 -51 -45 c-28 -25 -70 -64 -93 -87
-24 -24 -46 -43 -50 -43 -4 0 -28 -20 -53 -44 -25 -25 -85 -81 -135 -125 l-90
-81 -45 49 c-25 27 -65 72 -90 101 -25 29 -61 71 -80 94 -20 23 -67 79 -105
126 -39 47 -88 107 -110 133 -22 27 -47 59 -55 71 -8 13 -33 44 -54 70 -22 25
-47 57 -55 70 -9 13 -49 67 -90 121 -57 75 -71 99 -60 105 8 5 42 30 76 57 34
26 94 71 133 98 40 28 96 69 125 92 29 22 65 48 81 56 16 8 38 24 48 36 11 12
22 21 26 21 3 0 38 -41 76 -91z m18190 -1165 l111 -102 -86 -93 c-110 -121
-549 -560 -670 -670 l-93 -86 -102 111 c-56 61 -156 172 -223 247 l-122 136
87 79 c91 82 540 530 652 651 l65 70 135 -121 c74 -66 185 -166 246 -222z
m-17442 269 c61 -70 546 -554 658 -658 l98 -90 -77 -85 c-42 -47 -138 -153
-213 -236 l-137 -151 -94 86 c-120 109 -569 559 -675 675 l-81 89 151 137
c243 220 310 280 320 280 5 0 27 -21 50 -47z m16354 -940 c23 -24 42 -46 42
-50 0 -4 20 -28 44 -53 25 -25 81 -85 125 -135 l81 -90 -48 -45 c-27 -25 -72
-65 -101 -90 -29 -25 -74 -63 -100 -86 -25 -22 -60 -51 -77 -65 -27 -21 -138
-111 -273 -221 -25 -21 -68 -54 -96 -73 -27 -20 -93 -69 -145 -109 -92 -71
-95 -72 -106 -51 -6 12 -31 47 -55 77 -24 31 -66 88 -94 128 -27 39 -71 99
-97 132 -27 34 -48 65 -48 69 0 4 -20 31 -44 60 l-45 54 38 25 c21 14 85 61
141 105 56 44 117 90 134 101 17 12 43 33 58 46 14 14 41 36 60 48 18 13 51
41 72 62 22 21 43 38 48 38 4 0 15 8 25 18 10 10 79 71 155 135 75 64 139 121
143 128 5 7 29 -13 64 -53 31 -34 75 -82 99 -105z m-15412 30 c27 -23 72 -61
100 -85 28 -24 92 -77 144 -118 51 -41 113 -92 137 -112 24 -21 48 -38 52 -38
4 0 20 -13 37 -29 16 -15 47 -41 70 -57 47 -33 195 -144 207 -154 4 -4 -8 -26
-28 -49 -19 -24 -35 -46 -35 -50 0 -4 -21 -35 -47 -69 -27 -33 -70 -93 -98
-132 -27 -39 -72 -99 -98 -133 -27 -34 -52 -68 -56 -76 -9 -14 -65 21 -166
104 -27 22 -61 48 -75 57 -14 8 -43 32 -65 51 -22 20 -43 37 -47 37 -4 0 -27
17 -51 38 -24 20 -88 73 -143 117 -54 44 -121 100 -149 123 -27 24 -72 63 -99
85 -26 23 -70 62 -97 87 l-49 45 81 90 c44 50 100 110 125 135 24 25 44 49 44
53 0 4 19 26 43 50 23 23 62 65 87 93 l45 51 41 -36 c22 -20 62 -55 90 -78z
m14369 -686 c20 -29 52 -75 73 -103 20 -28 69 -96 108 -150 40 -55 79 -106 88
-113 9 -7 16 -19 16 -25 0 -6 14 -28 31 -49 17 -20 27 -37 22 -37 -4 0 -19
-10 -33 -23 -14 -12 -54 -42 -90 -67 -36 -24 -103 -70 -150 -102 -126 -86
-128 -87 -220 -147 -239 -154 -379 -241 -388 -241 -4 0 -25 -12 -46 -26 l-39
-27 -21 29 c-20 27 -107 177 -150 259 -12 22 -34 60 -50 85 -16 24 -40 67 -54
95 -14 27 -33 62 -43 76 l-19 27 34 26 c19 14 47 31 63 38 15 7 53 29 84 49
31 21 78 50 105 65 27 15 60 36 74 46 35 27 223 148 229 148 4 0 17 10 31 21
22 18 62 46 245 173 27 19 53 32 58 29 4 -2 23 -28 42 -56z m-13483 -4 c67
-51 196 -141 226 -158 9 -6 83 -54 165 -108 81 -53 150 -97 153 -97 3 0 26
-14 50 -31 25 -17 73 -46 107 -66 34 -19 80 -47 103 -61 l41 -27 -40 -75 c-22
-41 -52 -93 -66 -115 -14 -22 -35 -58 -47 -80 -44 -83 -130 -232 -150 -259
l-21 -29 -30 21 c-17 12 -41 26 -54 32 -13 6 -51 28 -84 50 -33 22 -70 44 -83
50 -12 5 -48 27 -80 48 -31 21 -95 63 -142 94 -47 30 -95 61 -106 69 -157 106
-212 144 -227 157 -10 9 -33 25 -51 37 -19 11 -52 34 -73 50 l-40 31 28 34
c16 19 29 39 29 46 0 6 7 18 16 25 9 7 48 58 88 113 39 54 88 122 108 150 21
28 52 72 69 99 18 26 36 47 40 47 4 0 36 -21 71 -47z m12417 -655 c61 -100
120 -203 146 -253 14 -27 43 -79 65 -114 22 -34 40 -66 40 -70 0 -3 12 -24 26
-45 l27 -39 -24 -18 c-13 -10 -60 -37 -104 -60 -44 -23 -91 -49 -105 -58 -49
-34 -568 -292 -740 -369 l-65 -29 -11 26 c-6 14 -30 65 -53 114 -22 48 -41 90
-41 94 0 6 -65 149 -136 301 l-34 73 57 25 c32 14 96 44 143 68 47 24 96 47
110 51 14 5 60 28 104 51 43 24 84 44 90 44 6 0 49 23 95 50 46 28 89 50 95
50 6 0 28 11 47 24 20 14 72 43 115 65 44 22 88 47 99 55 11 8 21 16 21 16 1
0 16 -24 33 -52z m-11295 -47 c20 -17 587 -301 719 -360 64 -30 117 -55 117
-57 0 -2 -13 -32 -29 -66 -85 -183 -131 -286 -131 -292 0 -3 -22 -54 -50 -112
-27 -58 -50 -110 -50 -115 0 -9 -34 6 -240 103 -156 74 -243 117 -360 180 -30
16 -84 43 -120 60 -36 16 -72 36 -80 43 -8 7 -55 34 -105 59 -49 26 -101 55
-114 65 l-24 18 27 39 c14 21 26 42 26 45 0 4 18 36 40 70 22 35 51 87 65 114
27 53 96 172 139 241 l26 41 66 -33 c36 -18 71 -38 78 -43z m10246 -477 c0 -7
23 -59 50 -117 28 -58 50 -108 50 -112 0 -4 16 -42 36 -84 52 -107 104 -233
104 -248 0 -7 -7 -13 -15 -13 -8 0 -63 -22 -121 -50 -58 -27 -110 -50 -116
-50 -5 0 -61 -22 -123 -50 -62 -27 -118 -50 -124 -50 -7 0 -67 -22 -134 -50
-67 -27 -127 -50 -133 -50 -6 0 -60 -19 -120 -41 -60 -23 -136 -49 -169 -58
l-60 -16 -38 110 c-21 60 -49 147 -62 192 -13 45 -42 132 -64 193 -23 61 -41
117 -41 124 0 7 21 19 48 28 174 58 400 141 547 200 55 22 123 48 150 58 28
10 82 32 120 50 39 18 97 43 130 55 54 21 61 21 73 7 6 -9 12 -21 12 -28z
m-9193 -30 c52 -24 109 -48 126 -53 18 -5 80 -30 139 -55 59 -25 112 -46 118
-46 7 0 68 -22 137 -50 69 -27 130 -50 136 -50 15 0 239 -81 250 -90 4 -4 -11
-57 -34 -119 -22 -62 -51 -149 -64 -194 -13 -45 -41 -131 -62 -192 l-38 -110
-45 11 c-25 7 -101 33 -169 58 -69 25 -129 46 -135 46 -12 0 -225 83 -388 151
-64 27 -121 49 -126 49 -6 0 -58 23 -116 50 -58 27 -113 50 -121 50 -20 0 -19
23 5 70 11 22 20 44 20 49 0 6 20 51 44 101 25 50 48 100 51 113 4 12 29 69
56 125 27 57 49 109 49 116 0 37 38 30 167 -30z m8070 -441 c27 -78 97 -294
153 -470 11 -34 20 -66 20 -70 0 -5 -39 -21 -87 -35 -331 -99 -430 -128 -523
-151 -58 -15 -150 -38 -205 -52 -158 -39 -336 -78 -340 -73 -5 4 -47 196 -106
473 -17 83 -33 155 -35 160 -3 6 83 31 193 58 109 26 263 66 343 89 80 22 186
51 235 63 50 13 135 39 190 59 55 19 107 35 116 35 12 1 25 -23 46 -86z
m-6933 33 c152 -48 416 -123 481 -137 22 -5 135 -32 250 -60 l211 -51 -23
-102 c-13 -55 -29 -128 -34 -161 -15 -82 -79 -368 -84 -373 -2 -2 -53 8 -113
22 -59 14 -117 26 -126 26 -57 0 -900 242 -912 261 -5 8 1 27 86 289 27 85 59
183 70 217 29 88 39 113 46 113 4 0 70 -20 148 -44z m5755 -318 c7 -40 34
-172 61 -293 27 -121 50 -238 52 -260 l3 -40 -80 -13 c-44 -8 -174 -32 -290
-53 -115 -21 -246 -44 -290 -49 -44 -6 -165 -21 -270 -35 -104 -13 -206 -26
-225 -27 l-35 -3 -3 60 c-1 33 -16 180 -32 326 -17 146 -30 268 -30 271 0 3
30 8 68 12 77 8 223 28 397 56 66 10 158 24 205 30 47 6 164 28 260 49 96 21
180 39 186 40 6 0 16 -32 23 -71z m-4528 18 c96 -20 210 -40 254 -45 44 -5
154 -21 245 -35 91 -14 219 -32 284 -41 66 -8 121 -17 123 -19 2 -1 -10 -119
-27 -262 -16 -142 -31 -288 -32 -324 l-3 -65 -35 3 c-169 14 -586 74 -810 117
-96 18 -197 36 -224 39 -27 3 -66 11 -87 16 -36 10 -38 12 -33 48 3 20 28 134
55 253 27 119 49 226 49 237 0 11 5 44 12 72 10 45 14 51 33 46 12 -3 100 -21
196 -40z m3332 -241 c4 -55 19 -203 32 -329 14 -126 24 -230 23 -231 -17 -15
-778 -55 -1030 -55 l-138 0 0 328 0 328 298 12 c163 7 353 17 422 23 161 14
351 27 370 25 12 -1 17 -23 23 -101z m-1928 71 c110 -8 307 -18 438 -22 l237
-7 0 -328 0 -329 -137 0 c-195 0 -592 17 -832 37 l-203 16 5 36 c11 75 47 430
53 525 l6 99 117 -6 c64 -4 206 -13 316 -21z"/>
<path d="M13291 24663 c-130 -2 -209 -7 -218 -14 -7 -6 -13 -26 -13 -45 0 -39
21 -54 74 -54 62 0 57 -14 -121 -360 -32 -63 -65 -125 -72 -136 -13 -20 -22
-6 -127 205 -62 124 -115 240 -119 258 l-6 32 58 3 58 3 3 53 3 52 -251 0
c-154 0 -259 -4 -271 -10 -13 -7 -19 -21 -19 -43 0 -39 15 -57 48 -57 54 0 71
-22 170 -211 33 -63 85 -163 117 -224 32 -60 82 -157 112 -215 37 -70 55 -117
55 -140 0 -22 -18 -68 -47 -125 -26 -49 -79 -150 -117 -223 -38 -73 -78 -147
-88 -165 -11 -18 -20 -39 -20 -47 -1 -24 -83 -133 -119 -157 -19 -13 -46 -23
-62 -23 -50 0 -76 -53 -48 -98 10 -15 31 -17 220 -15 122 2 218 7 229 13 28
15 26 64 -2 84 -12 9 -35 16 -50 16 -53 0 -39 48 83 286 116 227 131 254 139
254 3 0 15 -22 27 -48 23 -49 63 -127 114 -222 49 -91 119 -242 119 -256 0
-10 -13 -14 -44 -14 -27 0 -51 -6 -60 -16 -23 -22 -20 -71 4 -84 12 -7 114
-12 264 -13 270 -2 266 -3 266 63 0 32 -22 50 -62 50 -48 0 -88 58 -228 325
-203 388 -240 464 -240 499 0 27 26 86 97 224 54 103 120 231 148 284 63 123
118 184 171 193 56 9 69 18 72 54 3 30 -21 75 -37 69 -3 -2 -98 -4 -210 -5z"/>
<path d="M13600 24605 l0 -55 43 0 c45 -1 67 -12 85 -47 9 -16 12 -210 12
-727 l0 -705 -23 -26 c-17 -20 -35 -28 -70 -32 l-48 -6 3 -49 3 -49 265 0 265
0 3 46 c3 49 3 49 -61 60 -21 3 -47 15 -58 26 -18 18 -19 39 -19 742 0 718 0
724 21 743 11 10 41 21 67 24 l47 5 3 53 3 52 -270 0 -271 0 0 -55z"/>
<path d="M14195 24639 c-4 -11 -4 -36 0 -55 5 -32 8 -34 45 -34 52 0 68 -8 85
-41 13 -24 15 -134 15 -733 l0 -705 -23 -26 c-15 -18 -36 -28 -67 -32 -25 -3
-48 -11 -52 -17 -11 -17 -9 -74 2 -81 6 -4 129 -6 273 -6 l262 0 3 49 3 49
-49 7 c-27 3 -58 15 -70 26 l-22 21 0 718 c0 820 -7 760 86 770 l49 6 3 53 3
52 -270 0 c-265 0 -270 0 -276 -21z"/>
<path d="M8615 23645 c-31 -25 -239 -157 -307 -195 -100 -57 -108 -66 -97 -99
6 -16 19 -37 29 -46 18 -17 21 -16 55 4 40 24 72 26 96 8 16 -12 108 -148 121
-178 3 -9 26 -46 50 -81 47 -71 108 -168 148 -235 52 -88 143 -236 174 -282
17 -27 54 -85 81 -130 28 -45 70 -112 93 -149 60 -93 92 -157 92 -186 0 -16
-14 -36 -42 -60 l-41 -36 19 -36 c30 -57 35 -57 105 -10 89 60 207 135 276
174 32 18 69 41 83 52 24 18 24 19 7 55 -22 47 -38 51 -91 25 -33 -15 -50 -19
-63 -12 -27 15 -60 53 -85 99 -27 49 -104 172 -164 265 -24 36 -44 69 -44 73
0 4 -20 36 -45 72 -25 35 -45 68 -45 72 0 4 -13 26 -28 47 -16 21 -51 78 -79
126 -28 48 -56 93 -63 100 -6 7 -27 40 -47 73 -20 33 -59 97 -87 143 -28 46
-61 100 -73 120 -33 55 -29 75 23 120 l46 39 -23 42 c-26 44 -43 50 -74 26z"/>
<path d="M8005 23263 c-60 -41 -121 -79 -134 -84 -14 -6 -44 -22 -68 -37 -34
-22 -42 -33 -42 -57 0 -63 45 -82 106 -45 l32 19 10 -37 c10 -37 55 -522 49
-527 -2 -2 -35 18 -75 43 -95 62 -177 112 -222 137 -51 29 -122 76 -149 99
l-22 20 46 42 46 43 -23 40 c-12 23 -27 41 -33 41 -15 0 -116 -63 -116 -72 0
-4 -6 -8 -13 -8 -8 0 -38 -17 -68 -38 -30 -21 -88 -57 -129 -80 -42 -22 -86
-53 -99 -68 -23 -26 -23 -27 -5 -60 21 -38 47 -43 93 -19 27 14 33 12 117 -31
49 -24 139 -74 199 -111 132 -79 191 -114 310 -182 50 -29 107 -70 129 -91 47
-46 52 -69 66 -335 5 -104 14 -237 20 -295 14 -143 2 -202 -51 -250 -22 -19
-39 -43 -39 -51 0 -23 39 -69 58 -69 9 0 49 21 87 46 127 84 169 111 223 139
58 31 73 61 52 101 -15 26 -56 32 -92 13 -47 -25 -56 13 -86 372 -20 228 -21
221 43 173 17 -12 62 -40 100 -61 186 -107 344 -206 345 -217 0 -5 -17 -23
-37 -41 -34 -30 -36 -34 -27 -65 6 -23 18 -36 37 -43 30 -10 22 -14 214 115
39 26 74 48 78 48 19 0 155 94 155 107 0 8 -8 28 -17 44 -20 33 -48 37 -94 14
-28 -15 -33 -14 -92 12 -34 15 -93 47 -131 71 -37 24 -78 47 -90 52 -12 4 -42
21 -67 38 -24 16 -71 44 -104 62 -32 18 -82 47 -110 64 -27 18 -67 41 -88 51
-66 35 -131 89 -149 125 -13 27 -20 82 -28 235 -5 109 -15 251 -21 313 -14
150 -3 200 52 244 43 34 49 61 21 94 -32 41 -51 36 -167 -43z"/>
<path d="M18821 23264 c-32 -40 -27 -66 17 -89 53 -28 56 -74 10 -151 -18 -30
-44 -74 -58 -98 -47 -81 -112 -191 -150 -251 -46 -75 -106 -175 -224 -376 -27
-46 -63 -106 -81 -134 -17 -27 -49 -81 -71 -118 -21 -38 -51 -89 -66 -115 -28
-49 -71 -92 -91 -92 -7 0 -29 9 -50 20 -51 28 -59 26 -85 -22 -24 -46 -27 -58
-13 -58 4 0 36 -17 69 -37 34 -21 86 -51 116 -68 31 -16 101 -58 157 -92 56
-35 105 -63 109 -63 10 0 50 67 50 83 0 7 -13 21 -30 30 -63 38 -64 86 -4 185
22 34 50 82 64 106 45 76 112 190 150 251 67 109 125 205 140 233 8 15 29 50
46 77 17 28 43 73 58 100 15 28 42 73 60 100 29 44 65 104 142 234 26 45 63
60 107 42 67 -27 75 -26 94 13 21 45 13 63 -43 92 -21 11 -65 36 -97 55 -32
19 -70 41 -85 49 -15 8 -52 31 -82 51 -63 41 -115 69 -129 69 -5 0 -19 -12
-30 -26z"/>
<path d="M4119 19568 c-22 -44 -45 -81 -142 -229 -62 -94 -68 -120 -35 -143
36 -26 63 -19 96 21 30 37 30 38 51 19 18 -16 78 -108 121 -184 8 -15 29 -49
46 -77 17 -27 46 -77 64 -110 18 -33 37 -65 42 -72 11 -14 -92 -10 -336 13
-161 16 -206 25 -206 43 0 6 9 29 21 51 24 45 21 62 -15 86 -41 26 -74 12 -98
-44 -12 -26 -38 -73 -60 -104 -21 -31 -42 -67 -47 -80 -5 -13 -30 -50 -54 -82
-25 -33 -48 -76 -52 -95 -6 -30 -3 -39 20 -58 14 -13 31 -23 36 -23 6 0 28 18
50 40 39 39 42 40 107 40 37 0 221 -13 410 -30 299 -25 347 -32 377 -50 37
-23 46 -37 179 -267 22 -37 59 -98 83 -135 24 -37 43 -70 43 -73 0 -4 23 -44
51 -90 49 -80 51 -85 46 -142 -3 -32 -9 -73 -12 -91 -9 -40 13 -61 61 -62 26
0 33 6 53 48 13 26 40 73 62 104 21 32 39 62 39 66 0 5 9 20 21 33 11 13 32
43 46 67 31 53 26 84 -18 103 -31 12 -33 11 -66 -24 -30 -34 -36 -36 -53 -24
-27 19 -69 78 -125 178 -27 46 -56 95 -65 109 -9 14 -40 65 -69 114 -46 80
-49 88 -29 83 13 -3 84 -9 158 -12 196 -9 361 -24 392 -36 l27 -11 -20 -45
c-20 -46 -16 -66 15 -92 25 -21 70 -5 88 32 25 52 113 198 157 258 23 32 41
61 41 67 0 5 7 15 15 22 22 18 18 56 -7 80 -33 30 -63 25 -93 -15 -18 -23 -38
-37 -61 -41 -19 -3 -212 8 -431 25 -482 38 -459 31 -539 166 -29 50 -64 110
-77 135 -26 48 -97 168 -158 265 -55 87 -67 148 -44 221 l18 57 -24 18 c-13
10 -36 19 -51 19 -23 0 -32 -8 -49 -42z"/>
<path d="M22799 19547 c-36 -25 -40 -41 -19 -93 21 -49 6 -79 -57 -120 -31
-20 -64 -39 -72 -42 -9 -3 -51 -27 -93 -54 -43 -26 -81 -48 -86 -48 -4 0 -32
-16 -62 -36 -30 -20 -87 -54 -127 -75 -39 -21 -88 -50 -109 -64 -20 -14 -40
-25 -45 -25 -4 0 -44 -22 -88 -50 -44 -27 -84 -50 -87 -50 -4 0 -42 -22 -85
-50 -43 -27 -82 -50 -86 -50 -5 0 -33 -16 -63 -36 -74 -49 -185 -104 -209
-104 -11 0 -35 18 -54 40 -39 46 -60 49 -102 16 -23 -18 -27 -27 -19 -37 6 -8
26 -41 44 -74 18 -33 48 -82 67 -109 18 -26 33 -52 33 -58 0 -5 23 -46 50 -92
28 -46 50 -88 50 -95 0 -18 39 -13 71 10 34 24 35 35 12 84 -16 34 -16 38 1
70 12 23 38 44 80 66 33 18 84 46 111 64 46 29 161 96 260 150 22 13 90 51
150 87 61 35 125 73 144 84 18 10 73 43 122 72 49 28 92 52 96 52 5 0 33 17
64 38 31 20 94 57 141 81 98 51 120 50 157 -4 13 -19 31 -35 41 -35 25 0 80
30 80 43 0 7 -24 51 -53 100 -28 48 -61 104 -72 125 -11 20 -35 62 -53 92 -36
61 -42 71 -63 114 -19 39 -29 41 -70 13z"/>
<path d="M23091 19021 c-20 -15 -23 -24 -17 -52 20 -98 20 -97 -13 -128 -16
-15 -47 -36 -68 -46 -21 -10 -69 -37 -106 -61 -37 -24 -70 -44 -74 -44 -3 0
-43 -22 -89 -50 -46 -27 -85 -50 -88 -50 -2 0 -40 -22 -83 -48 -43 -27 -86
-52 -96 -55 -10 -4 -42 -22 -70 -40 -48 -31 -87 -54 -243 -142 -29 -16 -84
-49 -123 -72 -39 -24 -74 -43 -78 -43 -4 0 -28 -14 -53 -30 -63 -42 -91 -39
-130 10 -35 44 -51 48 -98 24 -38 -19 -39 -23 -7 -74 14 -22 25 -42 25 -45 0
-4 23 -40 50 -82 28 -42 50 -79 50 -84 0 -4 22 -45 50 -91 27 -46 50 -88 50
-95 0 -23 21 -24 60 -2 45 26 47 32 23 101 l-18 50 41 37 c23 20 64 47 90 61
27 14 72 39 99 55 28 17 82 48 120 70 39 21 81 46 95 55 28 19 148 88 225 130
28 15 102 58 165 95 63 37 149 87 190 110 41 23 91 53 110 66 20 13 59 35 87
48 64 30 96 23 125 -24 12 -21 28 -35 40 -35 23 0 78 30 78 43 0 13 -39 85
-86 158 -24 38 -44 73 -44 78 0 4 -12 25 -26 46 -14 21 -42 69 -61 107 -38 74
-57 84 -102 49z"/>
<path d="M3970 14384 c-6 -14 -10 -33 -10 -43 0 -32 -64 -78 -230 -164 -52
-27 -102 -55 -111 -63 -8 -8 -22 -14 -30 -14 -8 0 -51 -23 -97 -50 -46 -28
-86 -50 -90 -50 -4 0 -47 -24 -97 -52 -84 -48 -94 -52 -160 -52 -67 -1 -75 2
-162 52 -51 28 -97 52 -103 52 -6 0 -45 19 -88 43 -42 23 -117 63 -166 87 -48
25 -110 65 -136 90 -41 39 -48 52 -54 98 l-7 52 -43 0 c-24 0 -48 -6 -53 -12
-5 -7 -9 -110 -8 -231 2 -240 1 -237 63 -237 36 0 52 25 52 82 0 30 1 30 41
24 22 -4 97 -36 167 -73 70 -37 169 -88 220 -113 l93 -47 -242 -121 c-132 -67
-249 -122 -259 -122 -16 0 -19 9 -22 58 l-3 57 -52 3 -53 3 0 -251 c0 -154 4
-259 10 -271 8 -14 21 -19 51 -19 42 0 43 2 54 60 7 40 64 90 150 132 28 13
93 47 145 75 52 28 154 81 225 118 72 37 149 79 173 93 60 34 133 34 187 0 34
-21 86 -48 313 -162 17 -9 47 -23 65 -32 65 -32 179 -94 196 -106 32 -24 71
-85 71 -112 0 -47 17 -66 58 -66 21 0 43 5 49 11 13 13 5 439 -9 457 -13 16
-74 16 -84 0 -4 -7 -10 -28 -14 -48 -9 -59 -61 -52 -211 32 -48 26 -91 48 -97
48 -5 0 -49 22 -98 49 -49 27 -99 52 -112 56 -13 3 -22 11 -20 17 2 6 49 34
103 62 55 29 167 87 249 129 81 43 155 77 165 75 11 -2 17 -17 21 -53 5 -50 5
-50 43 -53 67 -6 67 -8 66 268 0 274 4 260 -65 260 -28 0 -36 -5 -44 -26z"/>
<path d="M24537 14384 c-4 -4 -7 -20 -7 -36 0 -38 -25 -84 -52 -99 -32 -17
-1388 -34 -1436 -18 -38 12 -62 56 -62 109 l0 31 -52 -3 -52 -3 3 -265 c1
-146 5 -268 8 -272 5 -9 65 -10 87 -2 11 4 16 19 16 44 0 53 8 68 44 88 28 15
103 17 716 25 377 4 695 5 706 3 42 -11 65 -39 72 -91 l7 -50 52 -3 52 -3 -5
273 -4 273 -43 3 c-24 2 -46 0 -50 -4z"/>
<path d="M24543 13783 c-8 -3 -13 -23 -13 -49 0 -64 -28 -90 -106 -97 -32 -4
-357 -8 -721 -9 l-662 -3 -23 22 c-14 15 -24 40 -28 70 l-5 48 -54 3 -54 3 6
-137 c4 -75 7 -200 7 -276 l0 -139 48 3 c42 3 47 6 50 28 7 57 24 91 55 107
28 14 111 17 707 25 371 5 689 6 706 3 42 -7 73 -43 82 -96 l7 -44 54 -3 54
-3 -6 77 c-4 42 -7 166 -7 276 l0 198 -42 -1 c-24 0 -49 -3 -55 -6z"/>
<path d="M24553 13184 c-7 -3 -13 -21 -13 -39 0 -19 -5 -45 -11 -58 -24 -53
-2 -51 -747 -60 -381 -5 -704 -6 -717 -3 -38 10 -65 45 -65 86 0 47 -15 60
-67 60 l-43 0 0 -276 0 -275 52 3 53 3 7 48 c7 54 21 75 58 89 14 5 316 13
710 18 729 9 734 9 759 -38 6 -11 13 -38 17 -61 l7 -41 48 0 49 0 -2 273 -3
272 -40 2 c-22 1 -46 0 -52 -3z"/>
<path d="M3986 13068 c-3 -7 -7 -31 -10 -53 -4 -27 -14 -47 -31 -61 -26 -20
-40 -21 -492 -27 -673 -10 -915 -9 -952 4 -36 13 -53 38 -60 94 l-6 40 -51 3
-51 3 2 -273 3 -273 49 0 48 0 7 49 c11 78 30 90 151 97 56 4 378 7 715 8
l614 1 29 -29 c22 -23 29 -39 29 -69 0 -45 10 -52 70 -52 l38 0 -1 275 -1 275
-49 0 c-29 0 -49 -5 -51 -12z"/>
<path d="M4533 10058 c-32 -22 -43 -51 -24 -62 12 -8 23 -70 15 -90 -6 -17
-117 -96 -134 -96 -5 0 -45 -21 -89 -47 -145 -86 -215 -126 -279 -161 -35 -18
-84 -47 -110 -63 -25 -16 -49 -29 -53 -29 -4 0 -36 -18 -70 -40 -35 -22 -80
-48 -99 -56 -19 -9 -68 -36 -107 -60 -40 -24 -76 -44 -79 -44 -4 0 -40 -20
-80 -45 -135 -84 -177 -88 -222 -20 -12 19 -27 35 -33 35 -15 0 -79 -40 -79
-49 0 -11 51 -108 89 -169 32 -51 45 -74 124 -222 20 -38 43 -70 50 -70 21 0
77 39 77 54 0 7 -7 31 -16 52 -15 36 -15 41 1 70 9 18 33 40 53 50 20 11 74
40 119 67 45 26 84 47 87 47 2 0 41 22 85 49 44 27 88 52 99 56 11 3 36 17 55
30 20 13 68 41 109 63 40 21 95 53 122 71 28 17 53 31 58 31 4 0 38 19 75 41
38 23 97 58 133 77 36 19 76 42 90 52 31 20 130 67 150 71 29 5 57 -12 76 -46
22 -42 51 -46 90 -12 l27 23 -22 45 c-12 24 -48 89 -81 144 -33 55 -80 139
-105 188 -25 48 -51 87 -58 87 -7 0 -27 -10 -44 -22z"/>
<path d="M4826 9529 c-26 -21 -34 -53 -16 -64 6 -3 10 -26 10 -50 0 -50 -19
-68 -120 -119 -30 -16 -62 -34 -70 -42 -9 -7 -36 -22 -60 -34 -25 -11 -70 -36
-100 -55 -30 -19 -70 -41 -88 -50 -19 -8 -67 -35 -106 -60 -40 -25 -77 -45
-82 -45 -5 0 -26 -11 -46 -25 -20 -14 -76 -47 -125 -74 -48 -26 -134 -75 -191
-107 -158 -90 -245 -133 -269 -134 -14 0 -34 15 -54 40 -37 45 -57 49 -99 18
l-29 -21 41 -76 c22 -42 51 -90 63 -107 13 -16 30 -46 38 -65 8 -19 33 -65 56
-103 22 -37 41 -74 41 -81 0 -7 7 -18 15 -25 11 -9 22 -7 55 11 43 24 48 39
25 79 -8 14 -14 37 -15 51 0 44 23 61 315 221 50 28 95 54 101 59 6 5 42 25
80 45 37 19 88 49 112 65 23 16 49 29 56 29 7 0 24 8 37 18 33 25 115 73 164
95 22 10 46 24 55 31 8 7 35 24 60 37 25 12 81 44 125 70 110 65 147 77 181
59 14 -8 30 -24 34 -35 16 -43 36 -49 80 -24 22 12 40 26 40 29 0 13 -34 75
-77 142 -24 36 -43 69 -43 71 0 3 -16 34 -36 69 -21 34 -50 89 -65 121 -32 63
-49 70 -93 36z"/>
<path d="M22035 9352 c-27 -42 -56 -90 -63 -107 -7 -16 -16 -32 -21 -35 -9 -6
-151 -217 -151 -225 0 -2 18 -17 41 -32 l41 -27 35 42 c55 66 76 62 252 -55
80 -54 158 -105 172 -113 34 -20 115 -72 212 -137 43 -29 80 -53 82 -53 2 0
67 -42 144 -94 77 -52 151 -100 164 -108 14 -7 51 -31 83 -53 33 -22 71 -46
86 -53 38 -19 77 -61 84 -87 3 -13 -1 -37 -10 -53 -23 -45 -20 -68 13 -91 38
-27 55 -26 69 4 6 14 33 57 59 97 26 40 54 84 63 99 8 15 43 68 78 118 34 51
62 98 62 106 0 16 -49 45 -75 45 -9 0 -29 -16 -46 -35 -52 -59 -46 -61 -342
129 -67 44 -192 125 -277 181 -85 56 -166 108 -180 115 -13 7 -31 19 -38 27
-7 7 -34 25 -60 40 -26 15 -81 50 -123 77 -42 28 -110 74 -151 101 -42 28 -84
63 -93 78 -16 27 -16 29 10 73 15 25 24 52 21 59 -4 13 -68 46 -85 45 -3 -1
-28 -35 -56 -78z"/>
<path d="M5123 9010 c-36 -22 -39 -33 -18 -70 20 -35 19 -84 -2 -102 -20 -16
-128 -80 -214 -126 -65 -35 -199 -111 -254 -145 -34 -21 -133 -76 -240 -135
-16 -9 -55 -30 -85 -48 -30 -17 -80 -45 -110 -61 -61 -34 -181 -102 -251 -143
-81 -48 -94 -47 -144 7 l-43 47 -41 -19 c-23 -10 -41 -24 -41 -31 0 -13 74
-149 95 -174 12 -14 81 -139 133 -242 27 -53 36 -56 81 -30 41 23 44 36 21 82
-26 51 -25 61 8 92 31 29 135 98 147 98 5 0 44 21 88 47 43 25 96 56 118 67
79 43 215 120 254 143 57 35 189 110 265 150 35 19 84 48 108 64 23 16 48 29
53 29 6 0 47 23 92 50 45 28 93 50 107 50 27 0 62 -30 73 -63 10 -28 37 -32
74 -12 30 17 34 23 29 47 -3 16 -28 64 -56 107 -27 43 -50 81 -50 86 0 4 -21
44 -48 89 -26 44 -56 99 -67 121 -24 47 -39 52 -82 25z"/>
<path d="M21470 8509 c-32 -12 -60 -57 -60 -98 0 -34 -10 -21 228 -286 85 -93
175 -194 200 -222 26 -29 67 -74 92 -101 25 -27 68 -75 95 -106 28 -32 59 -68
71 -80 103 -106 378 -423 391 -451 15 -32 15 -37 -1 -74 -21 -46 -15 -74 20
-90 27 -12 74 -5 74 11 0 6 20 40 44 77 24 36 49 77 56 91 7 14 16 27 19 30
10 8 77 103 90 128 9 17 9 27 0 45 -16 29 -28 37 -62 37 -22 0 -33 -9 -58 -50
-17 -27 -36 -50 -42 -50 -23 0 -722 784 -703 788 6 1 58 -16 115 -38 56 -22
125 -47 154 -55 29 -7 111 -35 182 -60 72 -26 150 -53 175 -62 25 -8 92 -31
150 -51 213 -72 215 -74 176 -157 -15 -29 -26 -58 -26 -63 0 -19 38 -42 68
-42 27 0 35 7 59 48 15 26 44 72 65 103 21 31 38 59 38 62 0 3 21 35 48 71 56
78 92 134 92 145 0 19 -43 61 -62 61 -11 0 -38 -16 -59 -35 -22 -19 -45 -35
-52 -35 -31 1 -135 31 -234 68 -59 22 -119 43 -133 47 -14 3 -90 29 -170 57
-143 50 -282 98 -575 198 -82 28 -206 71 -275 95 -157 54 -160 55 -190 44z"/>
<path d="M5615 8033 c-33 -8 -143 -36 -245 -63 -102 -27 -239 -62 -305 -79
-66 -17 -156 -41 -200 -52 -44 -11 -168 -43 -275 -71 -107 -27 -245 -63 -306
-79 -61 -16 -122 -29 -135 -29 -16 0 -41 16 -68 41 -30 29 -47 39 -59 34 -9
-4 -25 -10 -35 -12 -31 -9 -32 -50 -1 -96 15 -23 36 -55 45 -72 9 -16 31 -57
50 -90 18 -33 45 -82 59 -110 19 -39 31 -51 52 -53 67 -8 87 42 46 119 l-22
42 23 18 c12 10 43 21 69 25 26 4 125 29 220 55 95 27 180 49 190 49 9 0 95
22 192 48 168 47 343 91 346 88 1 0 -57 -57 -130 -126 -72 -68 -205 -195 -296
-281 -372 -353 -347 -334 -377 -295 -10 13 -26 39 -36 56 -16 30 -21 32 -54
27 -20 -4 -40 -12 -45 -19 -17 -25 1 -77 51 -156 28 -43 51 -82 51 -86 0 -5 9
-20 20 -35 10 -15 40 -69 65 -119 41 -82 49 -92 73 -92 53 1 64 20 56 101 l-6
74 168 160 c92 88 215 205 272 260 58 55 129 123 157 150 28 28 119 115 204
195 356 337 381 363 381 399 0 23 -9 41 -29 62 -34 34 -69 36 -166 12z"/>
<path d="M7711 5869 c-17 -49 -14 -60 29 -96 46 -40 48 -53 19 -108 -76 -141
-141 -256 -206 -361 -23 -39 -43 -74 -43 -78 0 -4 -22 -42 -50 -85 -27 -43
-50 -81 -50 -85 0 -4 -22 -44 -50 -90 -27 -46 -50 -86 -50 -90 0 -4 -13 -26
-28 -49 -16 -23 -45 -71 -64 -107 -138 -252 -164 -278 -236 -241 -23 12 -46
21 -51 21 -6 0 -18 -17 -28 -37 -9 -21 -18 -41 -20 -44 -5 -8 73 -58 162 -104
67 -35 114 -62 237 -139 31 -20 58 -36 61 -36 8 0 47 70 47 85 0 7 -16 23 -34
35 -19 11 -38 30 -41 41 -11 34 5 91 40 144 18 28 48 78 66 112 48 88 105 187
156 269 23 39 43 74 43 78 0 3 23 43 50 87 28 44 50 83 50 85 0 3 23 42 50 88
28 46 50 86 50 90 0 4 15 31 33 59 19 29 51 84 72 122 46 85 101 155 122 155
8 0 32 -10 53 -21 46 -26 65 -21 87 25 21 45 16 51 -89 105 -46 23 -112 60
-147 82 -34 21 -66 39 -70 39 -3 0 -32 18 -65 40 -71 49 -90 50 -105 9z"/>
<path d="M8230 5568 c-28 -46 -26 -54 20 -84 55 -36 60 -65 25 -129 -15 -27
-40 -72 -55 -100 -15 -27 -41 -72 -58 -100 -18 -27 -37 -61 -44 -75 -12 -26
-75 -135 -160 -276 -26 -45 -48 -84 -48 -88 0 -3 -22 -42 -50 -86 -27 -44 -50
-82 -50 -85 0 -3 -20 -38 -43 -78 -24 -39 -51 -85 -59 -102 -43 -84 -113 -188
-135 -198 -20 -9 -32 -7 -66 11 -55 29 -63 28 -82 -8 -26 -51 -20 -64 55 -108
38 -23 73 -42 77 -42 8 0 179 -101 252 -149 l53 -35 19 23 c39 48 36 70 -15
113 -25 22 -46 47 -46 56 0 15 82 168 141 262 16 25 39 65 53 90 13 25 51 92
84 150 33 58 80 139 103 180 23 41 57 98 75 127 19 28 34 55 34 58 0 4 22 44
49 89 27 44 55 93 62 108 36 72 103 170 126 185 24 16 27 16 69 -6 24 -13 50
-21 58 -18 19 7 49 65 43 81 -5 12 -123 86 -139 86 -4 0 -44 23 -88 50 -44 28
-83 50 -86 50 -4 0 -33 18 -65 40 -32 22 -66 40 -74 40 -8 0 -24 -15 -35 -32z"/>
<path d="M18189 5331 c-16 -16 -29 -38 -29 -49 0 -30 32 -153 78 -297 63 -199
112 -361 138 -455 12 -47 41 -140 63 -208 23 -68 41 -129 41 -137 0 -7 20 -77
45 -154 55 -169 85 -284 85 -322 0 -19 -12 -40 -36 -64 -38 -39 -41 -67 -8
-99 22 -23 46 -20 90 13 57 40 221 140 277 168 40 19 47 28 47 51 0 34 -27 62
-61 62 -13 0 -44 -9 -68 -20 -24 -11 -46 -20 -50 -20 -4 0 -31 75 -60 168 -29
92 -75 237 -102 322 -27 86 -49 162 -49 170 0 8 -23 85 -50 170 -28 85 -49
162 -48 170 3 14 238 -209 596 -565 161 -160 167 -173 98 -211 -22 -12 -43
-30 -49 -39 -13 -25 -1 -60 27 -75 32 -17 66 -3 159 62 37 26 70 48 73 48 3 0
36 19 72 43 37 24 88 54 115 67 41 21 47 27 47 55 0 43 -30 70 -67 60 -97 -24
-92 -26 -209 87 -60 56 -152 146 -205 198 -53 52 -210 205 -349 340 -140 135
-299 290 -353 345 -55 55 -113 110 -130 122 -44 33 -91 30 -128 -6z"/>
<path d="M8650 4471 c-388 -392 -574 -572 -593 -577 -15 -3 -40 -1 -56 6 -16
6 -42 10 -57 8 -24 -2 -31 -9 -38 -41 -12 -47 -8 -51 105 -110 48 -25 118 -66
156 -92 86 -57 133 -67 157 -34 23 34 20 54 -14 81 -17 13 -43 32 -57 44 l-27
21 382 384 c210 210 382 381 382 378 0 -2 -18 -62 -40 -134 -22 -71 -40 -137
-40 -144 0 -8 -20 -79 -45 -157 -25 -78 -49 -161 -54 -185 -15 -80 -112 -383
-124 -391 -18 -12 -29 -10 -70 12 -45 24 -92 26 -101 4 -3 -9 -6 -31 -6 -49 0
-33 3 -36 92 -81 51 -25 105 -54 119 -65 15 -10 35 -22 45 -26 11 -5 52 -29
92 -56 80 -52 113 -58 136 -25 25 35 19 58 -24 98 -25 24 -40 46 -40 61 0 13
20 91 45 173 25 82 45 155 45 162 0 7 18 71 41 141 22 70 46 155 54 188 7 33
31 119 53 190 22 72 43 146 47 165 4 19 27 99 51 178 24 79 44 151 44 160 0 9
11 52 25 95 14 43 25 93 25 112 0 47 -37 75 -99 75 l-46 0 -565 -569z"/>
<path d="M13765 4081 c-37 -16 -53 -46 -78 -146 -23 -97 -38 -151 -128 -470
-23 -82 -50 -184 -59 -225 -9 -41 -34 -131 -54 -200 -21 -69 -41 -145 -46
-170 -4 -25 -25 -101 -45 -170 -21 -69 -43 -144 -48 -168 -12 -49 -55 -92 -92
-92 -42 0 -55 -10 -55 -45 0 -68 -11 -65 234 -65 159 0 225 3 234 12 7 7 12
27 12 45 0 39 -21 53 -83 53 -82 0 -82 10 -7 280 120 433 151 546 150 560 0 8
15 62 33 120 l33 105 13 -60 c7 -33 29 -123 48 -200 20 -77 48 -194 64 -260
15 -66 44 -181 65 -255 26 -95 37 -157 38 -210 l1 -75 -60 -5 c-33 -3 -66 -9
-72 -13 -17 -11 -17 -72 0 -86 9 -7 101 -11 271 -13 287 -2 281 -3 274 65 -3
32 -12 38 -79 51 -33 7 -66 79 -101 221 -14 55 -45 177 -68 270 -24 94 -47
193 -53 220 -5 28 -31 132 -58 233 -27 101 -49 191 -49 200 0 9 -22 100 -49
202 -28 102 -52 201 -56 221 -3 20 -14 44 -24 53 -22 20 -78 29 -106 17z"/>
<path d="M12602 4005 l3 -50 49 -6 c35 -4 54 -12 68 -28 18 -23 18 -51 16
-727 l-3 -702 -24 -26 c-19 -20 -34 -26 -68 -26 l-43 0 0 -55 0 -54 271 0 270
0 -3 52 -3 52 -45 5 c-25 3 -54 10 -65 17 -20 11 -20 22 -20 732 0 816 -7 750
84 759 l51 5 0 51 0 51 -270 0 -271 0 3 -50z"/>
</g>
</svg>
