<?xml version="1.0" standalone="no"?>
<!DOCTYPE svg PUBLIC "-//W3C//DTD SVG 20010904//EN"
 "http://www.w3.org/TR/2001/REC-SVG-20010904/DTD/svg10.dtd">
<svg version="1.0" xmlns="http://www.w3.org/2000/svg"
 width="500.000000pt" height="500.000000pt" viewBox="0 0 500.000000 500.000000"
 preserveAspectRatio="xMidYMid meet">

<g transform="translate(0.000000,500.000000) scale(0.100000,-0.100000)"
fill="#000000" stroke="none">
<path d="M2305 4995 c-5 -1 -62 -8 -125 -15 -203 -22 -474 -97 -680 -189 -341
-152 -639 -372 -893 -657 -326 -369 -540 -855 -592 -1344 -60 -564 54 -1097
334 -1570 61 -104 167 -255 217 -310 218 -242 325 -341 503 -465 423 -294 908
-445 1436 -445 144 0 382 20 470 39 197 44 306 75 405 116 30 13 66 26 80 30
36 11 227 106 312 156 415 244 754 607 965 1034 175 354 263 731 263 1132 0
197 -13 327 -52 513 -73 352 -202 647 -405 929 -98 135 -117 156 -298 336
-222 219 -429 361 -723 495 -330 150 -661 220 -1042 219 -91 0 -169 -2 -175
-4z m395 -65 c649 -50 1255 -366 1684 -880 327 -392 520 -887 546 -1395 23
-460 -55 -853 -245 -1240 -377 -767 -1153 -1289 -2000 -1346 -734 -50 -1394
198 -1910 716 -248 248 -430 533 -566 884 -171 443 -191 1017 -53 1501 86 300
270 654 454 870 233 276 499 490 795 638 411 205 830 287 1295 252z"/>
<path d="M2456 4888 c-13 -18 -16 -55 -16 -191 0 -165 0 -168 25 -192 29 -30
49 -31 75 -5 19 19 20 33 20 198 0 161 -2 181 -18 195 -26 24 -68 21 -86 -5z"/>
<path d="M1292 4584 c-31 -21 -28 -63 8 -124 17 -29 49 -86 71 -128 53 -99 65
-112 104 -112 77 0 73 44 -21 210 -95 170 -114 188 -162 154z"/>
<path d="M3642 4583 c-11 -10 -54 -84 -96 -165 -65 -125 -75 -150 -67 -172 13
-33 47 -51 75 -38 20 9 186 304 186 330 0 18 -46 62 -63 62 -8 0 -24 -8 -35
-17z"/>
<path d="M413 3704 c-28 -43 -4 -67 152 -155 156 -87 193 -96 221 -54 29 44 9
65 -150 154 -161 89 -195 98 -223 55z"/>
<path d="M4376 3650 c-159 -96 -173 -110 -160 -147 12 -35 50 -55 78 -41 12 5
83 47 159 91 145 86 161 104 138 153 -20 45 -69 32 -215 -56z"/>
<path d="M107 2542 c-22 -24 -22 -65 1 -85 16 -15 45 -17 193 -17 96 0 179 4
185 8 6 4 17 18 24 31 10 20 9 27 -8 50 l-19 26 -180 3 c-164 2 -181 1 -196
-16z"/>
<path d="M4500 2540 c-11 -11 -20 -29 -20 -40 0 -11 9 -29 20 -40 19 -19 33
-20 200 -20 167 0 181 1 200 20 25 25 25 41 -1 74 l-20 26 -180 0 c-166 0
-180 -1 -199 -20z"/>
<path d="M565 1455 c-77 -47 -146 -94 -154 -105 -26 -38 22 -96 69 -83 8 3 80
43 160 91 124 74 145 91 148 114 2 15 -2 36 -8 48 -21 39 -65 26 -215 -65z"/>
<path d="M4232 1518 c-7 -7 -12 -27 -12 -45 0 -37 1 -38 184 -142 87 -49 117
-61 145 -59 29 2 38 8 45 31 7 19 7 34 0 45 -6 9 -73 54 -150 99 -139 83 -185
98 -212 71z"/>
<path d="M3493 788 c-37 -18 -30 -66 24 -161 25 -45 58 -103 71 -130 46 -88
85 -114 125 -84 38 29 31 56 -58 212 -100 178 -110 188 -162 163z"/>
<path d="M1459 778 c-16 -12 -129 -183 -129 -194 0 -3 -13 -25 -30 -49 -38
-56 -40 -98 -4 -122 23 -15 29 -15 51 -2 40 23 203 286 203 327 0 37 -62 63
-91 40z"/>
<path d="M2460 500 c-18 -18 -20 -33 -20 -193 0 -193 7 -217 60 -217 56 0 60
13 60 214 0 164 -2 185 -18 199 -25 23 -58 21 -82 -3z"/>
</g>
</svg>
