<?xml version="1.0" standalone="no"?>
<!DOCTYPE svg PUBLIC "-//W3C//DTD SVG 20010904//EN"
 "http://www.w3.org/TR/2001/REC-SVG-20010904/DTD/svg10.dtd">
<svg version="1.0" xmlns="http://www.w3.org/2000/svg"
 width="1638.000000pt" height="1661.000000pt" viewBox="0 0 1638.000000 1661.000000"
 preserveAspectRatio="xMidYMid meet">

<g transform="translate(0.000000,1661.000000) scale(0.100000,-0.100000)"
fill="#000000" stroke="none">
<path d="M7253 16479 c-17 -5 -42 -23 -54 -41 -13 -17 -40 -47 -61 -67 -21
-20 -38 -40 -38 -44 0 -10 -110 -133 -252 -280 -111 -115 -128 -146 -114 -201
3 -13 21 -33 40 -44 19 -11 35 -30 37 -43 2 -13 3 -345 1 -736 l-2 -713 -58
-62 c-74 -79 -77 -90 -45 -122 l26 -26 377 0 c370 0 378 0 404 21 41 32 25 78
-39 115 -10 6 -23 19 -29 30 -6 10 -15 22 -21 26 -7 5 -12 377 -15 1066 l-5
1059 -30 32 c-35 34 -75 45 -122 30z"/>
<path d="M8375 16474 c-16 -3 -39 -9 -50 -13 -11 -5 -60 -16 -110 -25 -84 -15
-117 -26 -190 -64 -16 -8 -46 -23 -66 -33 -56 -28 -229 -177 -229 -198 0 -4
-11 -22 -24 -39 -13 -18 -29 -54 -36 -80 -7 -26 -17 -51 -21 -56 -12 -13 -11
-252 0 -274 5 -9 17 -37 27 -62 22 -53 28 -61 74 -107 51 -51 66 -63 75 -63 5
0 18 -8 29 -18 54 -48 242 -66 360 -36 50 13 71 25 114 67 44 44 52 57 52 88
0 31 -6 43 -37 69 -21 17 -47 33 -59 36 -12 3 -31 27 -47 58 -40 78 -38 172 4
252 43 84 102 141 153 149 23 4 46 11 51 16 27 21 107 29 161 17 30 -7 54 -16
54 -20 0 -5 7 -8 15 -8 8 0 25 -6 36 -12 38 -23 129 -122 136 -148 3 -14 11
-28 16 -32 6 -3 10 -52 10 -110 0 -78 -4 -110 -16 -133 -9 -16 -17 -35 -17
-41 0 -6 -30 -39 -66 -75 -93 -90 -91 -89 -104 -89 -6 0 -26 -11 -44 -25 -18
-14 -38 -25 -44 -25 -7 0 -12 -4 -12 -10 0 -5 -4 -10 -9 -10 -12 0 -91 -38
-126 -60 -41 -27 -91 -50 -110 -50 -8 0 -15 -4 -15 -8 0 -5 -19 -15 -42 -22
-24 -7 -47 -18 -53 -24 -5 -6 -28 -17 -50 -25 -22 -8 -57 -25 -77 -38 -21 -12
-43 -23 -49 -23 -6 0 -28 -13 -48 -29 -20 -15 -53 -36 -75 -46 -38 -18 -276
-239 -276 -257 0 -5 -10 -20 -23 -34 -12 -13 -29 -45 -36 -72 -8 -26 -17 -51
-21 -57 -23 -30 -40 -278 -20 -290 6 -3 10 -15 10 -26 0 -10 5 -19 10 -19 6 0
10 -12 10 -27 1 -46 64 -133 131 -179 33 -23 46 -26 91 -22 29 3 54 11 56 17
2 6 9 11 16 11 7 0 30 14 51 30 21 17 43 30 50 30 7 0 18 7 25 15 7 8 35 22
62 30 28 8 57 20 66 27 11 10 68 13 212 13 174 0 200 -2 217 -17 11 -10 26
-18 35 -18 8 0 32 -11 52 -25 20 -14 41 -25 46 -25 5 0 13 -6 17 -14 4 -7 33
-21 63 -31 30 -10 60 -21 65 -25 6 -5 52 -13 104 -19 72 -9 117 -9 195 1 55 6
103 15 106 18 6 7 75 40 85 40 3 0 13 6 20 13 8 6 29 23 48 36 18 14 44 40 58
58 13 19 29 40 34 46 19 23 45 75 45 90 0 9 6 17 13 19 8 3 13 42 15 134 3
109 1 132 -12 143 -9 8 -16 20 -16 29 0 16 -38 70 -73 103 -42 39 -97 59 -167
59 -63 0 -67 -2 -103 -38 -44 -45 -46 -60 -12 -100 38 -45 33 -80 -17 -122
l-42 -34 -110 -1 c-96 0 -116 3 -146 21 -19 12 -53 25 -74 29 -21 3 -50 13
-62 22 -20 12 -64 15 -241 16 -120 1 -208 3 -195 5 12 2 22 9 22 16 0 6 17 18
38 25 20 8 42 18 49 23 22 18 279 144 321 157 23 8 42 17 42 21 0 4 16 11 35
14 20 4 52 18 72 32 20 13 42 24 49 24 8 0 14 4 14 8 0 4 16 14 36 21 19 7 38
19 41 27 3 8 12 14 20 14 9 0 37 16 63 35 26 19 53 35 59 35 6 0 11 4 11 9 0
5 19 22 43 37 110 73 258 303 272 424 4 36 14 74 21 85 20 29 19 198 -1 215
-8 7 -15 29 -15 50 0 52 -17 96 -63 165 -34 51 -130 155 -144 155 -2 0 -13 8
-24 19 -28 26 -127 77 -167 85 -17 4 -34 12 -37 17 -4 5 -17 9 -30 9 -13 0
-26 4 -30 9 -3 5 -36 12 -73 16 -37 3 -76 11 -87 18 -20 12 -372 20 -440 11z"/>
<path d="M5460 15573 c-21 -9 -105 -95 -113 -115 -3 -10 -13 -18 -22 -18 -9 0
-19 -9 -23 -19 -9 -24 -306 -347 -338 -368 -13 -8 -24 -24 -24 -34 0 -11 -4
-19 -10 -19 -14 0 -12 -52 3 -70 7 -8 21 -20 32 -26 45 -25 45 -23 45 -750 0
-380 -3 -707 -7 -725 -4 -23 -25 -52 -60 -87 -43 -42 -54 -58 -51 -79 6 -51
21 -53 429 -53 352 0 377 1 392 18 31 34 21 66 -35 121 l-53 50 -5 1050 -5
1049 -24 26 c-14 14 -29 26 -33 26 -5 0 -16 7 -24 15 -16 15 -47 18 -74 8z"/>
<path d="M4423 15524 c-24 -25 -43 -48 -43 -52 0 -4 -52 -61 -115 -127 -63
-66 -117 -128 -120 -137 -4 -10 -12 -18 -19 -18 -13 0 -56 -53 -56 -70 0 -6
-11 -15 -25 -20 -14 -5 -25 -16 -25 -23 0 -7 -13 -26 -30 -42 -16 -16 -30 -38
-30 -50 0 -29 20 -85 30 -85 4 0 19 -12 34 -26 l26 -27 0 -688 c0 -448 -3
-690 -10 -694 -5 -3 -10 -17 -10 -31 0 -17 -19 -43 -60 -84 -33 -33 -60 -61
-60 -64 0 -19 26 -56 47 -65 16 -7 144 -11 392 -11 337 0 371 2 389 18 38 31
33 72 -12 96 -18 10 -39 30 -46 44 -7 15 -20 41 -29 57 -14 27 -16 130 -19
1051 l-3 1020 -30 37 c-28 34 -34 37 -82 36 -48 -1 -55 -4 -94 -45z"/>
<path d="M11545 15538 c-34 -12 -85 -56 -85 -74 0 -14 -66 -74 -80 -74 -6 0
-10 -6 -10 -14 0 -8 -15 -27 -32 -43 -18 -16 -45 -44 -60 -63 -15 -19 -59 -68
-98 -109 -38 -41 -70 -81 -70 -88 0 -7 -6 -13 -12 -13 -19 0 -88 -66 -88 -84
0 -8 -4 -16 -10 -18 -19 -6 30 -86 56 -92 l24 -7 -2 -744 -3 -744 -52 -53
c-52 -53 -66 -88 -40 -105 13 -9 810 -15 840 -7 11 4 17 15 17 33 0 28 -10 41
-67 87 -18 14 -33 33 -33 42 0 10 -7 30 -15 46 -13 24 -15 155 -15 975 0 734
3 950 12 959 10 10 10 17 0 32 -6 11 -12 36 -12 56 0 28 -7 43 -32 66 -51 47
-79 55 -133 36z"/>
<path d="M13885 13088 c-33 -5 -82 -11 -110 -14 -27 -3 -54 -10 -59 -15 -6 -5
-23 -9 -40 -9 -68 0 -259 -85 -344 -153 -26 -20 -55 -40 -64 -43 -10 -4 -18
-11 -18 -17 0 -11 -55 -67 -67 -67 -10 -1 -73 -132 -73 -152 0 -8 -7 -30 -16
-48 -22 -44 -22 -217 0 -257 8 -15 17 -41 21 -56 14 -66 195 -217 259 -217 12
0 27 -5 34 -12 17 -17 237 -17 253 0 7 6 22 12 33 12 32 0 86 23 86 36 0 7 8
15 19 19 10 3 31 24 46 47 24 36 26 43 14 65 -15 28 -55 59 -84 64 -11 3 -26
16 -33 31 -7 15 -21 30 -32 33 -18 6 -20 16 -20 121 0 112 1 115 33 164 17 27
40 51 50 54 10 2 21 14 24 25 3 12 10 21 15 21 6 0 22 8 36 19 37 25 171 43
248 31 32 -4 82 -20 109 -35 49 -26 134 -109 135 -132 0 -6 5 -13 11 -15 6 -2
15 -42 20 -88 11 -94 0 -166 -32 -212 -11 -14 -19 -29 -19 -33 0 -8 -95 -105
-104 -105 -3 0 -25 -13 -48 -30 -22 -16 -47 -30 -55 -30 -7 0 -13 -4 -13 -10
0 -5 -15 -16 -34 -24 -18 -8 -37 -19 -40 -25 -4 -6 -15 -11 -25 -11 -9 0 -32
-11 -49 -24 -18 -13 -50 -26 -72 -30 -22 -3 -40 -11 -40 -16 0 -6 -4 -10 -10
-10 -5 0 -33 -11 -62 -24 -29 -13 -80 -36 -113 -50 -33 -15 -69 -32 -80 -38
-11 -7 -37 -20 -57 -30 -21 -10 -38 -22 -38 -27 0 -5 -12 -11 -27 -14 -16 -3
-45 -17 -66 -31 -21 -14 -49 -29 -62 -32 -14 -3 -25 -13 -25 -20 0 -8 -11 -19
-25 -24 -14 -5 -25 -14 -25 -19 0 -5 -9 -11 -21 -14 -11 -3 -23 -15 -26 -26
-3 -12 -11 -21 -18 -21 -14 0 -75 -65 -75 -80 0 -6 -7 -10 -15 -10 -8 0 -15
-6 -15 -14 0 -8 -11 -27 -24 -43 -13 -15 -27 -39 -31 -53 -4 -14 -11 -29 -15
-35 -30 -39 -43 -278 -20 -365 7 -25 25 -61 41 -81 16 -20 29 -41 29 -46 0
-16 85 -93 102 -93 9 0 20 -4 23 -10 14 -22 80 -11 117 20 40 33 143 90 163
90 7 0 23 8 36 19 30 23 112 41 189 41 33 0 60 4 60 10 0 12 127 14 134 1 3
-4 37 -11 75 -13 46 -4 82 -13 106 -27 20 -11 42 -21 49 -21 6 0 27 -11 46
-25 19 -14 40 -25 48 -25 8 0 26 -8 40 -18 15 -10 47 -24 72 -31 25 -7 53 -17
62 -22 21 -11 298 -12 298 -1 0 4 19 13 43 20 81 25 148 65 217 129 40 37 70
73 70 84 0 10 5 19 10 19 6 0 10 5 10 11 0 6 10 25 23 42 20 29 22 43 22 162
0 99 -4 136 -15 155 -39 63 -85 120 -98 120 -8 0 -25 9 -39 20 -21 16 -41 20
-107 20 -93 0 -122 -12 -148 -58 l-18 -34 30 -38 c33 -42 36 -54 18 -92 -10
-20 -27 -31 -68 -44 -30 -9 -59 -20 -65 -25 -5 -5 -40 -9 -78 -9 -53 0 -75 4
-94 19 -13 11 -45 23 -71 27 -26 4 -56 12 -67 19 -11 7 -44 15 -74 18 -29 4
-59 11 -66 17 -7 6 -62 13 -123 17 -90 5 -115 3 -134 -9 -13 -9 -48 -19 -77
-23 -48 -7 -53 -6 -48 10 4 9 7 19 7 21 0 2 11 4 24 4 13 0 29 6 35 14 6 8 26
20 44 27 18 7 47 24 66 36 19 13 42 23 51 23 10 0 23 7 30 15 7 8 31 20 54 26
22 6 48 17 56 24 8 7 32 15 53 19 20 4 37 11 37 15 0 5 26 16 58 26 31 10 64
24 73 31 8 8 22 14 30 14 8 0 31 11 51 25 20 14 42 25 48 25 14 0 96 46 129
71 13 10 30 19 38 19 7 0 16 7 20 15 3 9 20 22 37 29 35 15 207 194 236 247
10 19 26 50 36 69 9 19 21 44 27 55 18 34 29 115 34 250 5 162 -11 240 -71
329 -41 61 -126 156 -140 156 -4 0 -26 13 -49 28 -23 15 -58 35 -77 43 -19 9
-55 25 -80 37 -25 11 -61 23 -80 26 -19 3 -48 13 -64 21 -15 8 -45 15 -65 15
-20 0 -81 7 -136 15 -109 16 -265 17 -360 3z"/>
<path d="M1748 12984 c-21 -13 -38 -28 -38 -33 0 -5 -16 -26 -35 -47 -19 -21
-35 -42 -35 -46 0 -4 -7 -8 -15 -8 -8 0 -15 -5 -15 -11 0 -10 -28 -42 -157
-180 -40 -43 -73 -83 -73 -89 0 -6 -11 -15 -25 -20 -14 -5 -25 -14 -25 -20 0
-5 -18 -27 -40 -49 -34 -33 -40 -45 -40 -80 0 -28 6 -46 20 -58 11 -10 29 -26
40 -35 20 -18 20 -30 20 -732 l0 -714 -26 -51 c-15 -28 -32 -51 -39 -51 -22 0
-55 -46 -55 -77 0 -64 -4 -63 416 -63 208 0 388 3 399 6 18 5 45 45 45 68 0 5
-27 35 -60 67 l-60 57 0 1035 c0 680 -3 1038 -10 1042 -5 3 -10 16 -11 28 0
13 -16 35 -41 55 -49 39 -88 41 -140 6z"/>
<path d="M2835 12986 c-44 -6 -94 -19 -112 -29 -18 -9 -38 -17 -45 -17 -7 0
-24 -9 -38 -20 -14 -11 -31 -20 -39 -20 -8 0 -43 -26 -78 -57 -35 -32 -72 -62
-81 -68 -23 -13 -62 -53 -62 -63 0 -4 -16 -25 -35 -45 -19 -20 -35 -44 -35
-52 0 -8 -4 -15 -10 -15 -5 0 -10 -5 -10 -10 0 -6 -13 -29 -30 -52 -16 -22
-30 -45 -30 -51 0 -5 -13 -32 -30 -59 -16 -26 -30 -62 -30 -78 0 -17 -3 -30
-7 -30 -10 0 -33 -49 -33 -70 0 -10 -7 -31 -16 -49 -9 -19 -20 -80 -26 -149
-5 -64 -14 -121 -19 -126 -12 -13 -12 -219 1 -232 5 -5 14 -66 20 -134 7 -84
15 -129 25 -140 8 -9 15 -28 15 -42 0 -14 9 -37 20 -51 11 -14 20 -36 20 -49
0 -12 16 -54 36 -93 20 -38 48 -91 61 -118 48 -91 269 -317 311 -317 7 0 12
-5 12 -10 0 -6 8 -14 18 -17 9 -4 33 -17 52 -29 19 -12 51 -25 70 -29 19 -4
37 -11 40 -15 3 -4 59 -13 126 -20 100 -11 133 -11 197 0 42 8 77 17 77 21 0
4 17 10 38 14 42 7 147 58 178 86 11 11 25 19 31 19 6 0 13 7 17 15 3 8 17 20
31 25 14 5 25 14 25 20 0 13 37 50 50 50 5 0 14 10 21 23 6 12 20 31 30 42 45
49 109 136 109 149 0 8 11 28 25 44 14 17 25 36 25 44 0 7 6 22 13 33 8 11 21
45 31 75 9 30 21 64 25 75 5 11 14 46 21 77 6 32 16 60 21 63 5 4 9 129 9 299
0 240 -3 299 -15 322 -8 16 -17 55 -21 86 -4 32 -10 58 -13 58 -6 0 -22 50
-37 112 -3 15 -12 29 -19 32 -7 2 -16 18 -20 35 -4 17 -11 33 -15 36 -5 3 -18
25 -28 48 -10 23 -26 48 -35 56 -10 7 -17 18 -17 23 0 5 -18 25 -40 45 -22 21
-40 42 -40 48 0 13 -102 115 -114 115 -5 0 -28 18 -52 40 -24 22 -51 40 -60
40 -9 0 -28 8 -42 19 -52 37 -118 59 -208 70 -105 13 -148 12 -259 -3z m214
-313 c33 -21 60 -43 61 -49 0 -6 11 -20 24 -33 12 -12 28 -39 35 -60 6 -22 18
-42 26 -45 8 -3 15 -18 15 -33 0 -15 12 -50 25 -78 15 -31 25 -68 25 -95 0
-25 7 -55 15 -67 38 -54 38 -741 0 -795 -8 -13 -15 -39 -15 -59 0 -37 -11 -80
-36 -136 -8 -17 -14 -38 -14 -46 0 -8 -6 -20 -14 -26 -8 -7 -17 -24 -21 -39
-12 -52 -80 -135 -139 -169 -26 -15 -92 -17 -101 -3 -3 6 -15 10 -25 10 -16 0
-110 97 -110 114 0 3 -11 24 -25 46 -14 22 -25 48 -25 59 0 11 -4 23 -10 26
-5 3 -10 16 -10 29 0 13 -9 31 -20 41 -15 14 -20 31 -20 71 0 29 -4 56 -10 59
-5 3 -10 25 -10 49 0 23 -6 48 -12 55 -18 17 -19 611 -2 632 11 13 14 27 30
147 4 30 20 79 35 110 16 30 29 65 29 76 0 12 14 39 30 60 17 22 30 44 30 50
0 15 102 116 117 116 7 0 13 5 13 10 0 21 52 8 109 -27z"/>
<path d="M15110 9552 c-19 -1 -44 -7 -55 -12 -20 -9 -86 -23 -157 -35 -21 -3
-38 -9 -38 -14 0 -4 -18 -13 -40 -20 -22 -7 -57 -23 -77 -36 -20 -14 -40 -25
-44 -25 -10 0 -23 -10 -106 -86 -35 -31 -63 -63 -63 -71 0 -7 -5 -13 -10 -13
-6 0 -15 -10 -20 -22 -6 -13 -19 -36 -29 -53 -11 -16 -20 -44 -20 -62 -1 -17
-6 -33 -13 -35 -19 -7 -24 -208 -5 -249 8 -19 20 -54 26 -78 9 -32 30 -61 82
-112 38 -38 76 -69 84 -69 8 0 15 -4 15 -8 0 -4 17 -14 38 -21 20 -7 52 -20
71 -28 46 -21 232 -14 276 10 17 9 36 17 43 17 7 0 35 21 62 46 45 42 50 51
50 89 0 49 -26 79 -80 90 -19 4 -43 14 -53 23 -9 8 -27 20 -39 26 -13 6 -24
20 -26 30 -2 10 -12 26 -23 37 -16 16 -19 33 -18 102 1 104 8 129 42 145 15 7
27 18 27 23 0 19 36 47 70 54 19 4 46 14 60 23 36 24 260 24 287 0 10 -9 39
-25 64 -37 28 -12 63 -40 88 -70 l41 -49 0 -99 c0 -91 -3 -106 -29 -158 -32
-62 -124 -180 -156 -198 -18 -11 -84 -28 -160 -44 -29 -6 -86 -40 -93 -55 -2
-5 -12 -8 -22 -8 -20 0 -97 -82 -111 -118 -5 -13 -9 -45 -9 -72 0 -41 4 -52
26 -69 35 -27 58 -26 98 4 18 14 40 25 49 25 9 0 19 5 22 10 3 6 37 10 75 10
38 0 72 -4 75 -10 3 -5 17 -10 31 -10 22 0 61 -16 74 -31 3 -3 13 -8 23 -12 9
-4 20 -15 24 -24 4 -10 17 -26 30 -36 13 -10 23 -24 23 -32 0 -7 6 -18 14 -24
7 -6 17 -39 20 -74 4 -34 13 -68 19 -76 15 -18 14 -140 -1 -150 -6 -3 -14 -31
-18 -61 -4 -34 -17 -68 -33 -90 -38 -52 -112 -120 -130 -120 -10 0 -23 -6 -29
-12 -16 -16 -127 -36 -200 -37 -29 -1 -86 4 -125 11 -64 10 -78 17 -129 61
-32 27 -72 70 -89 95 -27 40 -31 53 -26 95 3 32 10 53 21 59 9 5 16 15 16 23
0 18 57 65 79 65 10 0 28 11 40 24 20 21 22 31 17 70 -7 44 -45 96 -71 96 -7
0 -24 9 -38 20 -22 17 -40 20 -137 20 -97 0 -118 -3 -166 -25 -30 -14 -58 -25
-63 -25 -5 0 -15 -7 -22 -16 -7 -9 -21 -19 -31 -23 -32 -12 -136 -142 -143
-180 -4 -20 -12 -39 -18 -43 -6 -4 -10 -47 -10 -111 0 -105 6 -131 50 -212 9
-16 21 -40 27 -52 6 -13 15 -23 19 -23 12 0 37 -27 37 -39 0 -6 6 -11 13 -11
8 0 24 -11 36 -24 13 -13 35 -27 49 -31 14 -3 42 -20 63 -36 20 -16 48 -29 62
-29 14 0 29 -4 32 -10 3 -5 22 -10 40 -10 19 0 54 -10 77 -22 38 -20 62 -23
188 -26 80 -2 149 -8 155 -13 12 -12 182 -11 190 1 3 6 35 10 70 10 79 0 215
19 215 31 0 4 17 11 38 14 20 4 51 11 67 17 56 20 215 101 215 109 0 5 6 9 13
9 16 0 157 137 157 153 0 5 11 24 24 41 13 17 26 41 30 54 4 12 11 22 16 22 4
0 16 34 25 75 10 42 22 78 27 81 12 7 10 202 -2 206 -6 2 -15 32 -21 68 -6 36
-19 77 -30 92 -10 15 -19 34 -19 43 0 8 -9 20 -20 27 -11 7 -20 18 -20 24 0
21 -152 163 -196 184 -24 11 -44 25 -44 31 0 6 40 50 89 98 95 92 129 148 150
243 7 32 17 60 22 63 12 8 12 195 -1 195 -5 0 -13 18 -16 40 -6 34 -52 122
-74 140 -4 3 -10 13 -13 23 -4 11 -16 21 -27 24 -11 3 -20 12 -20 19 0 8 -11
19 -24 24 -13 5 -28 15 -33 22 -10 17 -110 78 -127 78 -7 0 -21 9 -31 20 -10
11 -27 20 -38 20 -11 0 -34 8 -51 19 -17 10 -57 21 -89 24 -32 3 -69 12 -81
21 -18 11 -67 15 -217 18 -107 2 -210 2 -229 0z"/>
<path d="M900 9541 c0 -4 -28 -11 -62 -15 -142 -15 -186 -22 -199 -32 -8 -6
-34 -17 -59 -24 -25 -7 -52 -19 -60 -26 -9 -7 -31 -20 -50 -29 -43 -19 -65
-33 -98 -62 -14 -13 -31 -23 -38 -23 -7 0 -19 -10 -25 -22 -7 -13 -39 -52 -71
-88 -32 -36 -61 -76 -65 -90 -3 -14 -15 -36 -25 -50 -10 -14 -21 -44 -25 -65
-3 -22 -11 -47 -18 -55 -7 -8 -17 -60 -24 -115 -10 -84 -9 -114 4 -190 9 -49
20 -94 25 -99 6 -6 10 -20 10 -33 0 -24 15 -57 38 -81 6 -7 12 -20 12 -28 0
-8 17 -33 39 -57 21 -23 43 -52 50 -64 6 -13 18 -23 26 -23 7 0 17 -9 20 -20
3 -11 11 -20 18 -20 6 0 25 -13 42 -29 29 -29 142 -91 164 -91 6 0 11 -4 11
-8 0 -4 21 -14 48 -21 26 -8 52 -17 57 -20 46 -28 377 -41 491 -20 91 17 225
90 287 157 11 12 24 22 29 22 16 0 8 -106 -12 -148 -11 -22 -20 -54 -20 -69
-1 -15 -9 -46 -20 -68 -11 -22 -19 -44 -20 -48 0 -8 -57 -126 -86 -179 -8 -16
-19 -28 -25 -28 -5 0 -9 -7 -9 -15 0 -20 -105 -125 -124 -125 -8 0 -16 -6 -19
-12 -2 -7 -26 -19 -53 -27 -27 -8 -54 -18 -59 -22 -6 -4 -41 -11 -78 -15 -51
-5 -72 -3 -89 8 -13 8 -39 20 -59 27 -20 6 -47 23 -59 36 -13 14 -29 25 -37
25 -7 0 -13 6 -13 13 0 7 -11 28 -25 47 -14 18 -28 49 -31 67 -7 37 12 119 30
131 35 22 49 128 19 139 -10 3 -25 12 -33 18 -40 32 -151 22 -238 -21 -147
-74 -244 -255 -212 -396 12 -56 50 -138 62 -138 5 0 8 -6 8 -13 0 -16 71 -87
87 -87 7 0 16 -6 20 -12 15 -24 68 -55 123 -72 30 -10 71 -26 91 -37 23 -12
57 -19 90 -19 32 -1 62 -7 73 -15 28 -21 411 -22 423 -1 4 7 33 16 66 19 31 3
72 15 91 26 18 12 40 21 48 21 19 0 68 23 68 33 0 4 6 7 13 7 8 0 22 9 31 19
10 11 30 22 44 26 29 7 212 182 212 202 0 7 7 13 15 13 8 0 22 15 31 33 9 17
27 45 40 60 13 16 24 35 24 43 0 8 4 14 9 14 5 0 11 8 15 18 3 9 14 31 24 47
10 17 25 48 32 70 7 22 16 42 19 45 3 3 12 23 20 45 7 22 19 54 26 70 19 47
35 121 35 164 0 21 7 52 16 70 10 19 20 84 27 166 12 144 3 246 -27 306 -9 18
-16 51 -16 75 0 24 -4 46 -10 49 -5 3 -10 17 -10 30 0 13 -4 27 -10 30 -5 3
-10 13 -10 22 0 15 -24 76 -41 103 -5 8 -15 27 -22 43 -6 15 -15 27 -19 27 -4
0 -8 9 -8 19 0 11 -22 43 -48 73 -27 29 -51 61 -55 71 -3 9 -12 17 -20 17 -7
0 -31 18 -52 41 -41 42 -119 99 -135 99 -5 0 -13 6 -17 13 -10 15 -49 37 -67
37 -8 0 -16 6 -19 14 -3 8 -30 19 -61 26 -30 6 -60 18 -66 26 -7 8 -30 14 -55
14 -51 0 -156 20 -170 31 -12 12 -225 12 -225 0z m276 -357 c19 -9 34 -20 34
-25 0 -5 7 -9 15 -9 9 0 18 -7 21 -15 4 -8 13 -15 20 -15 8 0 19 -11 23 -24 5
-13 17 -26 25 -29 9 -4 16 -13 16 -20 0 -8 9 -26 21 -41 49 -62 48 -362 -2
-425 -11 -13 -19 -30 -19 -37 0 -13 -97 -114 -109 -114 -3 0 -12 -9 -18 -19
-7 -11 -29 -22 -55 -26 -23 -4 -49 -11 -58 -15 -68 -34 -126 -37 -181 -11 -22
11 -54 23 -71 26 -44 10 -116 88 -130 141 -7 24 -16 44 -20 44 -14 0 -36 66
-31 92 3 14 0 29 -6 32 -13 8 -15 198 -3 224 28 56 51 110 56 127 3 11 19 34
36 52 16 18 30 37 30 42 0 6 5 11 12 11 6 0 22 10 35 22 14 13 44 25 71 29 75
12 249 1 288 -17z"/>
<path d="M8018 8536 c-52 -31 -75 -54 -82 -82 -4 -13 -12 -24 -20 -24 -18 0
-29 -95 -15 -143 6 -21 16 -37 24 -37 8 0 15 -9 15 -19 0 -21 53 -71 76 -71 8
0 14 -4 14 -10 0 -6 30 -10 70 -10 40 0 70 4 70 10 0 6 7 10 15 10 8 0 38 22
65 48 44 42 50 54 52 93 3 76 -2 123 -17 139 -8 9 -15 21 -15 27 0 5 -21 25
-47 43 -27 19 -49 38 -51 42 -8 18 -117 6 -154 -16z"/>
<path d="M14590 6140 c0 -5 -6 -10 -13 -10 -13 0 -45 -31 -173 -165 -41 -44
-118 -123 -170 -176 -52 -53 -94 -101 -94 -106 0 -13 -54 -63 -68 -63 -7 0
-12 -6 -12 -14 0 -8 -8 -24 -18 -36 -17 -21 -17 -25 -3 -56 8 -19 21 -34 28
-34 6 0 23 -15 37 -33 l26 -34 0 -220 c0 -217 0 -220 -23 -241 -24 -23 -81
-30 -92 -12 -9 14 -238 13 -252 -1 -8 -8 -19 -8 -42 2 -38 17 -38 23 -6 53 14
13 25 29 25 36 0 7 11 28 25 46 14 18 25 35 25 38 0 4 14 25 30 48 17 22 30
47 30 55 0 7 3 13 8 13 4 0 12 10 18 23 6 12 27 52 46 88 18 36 40 86 48 110
8 24 20 54 28 66 22 35 35 204 22 290 -11 71 -53 173 -71 173 -5 0 -9 7 -9 15
0 9 -10 19 -23 24 -13 5 -36 20 -53 34 -16 14 -50 36 -74 48 -42 22 -56 24
-192 23 -142 0 -148 -1 -187 -27 -22 -15 -43 -27 -47 -27 -6 0 -42 -30 -78
-66 -80 -81 -92 -104 -82 -158 7 -36 45 -56 109 -56 20 0 37 -4 37 -9 0 -5 15
-12 33 -15 21 -4 42 -18 58 -39 23 -30 24 -39 22 -157 -1 -77 -6 -126 -12
-128 -6 -2 -11 -11 -11 -20 0 -18 -64 -154 -92 -194 -10 -14 -18 -31 -18 -37
0 -7 -29 -45 -65 -86 -36 -41 -65 -82 -65 -90 0 -8 -5 -15 -12 -15 -15 0 -68
-50 -68 -64 0 -13 -54 -66 -67 -66 -16 -1 -70 -57 -87 -90 -24 -49 -20 -66 21
-97 l36 -28 533 -2 c372 -1 538 -5 553 -12 21 -12 21 -17 21 -311 0 -188 -4
-301 -10 -305 -5 -3 -10 -15 -10 -26 0 -11 -25 -44 -55 -74 -46 -45 -55 -59
-55 -89 0 -24 6 -38 18 -44 19 -11 813 -9 830 2 6 3 13 20 17 36 6 27 0 37
-49 91 -48 52 -56 66 -56 100 0 21 -5 39 -10 39 -7 0 -9 98 -8 288 l3 287 33
3 c39 4 78 -18 88 -50 10 -33 34 -47 76 -48 34 0 38 3 48 38 7 23 10 108 8
232 -3 176 -5 198 -23 222 -11 15 -28 28 -37 28 -29 0 -68 -22 -68 -40 0 -23
-52 -70 -77 -70 -56 0 -53 -35 -53 555 0 352 -4 553 -10 571 -13 34 -38 53
-67 54 -13 0 -23 5 -23 10 0 6 -11 10 -25 10 -14 0 -25 -4 -25 -10z"/>
<path d="M2185 6113 c-11 -3 -24 -9 -30 -13 -5 -4 -59 -11 -119 -14 -95 -7
-149 -18 -166 -36 -3 -3 -27 -11 -55 -18 -27 -7 -57 -20 -66 -28 -8 -8 -21
-14 -28 -14 -14 0 -104 -60 -109 -72 -2 -5 -9 -8 -15 -8 -12 0 -127 -111 -127
-122 0 -3 -18 -32 -39 -64 -49 -74 -62 -138 -57 -279 4 -103 6 -115 38 -173
37 -69 84 -134 138 -191 l36 -37 -21 -22 c-11 -12 -26 -22 -33 -22 -17 0 -242
-229 -242 -246 0 -7 -11 -34 -25 -60 -14 -26 -25 -59 -25 -74 0 -14 -7 -35
-15 -46 -11 -14 -14 -50 -15 -141 0 -67 4 -124 8 -127 5 -3 17 -35 27 -71 10
-37 24 -69 31 -72 8 -3 14 -11 14 -19 0 -43 176 -222 257 -260 17 -9 37 -22
44 -30 6 -8 18 -14 27 -14 8 0 29 -9 46 -19 17 -10 50 -22 73 -26 24 -4 46
-12 50 -19 5 -7 33 -16 63 -20 129 -15 155 -19 161 -28 8 -13 391 -12 398 1 3
5 33 11 66 14 155 15 195 20 195 27 0 4 21 13 48 20 26 7 58 19 72 25 14 7 36
18 50 24 74 34 128 74 200 146 44 43 80 86 80 94 0 8 11 29 25 47 14 18 25 41
25 52 0 11 6 25 14 31 8 7 16 35 19 64 2 29 9 70 15 93 11 39 10 53 -15 239
-3 22 -12 49 -19 60 -8 11 -14 27 -14 37 0 9 -6 21 -13 25 -6 4 -18 19 -25 33
-26 51 -145 163 -212 200 -14 8 -42 25 -61 37 -19 13 -40 23 -46 23 -7 0 -13
6 -13 13 0 12 5 16 81 54 24 12 60 38 78 57 19 20 40 36 46 36 6 0 32 32 58
70 52 77 77 169 77 285 0 64 -25 215 -38 225 -4 3 -14 18 -22 34 -54 105 -264
245 -367 246 -18 0 -33 4 -33 8 0 17 -71 34 -170 39 -58 3 -109 9 -115 13 -13
9 -183 20 -210 13z m160 -333 c22 -11 48 -19 57 -20 22 0 86 -79 98 -121 6
-19 10 -49 10 -66 0 -18 5 -33 10 -33 6 0 10 -11 10 -25 0 -14 -4 -25 -10 -25
-5 0 -10 -23 -10 -51 0 -28 -8 -67 -17 -86 -24 -51 -89 -113 -119 -113 -23 0
-85 35 -92 53 -2 4 -11 7 -21 7 -9 0 -26 7 -37 15 -10 8 -26 15 -35 15 -21 0
-149 122 -149 141 0 8 -9 21 -20 29 -13 9 -20 26 -20 45 0 17 -5 36 -11 42 -7
7 -7 17 -1 29 6 11 16 34 22 52 13 32 77 92 100 92 7 0 26 6 43 14 50 22 59
24 107 25 25 0 63 -8 85 -19z m-261 -995 c18 -14 60 -39 94 -56 33 -16 71 -41
84 -54 13 -14 28 -25 35 -25 6 0 36 -20 66 -45 31 -25 60 -45 66 -45 6 0 11
-5 11 -11 0 -6 16 -29 35 -50 19 -22 35 -48 35 -58 0 -11 4 -21 10 -23 16 -5
33 -119 26 -186 -9 -100 -44 -146 -161 -206 l-69 -36 -157 0 c-87 0 -159 4
-161 8 -1 5 -34 26 -71 46 -37 21 -75 50 -84 65 -9 14 -24 38 -34 53 -10 14
-24 48 -30 75 -7 26 -17 51 -23 55 -18 12 -20 151 -3 189 9 19 23 63 32 99 8
35 19 67 24 70 4 3 13 21 20 40 8 24 30 48 69 77 72 52 133 58 186 18z"/>
<path d="M4188 3475 c-47 -5 -90 -13 -94 -17 -4 -5 -28 -8 -52 -8 -48 0 -112
-18 -112 -32 0 -4 -5 -8 -11 -8 -39 0 -179 -106 -179 -136 0 -6 -9 -19 -19
-28 -11 -10 -23 -32 -27 -50 -3 -17 -13 -40 -20 -51 -9 -12 -14 -48 -14 -98 0
-63 5 -89 26 -135 27 -58 108 -152 131 -152 7 0 13 -4 13 -8 0 -20 80 -36 178
-35 91 1 107 4 146 27 41 24 86 79 86 105 0 6 -18 30 -40 53 -35 38 -40 49
-40 91 0 33 5 49 15 53 8 4 15 11 15 17 0 17 52 67 69 67 8 0 23 8 34 18 17
15 50 17 318 20 272 3 299 1 299 -14 0 -15 -72 -110 -120 -159 -11 -12 -20
-24 -20 -29 0 -4 -27 -41 -60 -81 -33 -40 -60 -77 -60 -80 0 -4 -22 -38 -50
-76 -27 -38 -50 -72 -51 -76 0 -5 -16 -28 -34 -53 -19 -25 -43 -63 -53 -85
-10 -22 -26 -46 -35 -54 -10 -7 -17 -19 -17 -25 0 -6 -15 -34 -32 -61 -35 -53
-68 -119 -68 -135 0 -5 -13 -28 -29 -52 -15 -24 -34 -61 -41 -83 -7 -22 -18
-53 -25 -70 -30 -72 -35 -87 -35 -106 0 -10 -4 -27 -9 -37 -16 -33 -31 -89
-31 -120 0 -17 -4 -34 -10 -37 -12 -8 -14 -242 -1 -249 4 -3 11 -20 15 -37 7
-38 56 -142 69 -148 4 -2 13 -14 18 -28 5 -14 18 -27 29 -30 11 -3 20 -10 20
-17 0 -6 30 -27 68 -46 37 -19 70 -39 74 -45 11 -16 390 -13 396 3 2 6 12 12
23 12 11 0 27 4 37 9 9 5 43 22 75 37 31 15 57 32 57 37 0 5 7 15 15 21 16 12
19 30 17 88 -2 32 -7 40 -34 52 -50 21 -187 159 -194 196 -4 17 -11 33 -15 36
-12 7 -12 191 0 198 4 3 14 40 21 83 6 43 15 83 19 88 4 6 16 37 26 70 10 33
23 67 30 75 7 8 16 34 20 57 4 24 11 46 16 49 16 9 59 82 59 99 0 19 21 57 38
68 6 4 12 15 12 23 0 8 7 26 17 40 20 31 47 78 67 119 8 17 35 57 60 90 25 33
46 65 46 70 0 9 69 107 99 142 6 7 11 16 11 20 0 5 16 26 35 46 19 20 35 46
35 56 0 10 9 21 20 24 11 3 23 13 26 24 4 10 22 34 41 53 18 19 74 82 124 139
84 95 91 106 86 136 -8 51 -42 78 -101 82 -121 9 -1337 7 -1418 -2z"/>
<path d="M10670 3421 c0 -5 -18 -11 -41 -15 -93 -15 -121 -115 -54 -193 29
-34 35 -49 35 -86 0 -24 -7 -58 -15 -75 -9 -18 -20 -83 -26 -154 -6 -68 -16
-137 -24 -153 -8 -17 -17 -73 -21 -125 -4 -52 -13 -104 -21 -116 -8 -12 -16
-63 -19 -120 -4 -54 -12 -108 -19 -120 -7 -11 -16 -41 -20 -66 -6 -39 -3 -48
20 -76 24 -29 32 -32 80 -32 49 0 73 6 130 32 23 10 108 26 180 34 28 3 61 11
74 17 34 17 356 16 373 0 6 -7 35 -13 62 -13 45 0 143 -25 156 -40 3 -4 21
-12 40 -20 19 -8 42 -21 51 -30 9 -8 33 -28 53 -43 20 -15 36 -34 36 -42 0 -8
7 -15 15 -15 8 0 15 -6 15 -14 0 -7 11 -30 25 -50 23 -33 25 -47 25 -139 0
-108 -16 -160 -61 -199 -10 -9 -19 -20 -19 -25 0 -14 -50 -57 -101 -86 -25
-14 -51 -33 -59 -41 -7 -9 -28 -16 -49 -16 -20 0 -58 -7 -85 -15 -63 -19 -218
-19 -271 0 -22 8 -50 15 -61 15 -12 0 -27 7 -34 15 -6 8 -21 17 -32 21 -11 3
-41 27 -67 52 -45 44 -49 52 -54 108 -8 73 1 134 18 134 7 0 15 7 18 15 3 7
28 24 56 35 51 22 61 37 61 96 0 24 -9 40 -40 68 -22 20 -47 36 -55 36 -8 0
-15 4 -15 9 0 9 -72 23 -130 26 -64 2 -167 -15 -206 -35 -21 -11 -44 -20 -50
-20 -7 0 -51 -37 -97 -83 -74 -74 -85 -89 -91 -129 -4 -25 -13 -54 -21 -64
-17 -22 -20 -139 -5 -149 6 -3 10 -20 10 -37 0 -38 20 -108 31 -108 5 0 15
-15 22 -33 15 -34 101 -117 122 -117 7 0 15 -6 18 -14 5 -11 69 -46 162 -86
11 -5 46 -14 78 -19 32 -6 72 -17 90 -25 21 -9 102 -19 227 -27 119 -7 198
-16 202 -23 5 -8 12 -8 26 1 10 6 97 16 193 23 96 6 183 16 194 20 21 9 46 15
129 30 27 5 69 18 92 30 24 11 52 20 63 20 10 0 24 6 30 14 7 8 23 17 36 20
29 7 103 56 129 85 11 12 23 21 27 21 10 0 59 45 59 55 0 4 18 29 40 55 22 26
40 53 40 59 0 5 7 27 16 48 29 65 32 76 45 153 6 41 16 79 21 84 11 13 10 122
-1 144 -5 9 -15 45 -22 80 -6 34 -16 62 -20 62 -5 0 -9 11 -9 24 0 13 -7 29
-15 36 -8 7 -15 18 -15 24 0 16 -154 176 -169 176 -7 0 -33 16 -58 35 -25 19
-52 35 -59 35 -8 0 -14 4 -14 8 0 4 -26 16 -57 27 -32 10 -62 22 -67 27 -6 4
-22 8 -37 8 -15 0 -31 5 -34 10 -3 6 -16 10 -29 10 -12 0 -28 6 -34 13 -10 9
-88 12 -322 12 -234 0 -312 -3 -321 -12 -7 -7 -21 -13 -31 -13 -16 0 -18 10
-18 96 0 52 5 104 11 115 5 11 13 59 16 107 3 48 9 92 13 97 5 6 13 46 20 90
7 44 15 87 20 95 6 13 49 15 280 18 269 2 273 2 324 -22 28 -13 62 -27 75 -31
44 -14 221 -200 221 -232 0 -14 51 -58 83 -71 15 -7 48 -12 72 -12 36 0 47 5
70 32 27 32 28 40 10 123 -4 17 -11 41 -17 55 -24 56 -27 67 -33 108 -4 23
-10 42 -14 42 -4 0 -13 19 -20 43 -7 23 -19 53 -26 67 -7 14 -17 43 -21 65
-10 53 -50 127 -77 142 -12 7 -36 12 -54 13 -17 0 -35 5 -38 10 -10 15 -400
13 -425 -2 -16 -10 -24 -10 -40 0 -26 16 -162 16 -178 0 -9 -9 -15 -9 -24 0
-15 15 -318 17 -318 2 0 -6 -35 -10 -84 -10 -47 0 -88 5 -91 10 -8 12 -185 13
-185 1z"/>
<path d="M8056 2583 c-43 -2 -88 -10 -100 -18 -11 -7 -38 -17 -58 -20 -21 -4
-38 -10 -38 -14 0 -4 -21 -13 -47 -21 -64 -18 -123 -50 -185 -99 -28 -23 -56
-41 -62 -41 -16 0 -86 -72 -86 -88 0 -7 -6 -12 -13 -12 -16 0 -57 -42 -57 -58
0 -7 -9 -17 -20 -24 -11 -7 -20 -17 -20 -21 0 -5 -16 -27 -35 -50 -19 -22 -35
-47 -35 -54 0 -7 -4 -13 -9 -13 -5 0 -12 -13 -16 -29 -3 -16 -13 -35 -21 -42
-8 -6 -14 -17 -14 -24 0 -7 -11 -28 -24 -48 -14 -20 -28 -53 -32 -74 -3 -21
-13 -43 -21 -50 -8 -6 -18 -40 -23 -78 -5 -37 -15 -74 -23 -83 -41 -47 -35
-606 7 -647 9 -9 16 -31 16 -49 0 -18 8 -44 19 -57 10 -13 22 -43 26 -66 4
-27 12 -43 21 -43 8 0 14 -9 14 -19 0 -11 11 -33 25 -49 14 -17 25 -34 25 -38
0 -16 114 -143 170 -190 30 -25 66 -55 80 -67 26 -22 83 -56 135 -81 86 -40
126 -56 139 -56 8 0 18 -4 21 -10 3 -5 19 -10 35 -10 16 0 55 -7 87 -15 69
-18 455 -21 518 -4 22 6 59 13 83 16 49 6 243 101 283 139 14 13 29 24 33 24
13 0 126 101 126 112 0 6 11 19 25 30 14 11 25 24 25 29 0 6 13 30 30 53 33
50 60 118 60 159 0 15 5 27 10 27 6 0 10 15 10 33 0 17 5 50 10 72 10 42 -3
173 -21 207 -5 10 -9 26 -9 35 0 28 -29 103 -51 134 -10 15 -19 32 -19 38 0 6
-4 11 -9 11 -5 0 -11 10 -15 23 -5 22 -117 140 -163 172 -76 53 -225 125 -259
125 -16 0 -39 7 -51 15 -58 40 -503 41 -578 1 -16 -9 -39 -16 -49 -16 -11 0
-34 -11 -52 -25 -18 -14 -37 -25 -43 -25 -6 0 -16 -9 -23 -20 -7 -11 -18 -20
-25 -20 -7 0 -13 -4 -13 -8 0 -4 -14 -16 -32 -26 l-31 -19 6 62 c3 34 15 79
26 101 12 23 21 56 21 75 0 20 4 43 9 53 4 9 16 31 25 49 9 17 16 38 16 46 0
9 11 28 23 44 13 15 27 39 30 53 11 43 141 175 215 217 88 51 184 70 272 55
35 -7 70 -18 80 -27 9 -8 21 -15 27 -15 23 0 95 -63 109 -95 7 -18 19 -35 26
-37 8 -3 13 -25 13 -64 0 -54 -4 -64 -43 -116 -56 -76 -57 -109 -2 -143 33
-21 52 -25 110 -25 38 0 70 3 70 8 0 4 23 13 52 20 28 6 64 23 78 37 14 14 29
25 32 25 4 0 27 21 52 46 31 31 51 63 63 97 9 29 20 56 24 61 12 14 11 153 -1
161 -5 3 -10 16 -10 29 0 13 -11 38 -25 57 -13 19 -29 43 -34 54 -20 44 -161
142 -236 165 -22 7 -47 16 -55 20 -8 4 -40 13 -70 20 -30 8 -59 17 -65 21 -12
8 -379 18 -489 12z m289 -1217 c6 -7 20 -16 31 -20 34 -11 133 -117 140 -151
4 -16 15 -46 25 -65 16 -29 19 -57 19 -175 0 -109 -3 -146 -15 -161 -8 -10
-19 -35 -25 -55 -12 -45 -67 -109 -139 -162 l-56 -42 -113 -3 c-118 -4 -134
-1 -231 47 -57 27 -131 95 -131 119 0 8 -9 25 -19 39 -11 13 -23 44 -27 69 -3
24 -10 47 -15 50 -12 7 -11 141 1 149 6 3 10 25 10 47 0 45 19 108 32 108 4 0
8 7 8 16 0 22 77 110 119 136 82 49 109 60 166 68 78 11 207 2 220 -14z"/>
</g>
</svg>
