<?xml version="1.0" standalone="no"?>
<!DOCTYPE svg PUBLIC "-//W3C//DTD SVG 20010904//EN"
 "http://www.w3.org/TR/2001/REC-SVG-20010904/DTD/svg10.dtd">
<svg version="1.0" xmlns="http://www.w3.org/2000/svg"
 width="3920.000000pt" height="694.000000pt" viewBox="0 0 3920.000000 694.000000"
 preserveAspectRatio="xMidYMid meet">
<metadata>
Created by potrace 1.16, written by Peter Selinger 2001-2019
</metadata>
<g transform="translate(0.000000,694.000000) scale(0.100000,-0.100000)"
fill="#000000" stroke="none">
<path d="M2880 6901 l0 -39 -62 -6 c-35 -3 -114 -8 -175 -11 -145 -8 -207 -26
-258 -75 -36 -35 -49 -41 -130 -54 -49 -9 -110 -22 -134 -28 -45 -13 -101 -59
-101 -83 0 -17 -52 -35 -102 -35 -44 0 -115 -33 -138 -63 -39 -52 -58 -65
-109 -72 -56 -8 -140 -56 -155 -90 -5 -11 -27 -28 -50 -38 -100 -43 -122 -58
-141 -94 -15 -28 -29 -39 -53 -44 -38 -8 -88 -59 -97 -99 -4 -20 -14 -29 -34
-33 -42 -9 -91 -59 -91 -94 0 -36 -16 -53 -50 -53 -38 0 -58 -19 -79 -75 -16
-42 -26 -54 -67 -76 -41 -22 -52 -35 -70 -80 -14 -34 -29 -55 -40 -57 -25 -5
-84 -62 -84 -81 0 -33 -63 -140 -89 -151 -28 -11 -53 -57 -71 -129 -8 -29 -24
-55 -46 -75 -49 -43 -84 -107 -84 -153 0 -62 -16 -101 -58 -141 -46 -44 -63
-93 -88 -242 -14 -88 -22 -110 -45 -135 -54 -58 -89 -211 -89 -391 0 -61 -3
-152 -6 -202 l-7 -92 -38 0 -39 0 0 -305 0 -305 40 0 40 0 0 -57 c0 -32 5
-141 10 -243 11 -214 35 -318 86 -374 24 -26 33 -50 48 -127 27 -142 43 -191
76 -226 16 -17 34 -33 40 -35 6 -2 16 -35 22 -73 6 -39 17 -88 25 -111 14 -38
25 -54 79 -102 12 -10 24 -37 27 -58 12 -68 74 -174 103 -174 16 0 50 -58 58
-102 8 -44 25 -59 74 -67 22 -4 38 -12 39 -21 10 -78 16 -91 59 -132 25 -24
54 -60 65 -80 10 -21 29 -43 42 -49 37 -20 91 -71 104 -98 12 -27 83 -103 144
-155 19 -16 62 -55 97 -86 44 -41 74 -60 100 -64 64 -12 72 -16 72 -40 0 -34
35 -73 73 -81 53 -12 88 -35 99 -65 12 -36 112 -88 186 -97 41 -4 52 -10 56
-27 3 -12 18 -34 34 -49 28 -27 66 -38 202 -61 27 -5 38 -13 48 -36 8 -17 26
-37 40 -44 36 -18 137 -41 250 -57 83 -12 93 -15 98 -36 4 -16 24 -32 63 -50
46 -22 72 -28 151 -30 52 -1 213 -8 358 -14 l262 -12 0 -33 0 -34 85 0 85 0 0
33 0 34 343 12 c188 6 363 14 389 16 63 5 132 37 163 73 25 30 47 35 254 57
67 7 153 47 182 83 23 30 103 60 161 61 26 1 46 10 70 31 18 17 38 30 44 30 7
0 15 11 18 25 4 15 14 25 25 25 31 0 129 38 149 57 10 10 23 30 29 45 10 21
23 29 68 39 31 7 58 16 61 21 3 4 15 8 28 8 25 0 82 55 88 85 2 13 19 25 52
37 50 17 96 59 96 85 0 18 24 43 41 43 28 0 99 51 99 71 0 36 18 56 63 69 45
12 52 20 81 93 10 26 21 37 35 37 31 0 87 62 95 104 6 31 13 39 47 52 41 17
79 56 79 82 0 28 35 91 56 100 25 12 83 96 90 132 16 80 25 100 46 100 20 0
31 9 64 57 8 12 20 52 25 90 15 113 18 120 49 133 40 16 73 89 96 210 15 77
24 101 49 130 55 62 72 116 90 284 l7 59 206 -7 c622 -20 932 -26 1897 -36
915 -10 1215 -9 2195 6 624 9 1173 18 1220 19 107 3 440 22 460 27 8 2 48 -6
88 -17 78 -21 76 -17 86 -105 8 -74 47 -139 99 -166 18 -10 38 -35 53 -68 21
-46 30 -55 82 -79 32 -15 66 -27 75 -27 10 0 34 -16 54 -36 66 -66 108 -78
282 -82 180 -4 218 5 289 74 25 24 52 44 60 44 8 0 31 10 51 22 19 13 44 28
55 33 36 19 96 136 96 188 0 25 6 36 23 44 46 21 78 85 88 175 6 46 16 89 23
97 11 10 81 15 297 22 156 5 352 14 434 20 360 27 1405 16 1495 -16 23 -8 55
-15 70 -15 33 0 50 -32 50 -97 0 -56 17 -167 32 -205 6 -15 27 -43 48 -62 45
-41 47 -45 59 -164 11 -106 41 -162 85 -162 21 0 25 -6 30 -47 11 -77 38 -166
59 -196 10 -15 32 -31 48 -34 21 -4 31 -13 35 -32 25 -124 58 -187 106 -203
21 -8 30 -20 38 -51 18 -73 42 -109 83 -125 22 -9 37 -22 37 -32 0 -34 59
-127 110 -175 32 -30 47 -46 70 -74 31 -39 56 -65 106 -112 22 -19 45 -48 52
-63 6 -15 27 -33 45 -41 17 -7 43 -25 56 -39 14 -14 30 -26 37 -26 7 0 17 -13
23 -30 5 -16 17 -30 26 -30 8 0 20 -11 26 -24 7 -14 24 -27 43 -32 17 -4 41
-10 53 -13 14 -4 32 -24 45 -51 21 -41 28 -46 85 -63 56 -16 65 -22 83 -56 15
-31 33 -46 83 -70 39 -19 79 -31 104 -31 34 0 42 -4 47 -22 12 -45 52 -80 98
-89 155 -27 165 -31 178 -67 16 -44 65 -66 196 -88 84 -14 103 -21 124 -44 28
-31 108 -67 166 -74 21 -3 110 -11 197 -17 l157 -12 0 -33 0 -34 615 0 615 0
0 34 0 34 73 6 c39 3 128 10 197 14 138 10 176 23 225 76 27 29 42 35 145 55
63 12 119 27 125 32 5 5 19 9 30 9 21 0 75 50 75 69 0 10 60 26 135 37 68 9
99 27 126 71 12 21 23 39 25 41 1 2 28 7 60 12 75 10 171 53 179 80 9 30 40
46 132 68 61 16 91 29 118 53 19 18 35 38 35 44 0 15 43 35 76 35 36 0 63 16
109 64 32 33 58 48 130 72 73 25 94 37 112 63 12 18 23 36 25 42 2 6 24 15 48
20 94 21 120 30 150 55 16 14 30 34 30 45 0 24 28 36 100 44 75 9 140 42 169
87 20 32 32 39 80 49 83 17 154 52 170 83 19 34 63 56 114 56 50 0 167 62 167
88 0 18 28 29 144 52 90 18 125 36 143 75 18 37 6 33 188 67 73 13 107 37 126
85 5 13 14 23 21 23 60 0 205 32 229 49 16 12 33 21 38 21 6 0 15 9 21 21 14
26 57 44 140 59 130 23 179 44 196 87 15 36 22 38 171 53 55 5 114 15 130 22
57 25 103 59 103 76 0 15 15 20 103 30 138 15 195 34 250 82 49 43 40 41 298
74 112 14 197 50 206 87 4 14 21 18 91 23 255 18 389 46 452 95 36 29 84 37
330 57 205 16 403 60 450 99 19 16 241 33 530 41 293 8 532 43 600 88 36 23
37 24 585 37 633 16 1068 17 4075 7 3105 -11 5108 -10 5150 2 19 5 49 23 67
38 29 27 31 35 38 117 4 49 6 179 3 290 -4 186 -6 205 -27 238 -29 48 -78 65
-214 76 -66 6 -1372 10 -3182 10 -3864 1 -5449 9 -5484 27 -83 43 -534 90
-951 99 -436 9 -671 23 -689 39 -9 7 -26 17 -38 20 -13 4 -23 11 -23 15 0 12
-64 29 -165 45 -81 13 -170 21 -447 41 -81 6 -90 9 -112 36 -14 16 -31 29 -38
29 -7 0 -38 9 -68 21 -38 14 -95 24 -185 30 -196 13 -237 19 -265 41 -91 70
-155 89 -380 108 -102 9 -105 10 -135 44 -46 54 -140 82 -312 93 -87 6 -92 7
-103 32 -12 28 -112 81 -154 81 -12 0 -67 7 -122 15 -83 12 -101 18 -114 37
-42 63 -80 77 -282 104 -111 14 -138 26 -138 59 0 11 -64 47 -105 59 -11 3
-62 10 -112 15 l-93 10 -47 49 c-51 53 -50 52 -279 87 -22 4 -34 14 -45 37
-11 25 -28 36 -89 60 -41 17 -102 33 -134 36 -50 4 -64 10 -84 34 -13 15 -28
28 -34 28 -5 0 -24 11 -42 25 -18 14 -43 25 -56 25 -59 0 -144 34 -189 76 -29
27 -62 47 -91 55 -120 32 -190 63 -190 84 0 20 -67 55 -137 71 -56 12 -73 20
-81 39 -6 13 -25 31 -42 40 -16 8 -30 19 -30 24 0 5 -21 12 -47 16 -71 10
-116 32 -138 65 -11 17 -33 37 -50 46 -16 9 -43 23 -59 31 -15 8 -46 18 -68
21 -31 4 -42 10 -49 31 -6 14 -20 36 -31 48 -21 22 -34 28 -130 54 -27 7 -48
18 -48 24 0 7 -11 18 -25 25 -13 7 -27 21 -30 30 -3 11 -32 26 -72 39 -89 30
-99 36 -106 68 -5 22 -18 34 -64 55 -32 14 -69 30 -83 33 -14 4 -49 31 -77 61
-29 30 -61 54 -72 54 -35 0 -106 31 -136 59 -45 42 -95 67 -180 90 -51 14 -87
31 -105 49 -58 56 -87 72 -158 82 -91 13 -110 21 -151 64 -49 51 -88 61 -367
93 -42 4 -54 10 -72 38 -33 47 -96 63 -292 75 -340 21 -1000 8 -1114 -21 -23
-6 -53 -13 -68 -16 -16 -3 -44 -20 -65 -39 -38 -35 -37 -35 -218 -55 -178 -19
-223 -32 -264 -76 -40 -41 -99 -63 -175 -63 -31 0 -55 -8 -87 -30 -24 -16 -48
-30 -53 -30 -4 0 -17 -11 -27 -24 -13 -16 -37 -28 -71 -36 -74 -15 -150 -54
-184 -92 -42 -48 -78 -68 -120 -68 -30 0 -43 -8 -80 -47 -24 -27 -44 -51 -44
-54 0 -4 -16 -10 -36 -13 -44 -9 -122 -58 -143 -90 -23 -34 -59 -61 -105 -77
-30 -11 -42 -23 -53 -49 -23 -58 -28 -63 -73 -74 -41 -10 -47 -16 -73 -68 -22
-46 -36 -61 -73 -78 -42 -21 -74 -61 -74 -93 0 -19 -25 -39 -63 -52 -22 -7
-38 -24 -56 -60 -17 -32 -42 -60 -69 -78 -46 -31 -91 -111 -93 -164 -1 -49
-13 -65 -64 -82 -43 -15 -50 -21 -57 -51 -16 -72 -31 -104 -63 -135 -38 -38
-71 -103 -81 -160 -11 -64 -32 -104 -57 -110 -38 -10 -73 -103 -88 -232 -8
-69 -17 -113 -24 -113 -21 0 -82 -75 -93 -115 -6 -22 -14 -85 -17 -140 -6
-123 -11 -142 -38 -149 -30 -8 -1788 -7 -2073 1 l-230 6 -12 82 c-7 44 -12 94
-12 111 0 45 -55 152 -85 166 -19 9 -25 19 -25 44 0 58 -25 103 -103 182 -39
40 -69 53 -172 77 -52 12 -89 26 -106 42 -33 30 -133 47 -243 41 -73 -4 -82
-7 -106 -35 -21 -23 -42 -33 -101 -45 -41 -9 -91 -22 -111 -30 -43 -16 -88
-55 -88 -75 0 -20 -71 -103 -88 -103 -7 0 -18 -13 -23 -29 -6 -16 -16 -32 -24
-35 -13 -5 -29 -67 -40 -158 -5 -36 -12 -51 -28 -59 -12 -6 -30 -21 -39 -33
-16 -20 -24 -21 -185 -19 -133 2 -181 7 -233 23 -165 50 -326 72 -580 81 -985
33 -2527 40 -4033 20 -570 -8 -1040 -11 -1043 -8 -4 3 -10 45 -16 94 -16 146
-38 217 -86 266 -19 20 -33 47 -37 72 -4 22 -16 78 -27 125 -17 69 -26 90 -52
112 -17 15 -36 28 -42 28 -10 0 -23 49 -39 156 -7 44 -41 88 -77 100 -30 9
-38 22 -38 60 0 17 -11 53 -25 80 -14 27 -25 55 -25 61 0 7 -15 19 -33 27 -35
14 -63 49 -71 87 -3 13 -7 36 -10 50 -4 20 -15 29 -48 39 -58 18 -68 27 -68
63 0 35 -43 97 -67 97 -19 0 -35 20 -63 76 -13 26 -32 47 -51 54 -16 7 -35 22
-41 34 -30 57 -70 95 -106 102 -67 11 -72 14 -72 44 0 45 -43 88 -92 92 -42 3
-44 5 -73 70 -11 27 -24 40 -43 44 -70 15 -84 25 -120 87 -9 15 -22 27 -30 27
-7 0 -32 11 -55 24 -23 14 -61 28 -84 32 -24 4 -43 12 -43 19 0 20 -53 71 -85
83 -16 6 -65 16 -107 23 -43 7 -78 18 -78 23 0 6 -13 25 -28 42 -21 24 -43 35
-98 48 -40 9 -84 16 -99 16 -41 0 -105 21 -105 35 0 55 -180 105 -377 105 -48
0 -112 3 -140 6 l-53 7 0 38 0 39 -595 0 -595 0 0 -39z m959 -2465 c63 -14
109 -30 117 -40 20 -28 136 -98 172 -103 19 -3 36 -13 39 -22 2 -9 9 -24 14
-33 5 -10 9 -24 9 -32 0 -15 70 -56 95 -56 10 0 15 -10 15 -30 0 -31 31 -104
50 -115 5 -3 10 -15 10 -26 0 -13 10 -24 30 -31 48 -16 60 -53 76 -236 8 -92
19 -185 24 -207 7 -28 5 -64 -4 -120 -8 -44 -22 -138 -32 -208 l-17 -128 -40
-27 c-25 -17 -51 -49 -71 -87 -17 -33 -46 -76 -64 -95 -68 -73 -107 -110 -117
-110 -10 0 -52 -38 -86 -78 -8 -10 -54 -31 -101 -45 -66 -21 -92 -34 -114 -60
-51 -59 -71 -62 -354 -62 -140 0 -272 4 -292 8 -35 7 -88 47 -88 66 0 10 -107
59 -148 67 -35 7 -55 24 -83 72 -11 19 -38 41 -66 55 -30 14 -49 30 -51 42 -7
46 -26 73 -68 100 -28 18 -44 35 -44 48 0 11 -14 64 -32 117 -26 80 -38 101
-64 119 -25 18 -34 33 -43 78 -14 73 -14 320 0 419 10 65 17 82 45 111 19 19
34 43 34 53 0 11 11 40 24 65 14 25 28 66 32 90 3 26 12 45 19 45 23 0 95 60
95 79 0 20 44 61 65 61 19 0 52 43 59 76 7 31 16 37 106 60 38 10 117 63 122
82 7 24 72 40 218 53 69 6 127 13 130 16 12 13 281 -9 379 -31z"/>
</g>
</svg>
