<?xml version="1.0" standalone="no"?>
<!DOCTYPE svg PUBLIC "-//W3C//DTD SVG 20010904//EN"
 "http://www.w3.org/TR/2001/REC-SVG-20010904/DTD/svg10.dtd">
<svg version="1.0" xmlns="http://www.w3.org/2000/svg"
 width="2676.000000pt" height="1017.000000pt" viewBox="0 0 2676.000000 1017.000000"
 preserveAspectRatio="xMidYMid meet">

<g transform="translate(0.000000,1017.000000) scale(0.100000,-0.100000)"
fill="#000000" stroke="none">
<path d="M14515 10057 c-27 -7 -72 -24 -100 -37 -65 -32 -180 -134 -196 -174
-7 -17 -20 -42 -29 -56 -24 -37 -40 -100 -40 -161 0 -30 -4 -71 -9 -92 -6 -24
-6 -50 0 -67 13 -35 -14 -96 -51 -115 -79 -40 -122 -55 -161 -55 -66 0 -216
-27 -247 -44 -15 -9 -51 -22 -81 -31 -30 -8 -61 -21 -70 -28 -9 -8 -43 -22
-76 -32 -33 -10 -79 -31 -102 -47 -23 -15 -48 -28 -57 -28 -21 0 -66 -21 -66
-32 0 -4 -6 -8 -14 -8 -7 0 -31 -16 -52 -35 -21 -19 -46 -35 -55 -35 -10 0
-37 -15 -62 -34 -24 -19 -55 -40 -68 -46 -25 -13 -42 -27 -87 -71 -15 -14 -35
-28 -45 -32 -9 -3 -22 -18 -29 -32 -6 -13 -20 -27 -30 -31 -27 -8 -218 -200
-218 -218 0 -8 -11 -25 -25 -38 -27 -26 -95 -134 -95 -152 0 -7 -13 -32 -29
-57 -16 -24 -34 -63 -41 -87 -6 -23 -22 -59 -35 -79 -18 -25 -25 -49 -25 -83
0 -35 -7 -57 -27 -86 -15 -22 -32 -65 -38 -99 l-11 -60 -40 -3 c-33 -2 -45 3
-77 32 -21 19 -47 38 -58 41 -10 4 -19 10 -19 14 0 4 -24 18 -52 31 -29 13
-66 34 -81 47 -16 12 -37 23 -47 23 -10 0 -32 11 -49 25 -72 61 -298 95 -409
61 -26 -8 -60 -17 -75 -21 -16 -3 -32 -16 -39 -30 -8 -17 -19 -25 -37 -25 -29
0 -91 -34 -91 -50 0 -5 -14 -17 -32 -26 -36 -18 -61 -45 -85 -89 -9 -16 -23
-37 -32 -45 -9 -8 -25 -33 -36 -54 -11 -22 -29 -50 -41 -62 -11 -13 -25 -42
-31 -66 -6 -24 -18 -68 -27 -98 -20 -70 -20 -160 0 -230 8 -30 20 -73 25 -95
13 -52 35 -99 54 -115 8 -7 15 -18 15 -24 0 -16 97 -116 112 -116 7 0 18 -8
25 -19 29 -47 121 -80 283 -101 47 -6 112 -17 145 -25 52 -12 63 -12 82 0 12
8 40 15 62 15 39 0 41 -2 52 -42 15 -56 4 -146 -21 -173 -10 -11 -23 -40 -29
-65 -6 -28 -20 -54 -39 -70 -15 -14 -40 -43 -55 -65 -32 -47 -192 -213 -262
-270 -26 -22 -61 -44 -77 -48 -36 -10 -131 -65 -141 -82 -4 -8 -33 -19 -65
-26 -31 -7 -73 -23 -93 -36 -20 -13 -59 -26 -88 -30 -40 -4 -57 -12 -72 -32
l-21 -26 -236 -9 c-246 -10 -521 2 -579 25 -15 6 -53 15 -83 19 -99 15 -176
36 -206 57 -16 12 -62 26 -106 33 -43 7 -78 16 -78 21 0 16 -117 76 -184 94
-38 10 -76 26 -85 36 -19 20 -75 49 -93 49 -7 0 -19 9 -26 20 -7 11 -18 20
-25 20 -7 0 -30 16 -50 35 -21 20 -51 38 -67 41 -16 4 -38 17 -50 29 -12 13
-42 29 -66 36 -30 9 -44 19 -44 31 0 10 -12 26 -27 35 -15 10 -36 26 -45 35
-10 10 -28 20 -41 24 -14 3 -29 16 -36 30 -6 13 -15 24 -20 24 -6 0 -53 42
-106 93 -52 50 -125 119 -161 152 -36 32 -74 76 -85 96 -10 21 -27 40 -38 44
-10 3 -24 19 -31 34 -6 16 -20 31 -29 34 -12 3 -21 18 -25 41 -4 21 -20 51
-36 68 -16 17 -32 40 -36 52 -4 11 -15 27 -24 33 -10 7 -24 33 -31 58 -7 25
-24 57 -36 72 -13 14 -23 34 -23 43 0 10 -18 37 -40 61 -22 24 -40 48 -40 54
0 5 -17 29 -38 53 -61 70 -139 72 -216 3 -39 -35 -86 -154 -106 -272 -10 -63
-26 -134 -34 -158 -9 -24 -16 -54 -16 -66 0 -31 -10 -32 -245 -41 -158 -5
-211 -11 -255 -26 -74 -26 -126 -37 -180 -38 -26 0 -66 -11 -95 -25 -27 -14
-57 -25 -65 -25 -24 0 -82 -24 -131 -53 -25 -15 -53 -27 -62 -27 -8 0 -28 -10
-44 -23 -15 -13 -49 -31 -75 -41 -26 -10 -50 -22 -54 -27 -6 -10 -83 -49 -97
-49 -9 0 -116 -67 -143 -89 -6 -5 -21 -12 -35 -16 -13 -4 -39 -21 -57 -36 -22
-20 -44 -29 -67 -29 -51 0 -65 9 -65 42 0 20 -10 39 -30 58 -23 21 -32 40 -36
77 -4 29 -17 64 -34 88 -16 23 -31 62 -35 88 -4 26 -16 58 -26 71 -11 14 -26
44 -35 68 -14 40 -28 64 -94 163 -15 22 -30 52 -34 67 -3 15 -16 38 -29 50
-12 13 -30 39 -40 59 -9 20 -24 42 -33 50 -9 7 -20 24 -25 36 -5 13 -18 27
-29 31 -12 4 -27 19 -33 32 -7 14 -22 26 -34 28 -14 2 -23 13 -26 31 -3 15
-18 42 -34 59 -15 18 -46 53 -68 78 -53 60 -194 201 -239 239 -20 16 -53 36
-73 43 -21 7 -41 19 -46 27 -9 16 -70 45 -94 45 -8 0 -24 11 -35 25 -11 14
-26 25 -33 25 -8 0 -29 13 -47 29 -18 16 -47 32 -64 35 -17 4 -47 18 -65 32
-18 13 -51 29 -73 35 -21 6 -46 19 -55 30 -10 13 -39 24 -81 31 -36 6 -74 19
-85 28 -33 28 -58 38 -116 46 -30 4 -63 13 -75 21 -27 17 -146 43 -201 43 -29
0 -46 6 -55 19 -20 28 -37 30 -269 41 -131 5 -237 15 -274 25 -77 20 -237 20
-301 0 -27 -9 -110 -20 -184 -25 -155 -11 -185 -16 -220 -40 -14 -9 -61 -22
-104 -29 -72 -12 -112 -25 -126 -42 -3 -3 -41 -14 -85 -24 -44 -10 -91 -26
-104 -36 -13 -11 -30 -19 -38 -19 -8 0 -34 -13 -57 -28 -22 -15 -63 -34 -90
-42 -26 -7 -60 -23 -75 -35 -14 -12 -46 -32 -71 -44 -67 -34 -140 -82 -140
-92 0 -5 -8 -9 -17 -9 -10 0 -33 -14 -51 -31 -17 -16 -49 -37 -69 -45 -48 -21
-125 -78 -200 -150 -18 -17 -43 -38 -56 -47 -13 -8 -30 -29 -37 -46 -7 -17
-20 -31 -29 -31 -32 -1 -95 -56 -121 -105 -14 -28 -31 -54 -38 -58 -19 -12
-52 -49 -102 -112 -25 -31 -66 -77 -92 -102 -26 -25 -50 -58 -53 -73 -3 -15
-24 -48 -46 -71 -77 -83 -135 -170 -150 -223 -5 -20 -20 -48 -33 -63 -13 -15
-35 -57 -50 -93 -15 -36 -45 -100 -67 -143 -21 -43 -39 -86 -39 -95 0 -10 -18
-74 -40 -142 -22 -68 -40 -134 -40 -147 0 -12 -7 -48 -15 -80 -38 -141 -45
-211 -51 -503 -4 -202 -2 -336 6 -425 7 -71 15 -177 19 -235 7 -93 14 -124 68
-275 95 -266 165 -425 209 -478 13 -15 31 -44 40 -63 9 -20 33 -48 52 -62 19
-15 38 -31 43 -37 4 -5 23 -28 42 -50 19 -22 41 -53 50 -70 8 -16 28 -42 43
-57 16 -14 43 -43 59 -63 17 -20 45 -45 63 -56 17 -11 32 -26 32 -32 0 -6 9
-20 19 -32 11 -11 39 -42 63 -68 87 -98 172 -178 211 -197 15 -7 27 -17 27
-22 0 -4 19 -20 42 -35 24 -15 64 -44 89 -65 26 -21 62 -44 80 -52 19 -8 51
-28 73 -45 21 -17 53 -35 72 -40 18 -5 48 -21 67 -35 19 -14 41 -26 49 -26 8
0 44 -15 79 -33 81 -41 133 -62 189 -77 25 -7 68 -22 95 -35 28 -12 88 -28
135 -35 47 -7 101 -21 120 -31 48 -23 126 -37 257 -45 77 -4 116 -11 124 -20
17 -21 460 -20 492 0 14 9 64 17 132 21 130 8 209 21 250 43 17 9 55 22 85 28
30 7 80 20 110 29 30 9 69 20 85 24 42 11 105 42 105 51 0 5 32 14 71 21 40 7
87 23 106 36 19 13 41 23 49 23 9 0 34 13 57 29 23 15 53 32 67 36 34 11 170
84 195 105 11 9 55 34 98 56 43 21 99 56 124 79 67 58 162 147 183 169 19 20
24 25 105 106 31 30 59 58 63 62 4 4 22 20 40 35 19 14 45 44 58 65 13 21 31
38 39 38 8 0 20 10 26 23 6 12 23 34 38 48 14 14 44 47 66 74 22 27 55 65 73
86 17 20 32 39 32 43 0 4 11 18 25 32 14 14 25 31 25 38 0 7 13 25 30 41 16
15 35 44 41 64 7 20 24 48 38 62 14 14 42 49 61 77 41 60 63 69 136 53 43 -10
69 -26 129 -77 42 -35 83 -64 91 -64 8 0 39 -22 67 -48 29 -27 68 -55 87 -62
19 -7 50 -28 67 -45 18 -18 46 -35 62 -38 16 -3 36 -14 46 -24 16 -15 55 -31
234 -94 30 -10 64 -19 77 -19 12 0 43 -9 69 -20 26 -11 61 -20 78 -20 56 0
201 -22 268 -41 36 -11 86 -19 110 -19 47 0 74 -17 102 -62 24 -39 23 -162 -3
-235 -14 -41 -20 -83 -20 -146 0 -85 1 -90 29 -118 27 -27 35 -29 103 -29 78
0 131 12 162 35 18 14 18 15 2 40 -22 33 -14 55 19 55 34 0 122 60 146 99 10
17 23 31 29 31 5 0 19 18 30 41 12 22 40 54 64 71 25 17 53 49 65 74 14 28 34
49 55 59 18 9 71 54 119 101 90 90 128 120 189 153 48 27 130 98 146 127 10
19 21 24 50 24 39 0 102 36 134 76 10 12 34 25 53 28 20 4 51 20 69 36 19 17
41 30 49 30 9 0 22 6 29 14 21 20 74 46 96 46 11 0 45 13 75 29 31 16 81 37
112 46 32 9 74 25 94 36 19 10 47 19 61 19 14 0 39 9 57 20 18 10 101 33 185
50 84 18 160 36 170 41 23 12 443 43 588 44 141 0 384 -28 426 -50 17 -8 52
-19 77 -24 25 -4 63 -18 84 -31 21 -12 69 -30 106 -40 38 -10 78 -27 90 -38
12 -11 58 -39 102 -62 44 -23 89 -50 100 -60 11 -10 33 -22 48 -26 16 -3 33
-17 39 -30 6 -12 23 -28 38 -34 17 -7 35 -27 45 -50 10 -22 38 -59 64 -83 39
-37 111 -127 160 -201 8 -11 27 -37 42 -57 15 -19 37 -64 49 -100 31 -91 14
-125 -72 -143 -15 -3 -33 -13 -42 -21 -10 -11 -37 -15 -98 -15 -106 0 -209
-20 -274 -54 -29 -14 -56 -26 -61 -26 -8 0 -46 -34 -150 -132 -10 -10 -31 -34
-48 -54 -16 -21 -42 -49 -56 -63 -26 -25 -37 -53 -76 -186 -26 -86 -26 -319 0
-356 9 -14 24 -53 33 -85 15 -59 50 -121 90 -159 11 -11 31 -36 43 -56 25 -44
53 -63 109 -78 23 -7 44 -16 48 -22 13 -22 91 -40 237 -56 95 -9 255 24 277
58 3 5 34 19 69 32 63 24 121 68 121 92 0 7 17 15 39 19 28 4 47 16 66 38 41
50 95 88 126 88 25 0 32 -9 72 -93 24 -51 50 -118 57 -148 7 -29 16 -64 21
-77 5 -13 9 -33 9 -46 0 -13 11 -38 25 -57 13 -19 38 -62 54 -97 16 -34 34
-62 39 -62 4 0 18 -29 31 -64 13 -39 40 -85 67 -116 25 -29 51 -64 58 -79 8
-14 23 -35 35 -45 12 -11 21 -25 21 -31 0 -7 30 -41 68 -76 37 -35 77 -78 89
-94 13 -17 48 -51 79 -75 30 -25 78 -66 104 -92 27 -27 74 -59 105 -73 30 -14
55 -29 55 -34 0 -5 24 -19 53 -31 28 -12 65 -33 80 -46 16 -13 41 -27 55 -30
15 -4 43 -15 62 -24 19 -10 58 -24 85 -31 28 -6 57 -18 65 -25 32 -27 279
-104 334 -104 13 0 35 -9 49 -21 25 -19 80 -40 138 -53 50 -11 64 -68 53 -204
-11 -121 32 -317 86 -392 11 -16 20 -34 20 -41 0 -6 28 -40 63 -74 89 -87 152
-108 331 -109 118 -1 136 2 179 23 26 13 47 26 47 30 0 4 15 12 33 19 17 6 50
27 72 47 22 19 43 35 46 35 13 0 97 129 107 165 6 22 20 65 31 95 15 41 20 80
21 156 0 102 -11 155 -38 186 -10 12 -16 48 -20 111 l-5 93 74 36 c51 25 92
38 132 40 63 5 96 27 117 79 7 17 20 29 31 29 10 0 24 9 31 19 8 11 39 30 70
44 30 14 59 30 62 36 4 6 33 24 65 40 31 16 63 36 70 45 8 9 19 16 25 16 6 0
49 34 96 75 47 42 101 89 120 106 96 84 185 191 196 235 3 13 12 25 19 28 8 3
23 22 34 43 10 21 28 47 39 59 11 11 23 31 27 45 4 13 17 35 30 49 12 14 29
43 36 65 8 22 22 49 32 59 11 13 17 36 17 68 0 40 4 50 26 64 32 22 50 57 58
119 3 27 15 67 26 90 11 24 25 84 32 145 6 58 16 108 21 111 15 10 37 158 37
254 1 50 4 108 8 130 6 35 11 40 36 43 39 5 108 -23 186 -74 36 -23 92 -50
125 -60 33 -11 68 -26 78 -35 10 -9 36 -19 58 -22 22 -3 59 -17 81 -32 23 -16
64 -30 97 -35 111 -17 165 -30 183 -46 15 -15 55 -17 325 -16 245 0 319 3 363
15 30 9 91 25 135 37 123 32 207 61 235 80 14 9 54 25 90 34 36 10 85 30 110
45 70 43 328 171 345 171 8 0 43 15 78 32 56 29 140 68 217 101 14 6 34 18 45
27 11 9 39 22 62 30 24 7 50 21 59 32 10 10 30 18 46 18 35 0 88 21 106 43 8
9 37 23 65 33 29 9 57 21 63 25 6 5 40 18 75 30 81 26 165 59 205 80 17 10 40
22 50 27 11 6 46 16 79 23 33 7 76 20 95 30 34 18 147 49 176 49 8 0 31 11 52
24 20 13 55 27 77 31 21 4 55 15 75 25 20 10 72 26 115 35 44 9 89 22 100 29
11 7 45 19 75 26 30 7 71 18 90 26 19 7 73 20 120 29 93 17 189 43 205 56 6 4
60 13 120 19 61 7 133 21 160 31 28 10 82 23 120 29 100 16 162 30 229 51 33
10 77 19 100 19 84 0 263 23 319 41 34 11 86 19 128 19 84 0 187 14 289 40 58
14 130 20 320 25 135 3 315 11 400 17 177 13 253 15 689 24 219 4 320 3 335
-5 13 -7 115 -12 261 -15 132 -2 353 -9 490 -16 208 -10 254 -15 275 -30 31
-21 210 -43 260 -31 48 12 70 22 70 31 0 5 9 12 20 15 29 9 69 54 91 101 10
22 32 58 49 79 16 21 30 46 30 56 0 10 11 26 24 34 24 16 90 109 105 148 8 20
1 93 -14 155 -6 24 -50 68 -87 86 -13 6 -24 22 -26 34 -2 12 -16 32 -32 43
-15 12 -31 35 -34 51 -6 29 -39 66 -103 115 -28 21 -46 26 -130 30 -54 2 -215
0 -358 -5 -275 -9 -1247 2 -1415 17 -52 5 -120 15 -150 24 -63 18 -280 37
-415 37 -68 0 -101 5 -131 19 -48 23 -108 31 -296 40 -91 5 -152 12 -161 20
-27 22 -80 32 -208 41 -106 6 -132 11 -156 29 -24 18 -52 24 -159 32 -81 7
-135 15 -144 24 -27 24 -73 36 -175 45 -68 6 -113 15 -141 30 -24 12 -77 25
-126 30 -58 7 -99 18 -129 34 -32 18 -70 27 -136 34 -62 6 -97 15 -108 26 -19
19 -32 22 -145 37 -60 7 -91 16 -107 31 -23 22 -79 37 -135 38 -22 0 -51 10
-72 24 -19 13 -63 29 -98 35 -35 7 -67 17 -73 21 -5 5 -41 18 -80 30 -38 12
-84 28 -102 36 -17 8 -62 22 -100 32 -37 9 -77 25 -87 35 -23 20 -78 37 -123
37 -18 0 -44 10 -60 23 -33 27 -133 69 -222 93 -35 10 -74 27 -86 40 -13 13
-41 25 -68 29 -25 4 -61 18 -79 31 -18 14 -51 29 -73 35 -22 6 -48 19 -58 30
-9 10 -36 23 -60 30 -23 6 -49 15 -57 20 -34 21 -103 49 -120 49 -11 0 -23 6
-27 14 -11 19 -68 46 -97 46 -14 0 -33 8 -43 19 -24 25 -57 41 -83 41 -12 0
-34 14 -49 30 -17 20 -41 33 -65 37 -24 4 -43 14 -53 30 -9 14 -33 28 -59 34
-24 6 -44 15 -44 20 0 12 -48 35 -90 44 -19 4 -46 17 -60 30 -43 38 -133 83
-192 95 -41 8 -59 17 -63 30 -4 13 -19 21 -43 25 -88 13 -148 28 -169 42 -34
23 -276 44 -508 45 -220 0 -443 -20 -494 -45 -17 -9 -69 -23 -114 -32 -50 -10
-88 -23 -97 -34 -9 -10 -34 -21 -55 -25 -22 -4 -62 -18 -90 -31 -78 -36 -175
-65 -219 -65 -35 0 -44 5 -63 33 -31 45 -41 102 -47 262 -7 155 -17 241 -39
318 -9 29 -21 72 -27 97 -7 25 -21 57 -31 71 -10 15 -23 56 -28 93 -10 71 -16
84 -43 104 -10 7 -18 23 -18 35 0 26 -35 87 -50 87 -5 0 -10 6 -10 13 0 34
-23 88 -50 116 -17 17 -30 37 -30 45 0 8 -8 21 -19 28 -10 7 -28 32 -40 56
-12 24 -28 45 -36 48 -7 3 -18 18 -25 33 -6 15 -24 35 -40 45 -17 9 -30 25
-30 35 0 27 -37 69 -80 91 -20 10 -40 28 -43 39 -3 12 -16 25 -30 30 -14 6
-28 19 -32 31 -3 11 -20 27 -36 35 -16 9 -29 19 -29 24 0 4 -12 14 -27 22 -16
8 -35 21 -43 29 -25 27 -77 60 -93 60 -8 0 -18 7 -21 15 -3 9 -23 23 -43 32
-21 8 -51 26 -66 39 -16 13 -37 24 -47 24 -22 0 -54 17 -101 53 -20 15 -42 27
-50 27 -8 0 -19 8 -26 18 -6 10 -35 24 -67 32 -31 7 -56 17 -56 21 0 5 -18 20
-40 34 -57 36 -64 72 -27 144 16 31 32 58 37 61 30 20 54 244 36 350 -10 67
-60 190 -76 190 -3 0 -30 20 -58 45 -29 24 -68 47 -86 51 -21 3 -38 15 -46 29
-7 13 -20 27 -29 30 -35 13 -286 15 -336 2z m-347 -1431 c28 1 73 2 100 4 26
1 108 -1 182 -3 103 -4 148 -10 190 -26 30 -12 77 -24 105 -27 68 -8 125 -23
125 -33 0 -12 48 -31 78 -31 15 0 42 -10 61 -23 61 -39 95 -56 119 -57 12 0
30 -8 40 -17 44 -43 100 -81 137 -94 38 -13 143 -110 220 -204 17 -20 40 -47
51 -59 12 -12 33 -41 48 -63 15 -22 38 -46 52 -54 31 -16 55 -51 73 -104 8
-22 23 -53 33 -68 20 -28 50 -102 94 -231 13 -38 31 -80 41 -95 16 -23 18 -56
18 -326 0 -290 -1 -301 -21 -330 -22 -31 -44 -114 -44 -165 0 -18 -10 -39 -25
-54 -14 -14 -30 -46 -37 -73 -7 -26 -16 -50 -19 -53 -3 -3 -17 -25 -29 -50
-12 -25 -36 -60 -51 -78 -16 -18 -29 -39 -29 -47 0 -8 -8 -20 -18 -27 -11 -7
-25 -24 -32 -38 -15 -29 -49 -66 -137 -153 -35 -34 -63 -69 -63 -78 0 -17 -79
-69 -150 -98 -19 -9 -45 -25 -57 -37 -12 -12 -39 -28 -60 -35 -21 -6 -52 -23
-69 -36 -17 -12 -38 -23 -46 -23 -26 0 -86 -29 -95 -45 -6 -11 -36 -18 -92
-25 -50 -6 -102 -19 -130 -32 -45 -22 -54 -23 -341 -23 l-295 0 -58 28 c-37
18 -86 31 -133 37 -41 4 -83 15 -92 23 -9 8 -35 21 -57 28 -22 7 -47 18 -55
25 -8 6 -41 24 -72 40 -32 15 -58 31 -58 35 0 4 -15 12 -32 20 -18 7 -48 25
-66 41 -18 15 -39 28 -47 28 -24 0 -65 23 -65 36 0 22 -53 76 -87 91 -19 7
-37 21 -40 31 -8 20 -102 112 -115 112 -4 0 -8 9 -8 19 0 11 -10 28 -23 38
-12 10 -27 30 -34 44 -6 15 -25 42 -41 60 -16 19 -33 45 -37 59 -4 14 -13 28
-19 32 -7 5 -4 16 10 35 21 28 21 28 142 28 66 0 124 3 128 8 4 4 46 7 93 7
118 0 263 46 348 111 60 46 131 118 139 141 3 10 12 18 20 18 17 0 44 57 44
93 0 14 7 31 17 38 29 25 43 76 49 191 9 153 -8 283 -39 317 -14 14 -29 40
-35 58 -16 48 -82 128 -127 154 -22 12 -45 30 -52 39 -13 18 -100 64 -143 75
-14 4 -128 10 -255 14 -238 8 -267 13 -323 58 l-22 18 24 70 c13 38 31 74 38
79 8 6 22 25 31 41 18 35 229 243 284 279 76 51 88 60 113 82 14 13 43 31 65
41 22 10 57 29 78 42 21 13 53 27 70 31 36 9 191 65 222 80 11 5 36 9 55 9 19
-1 60 8 90 19 33 13 63 18 75 14 11 -4 44 -6 73 -6z m3807 -2098 c28 -6 60
-18 72 -28 13 -10 50 -20 85 -24 101 -11 125 -17 146 -36 11 -10 48 -25 82
-32 34 -7 65 -18 67 -26 3 -7 40 -38 82 -69 135 -101 181 -161 181 -236 0 -27
-31 -76 -52 -83 -10 -3 -25 -16 -34 -29 -11 -17 -31 -26 -82 -35 -50 -10 -74
-20 -96 -41 -18 -19 -39 -29 -58 -29 -40 0 -60 -12 -123 -75 -54 -55 -85 -101
-85 -129 0 -8 -9 -35 -20 -61 -29 -67 -30 -187 -1 -240 11 -21 21 -47 21 -56
0 -25 27 -84 44 -99 22 -18 22 -96 -1 -108 -17 -10 -52 -63 -79 -121 -34 -75
-42 -300 -11 -369 19 -45 73 -117 129 -175 56 -58 85 -77 116 -77 11 0 30 -11
43 -24 13 -13 35 -27 49 -31 36 -10 155 -70 191 -96 17 -12 35 -33 40 -47 17
-43 1 -114 -32 -153 -17 -19 -37 -46 -44 -61 -9 -16 -32 -33 -59 -43 -25 -10
-48 -26 -54 -39 -6 -14 -23 -26 -42 -30 -19 -3 -34 -13 -37 -25 -4 -15 -18
-20 -71 -26 -71 -7 -94 -16 -128 -47 -51 -46 -749 -45 -774 2 -10 19 -59 40
-93 40 -10 0 -32 11 -48 25 -16 13 -46 27 -67 31 -20 3 -55 18 -77 33 -22 16
-52 31 -67 35 -16 3 -34 18 -42 35 -17 32 -66 77 -95 86 -11 3 -23 14 -26 24
-3 10 -32 47 -65 81 -33 33 -60 65 -60 69 0 4 -11 14 -25 21 -13 7 -27 20 -30
29 -8 27 -140 160 -169 170 -16 7 -26 18 -26 31 0 23 -73 100 -94 100 -8 0
-18 9 -21 20 -4 12 -64 78 -135 148 -178 176 -203 198 -227 206 -11 4 -26 20
-33 35 -15 38 -46 66 -92 85 -20 9 -39 24 -43 35 -3 11 -19 24 -35 30 -17 5
-30 15 -30 21 0 14 -20 34 -42 43 -13 5 -18 18 -18 50 0 39 4 47 39 75 22 18
47 32 56 32 9 0 23 13 33 29 9 16 28 32 42 35 14 2 42 21 63 40 20 20 41 36
47 36 5 0 39 25 75 55 35 30 67 55 71 55 4 0 42 34 85 75 43 41 84 75 91 75 7
0 22 14 33 30 11 16 25 30 32 30 6 0 26 16 45 36 18 20 52 56 76 80 23 24 42
47 42 53 0 5 12 14 28 19 15 5 43 25 62 44 62 61 140 149 151 170 6 12 23 31
38 44 15 12 32 33 39 46 7 12 36 34 63 48 28 14 55 33 61 43 5 10 30 27 56 38
26 11 56 29 67 39 11 10 49 24 85 30 36 7 85 19 110 27 153 49 449 64 605 31z
m-14645 -33 c47 -14 130 -32 184 -40 54 -8 122 -25 150 -38 68 -32 155 -113
191 -179 16 -29 57 -84 92 -122 35 -38 63 -72 63 -77 0 -5 6 -9 14 -9 15 0 26
-21 26 -51 0 -28 45 -159 68 -199 27 -45 37 -126 22 -165 -7 -16 -18 -88 -26
-159 -15 -138 -24 -164 -106 -304 -24 -40 -64 -98 -89 -130 -25 -31 -56 -77
-68 -102 -23 -46 -248 -274 -306 -311 -19 -12 -48 -19 -81 -19 -49 0 -51 -1
-46 -25 5 -30 -11 -32 -73 -11 -22 8 -92 17 -155 21 -138 8 -186 19 -203 46
-7 11 -36 27 -67 36 -30 8 -84 30 -120 48 -36 18 -86 40 -112 50 -54 20 -205
145 -295 246 -35 38 -63 65 -63 59 0 -14 -26 -13 -51 3 -31 18 -95 81 -108
105 -17 33 -14 80 7 91 17 9 18 15 8 61 -7 36 -7 62 1 92 8 29 8 48 1 61 -16
30 -21 157 -9 217 6 30 18 91 25 135 8 44 21 94 29 110 8 17 22 46 31 65 9 19
29 49 45 66 16 17 36 45 45 62 25 49 75 101 117 122 20 11 57 36 82 57 73 62
87 73 94 73 4 0 16 9 27 19 47 43 151 88 221 95 39 4 97 11 130 15 125 16 216
12 305 -14z m4055 -376 c25 -11 84 -24 131 -30 49 -5 109 -19 138 -32 28 -13
66 -29 84 -36 17 -8 32 -17 32 -22 0 -4 19 -14 43 -21 23 -6 64 -27 91 -45 26
-18 54 -33 61 -33 7 0 37 -24 66 -54 33 -32 84 -68 129 -91 41 -20 89 -50 105
-66 17 -15 51 -37 77 -49 26 -11 49 -24 52 -29 3 -4 27 -16 53 -26 26 -10 60
-27 75 -37 51 -35 162 -86 218 -98 30 -7 80 -26 110 -42 30 -15 60 -28 67 -28
17 0 16 -13 -4 -48 -15 -26 -24 -31 -78 -37 -33 -3 -69 -12 -80 -19 -11 -7
-47 -18 -80 -25 -100 -22 -158 -40 -174 -55 -9 -7 -41 -19 -71 -26 -63 -14
-92 -27 -103 -46 -4 -7 -33 -18 -65 -24 -31 -6 -68 -19 -82 -29 -14 -10 -43
-24 -65 -32 -22 -8 -60 -26 -84 -41 -25 -16 -50 -28 -56 -28 -7 0 -23 -10 -36
-22 -14 -13 -50 -31 -82 -41 -31 -10 -60 -24 -64 -31 -5 -7 -46 -21 -92 -30
-47 -10 -103 -26 -125 -37 -35 -17 -62 -19 -215 -19 -148 0 -184 3 -226 19
-27 10 -90 24 -140 31 -67 9 -97 19 -118 36 -15 13 -44 26 -65 30 -45 8 -62
20 -62 44 0 10 -24 40 -53 66 -29 27 -62 65 -73 84 -10 19 -25 40 -32 45 -12
10 -40 68 -80 170 -12 31 -15 75 -14 198 l1 159 36 71 c19 40 35 84 35 99 0
19 9 32 33 47 17 11 53 42 79 69 38 39 59 53 107 66 32 9 64 23 70 30 11 13
64 36 156 67 48 16 200 28 273 22 29 -3 73 -13 97 -24z m5007 -161 c46 -32
118 -105 118 -118 0 -6 62 -72 138 -146 75 -73 145 -142 155 -151 10 -10 52
-55 94 -101 52 -56 94 -91 131 -109 29 -14 56 -32 59 -38 2 -7 33 -36 68 -64
l64 -52 -16 -33 c-11 -25 -26 -37 -55 -45 -21 -7 -48 -23 -60 -36 -11 -13 -32
-26 -46 -30 -14 -3 -33 -14 -41 -23 -9 -9 -32 -28 -51 -41 -19 -14 -41 -33
-48 -43 -7 -10 -19 -18 -27 -18 -8 0 -24 -13 -36 -30 -13 -16 -36 -34 -54 -40
-17 -6 -37 -19 -45 -30 -8 -11 -20 -20 -26 -20 -6 0 -44 -34 -85 -75 -41 -41
-79 -75 -86 -75 -6 0 -15 -9 -18 -20 -3 -11 -10 -20 -15 -20 -5 0 -26 -18 -48
-40 -21 -22 -43 -40 -49 -40 -12 0 -93 -87 -93 -100 0 -6 -7 -10 -15 -10 -14
0 -40 24 -149 143 -32 36 -74 81 -92 101 -19 20 -34 41 -34 46 0 12 -81 90
-94 90 -6 0 -19 14 -28 30 -10 17 -25 30 -36 30 -13 0 -22 9 -26 25 -4 14 -17
30 -29 36 -12 5 -30 23 -39 40 -9 16 -24 29 -31 29 -8 0 -22 11 -31 24 -8 14
-24 27 -35 31 -11 3 -23 15 -26 26 -4 11 -22 27 -41 36 -19 9 -34 22 -34 28 0
6 -12 18 -26 25 -14 8 -34 26 -45 41 -10 14 -32 32 -49 39 -25 10 -30 18 -30
45 0 28 5 34 41 50 22 10 44 26 49 36 5 9 24 19 43 23 18 3 47 20 65 36 18 17
39 30 46 30 7 0 21 8 32 18 10 9 35 29 54 44 19 14 53 43 75 63 22 20 59 50
83 66 23 17 42 34 42 38 0 5 16 18 35 30 19 11 35 26 35 34 0 7 16 21 35 30
19 9 35 23 35 32 0 8 7 15 15 15 9 0 25 16 36 35 12 19 25 35 31 35 5 0 23 14
40 32 57 62 117 74 170 36z m7058 -78 c25 -28 79 -60 100 -60 6 0 18 -6 26
-14 7 -8 35 -22 61 -31 81 -28 145 -55 218 -91 39 -18 95 -38 125 -44 30 -6
64 -19 75 -30 11 -10 49 -24 85 -31 36 -7 74 -20 85 -30 11 -9 45 -22 75 -29
30 -7 86 -25 124 -41 43 -18 86 -29 116 -29 33 0 63 -9 101 -29 43 -22 74 -30
142 -36 79 -7 90 -10 110 -35 12 -15 32 -32 43 -38 42 -22 35 -102 -12 -150
-28 -29 -39 -100 -29 -190 6 -55 12 -70 36 -91 16 -14 29 -31 29 -38 0 -6 11
-20 25 -31 14 -11 28 -33 31 -50 7 -33 -9 -42 -82 -42 -57 0 -153 -19 -189
-37 -17 -9 -83 -21 -156 -28 -101 -9 -132 -16 -156 -33 -18 -13 -46 -22 -66
-22 -53 0 -184 -27 -215 -44 -15 -9 -65 -23 -111 -31 -47 -8 -92 -22 -101 -30
-8 -8 -36 -17 -60 -21 -56 -9 -102 -28 -120 -48 -7 -9 -22 -16 -35 -16 -12 0
-35 -4 -51 -9 -16 -5 -41 -12 -56 -15 -15 -3 -33 -12 -40 -19 -7 -7 -42 -19
-77 -26 -35 -7 -77 -22 -92 -33 -37 -28 -115 -40 -131 -21 -6 8 -14 40 -16 71
-3 31 -12 67 -20 80 -10 16 -18 64 -23 150 -7 130 -18 178 -43 188 -8 3 -16
27 -20 56 -5 32 -15 58 -30 73 -13 13 -29 39 -37 58 -14 36 -93 127 -110 127
-5 0 -9 20 -9 45 0 32 4 45 14 45 25 0 72 47 97 97 13 26 36 64 52 84 15 20
27 42 27 49 0 7 8 24 18 38 10 15 24 45 30 67 18 62 52 265 52 312 0 24 7 55
16 68 15 23 20 24 82 18 57 -4 71 -9 92 -33z m-4990 -1129 c52 -6 124 -20 160
-30 36 -11 97 -25 135 -31 39 -7 77 -16 85 -21 8 -5 29 -18 45 -29 17 -11 40
-20 51 -20 12 0 33 -9 48 -21 31 -24 175 -96 211 -105 14 -3 32 -18 39 -33 20
-38 56 -67 99 -81 28 -9 42 -21 55 -48 10 -21 32 -43 54 -54 36 -19 108 -96
108 -117 0 -5 17 -30 38 -54 20 -25 51 -68 67 -97 17 -29 41 -66 55 -84 35
-42 50 -80 50 -124 0 -25 17 -70 51 -137 55 -107 53 -100 75 -374 8 -102 -14
-428 -32 -456 -6 -11 -22 -51 -33 -90 -12 -38 -28 -82 -36 -96 -8 -14 -21 -48
-31 -75 -9 -27 -24 -58 -34 -69 -23 -24 -40 -68 -40 -100 0 -17 -9 -29 -30
-40 -16 -9 -30 -22 -30 -30 0 -9 -9 -23 -21 -33 -11 -9 -27 -30 -36 -46 -8
-15 -33 -44 -55 -65 -22 -20 -72 -68 -110 -108 -39 -39 -90 -81 -114 -94 -25
-12 -67 -44 -94 -70 -27 -26 -66 -53 -87 -59 -21 -7 -56 -22 -77 -32 -22 -11
-61 -26 -88 -34 -26 -8 -56 -23 -65 -33 -12 -11 -47 -22 -97 -29 -47 -7 -94
-21 -115 -35 -35 -21 -43 -22 -322 -22 -208 0 -290 3 -300 12 -8 7 -69 21
-134 33 -79 14 -127 27 -140 39 -11 10 -45 24 -75 32 -30 7 -64 20 -75 30 -11
9 -38 23 -60 30 -22 8 -58 28 -79 46 -22 18 -44 33 -50 33 -6 0 -24 11 -40 25
-17 14 -40 28 -53 31 -12 3 -25 15 -28 25 -4 10 -10 19 -15 19 -11 0 -119 103
-278 265 -16 17 -33 41 -37 54 -10 32 -74 133 -94 147 -11 8 -15 30 -16 72 0
33 2 62 5 65 3 2 73 -2 155 -10 133 -13 156 -13 205 1 30 8 93 23 140 31 47 9
101 25 120 35 19 10 51 25 72 34 20 9 80 59 133 112 89 88 125 139 125 179 0
8 9 24 19 34 57 57 55 416 -3 480 -8 9 -18 36 -22 60 -8 47 -67 121 -97 121
-10 0 -17 5 -17 10 0 13 -72 85 -99 100 -11 5 -35 10 -54 10 -19 0 -56 12 -83
27 -47 26 -57 28 -284 38 l-235 10 -37 30 c-32 25 -38 36 -38 68 0 25 5 40 15
44 9 3 38 40 65 82 27 42 72 95 100 119 28 24 57 59 65 78 8 19 19 34 25 34 5
0 23 12 39 28 16 15 55 45 87 67 32 22 72 54 89 71 19 20 44 33 69 37 21 3 48
15 60 26 22 21 57 37 121 57 70 21 109 38 152 66 29 19 55 28 85 29 24 0 95 6
158 14 127 15 315 13 460 -4z"/>
</g>
</svg>
