<?xml version="1.0" standalone="no"?>
<!DOCTYPE svg PUBLIC "-//W3C//DTD SVG 20010904//EN"
 "http://www.w3.org/TR/2001/REC-SVG-20010904/DTD/svg10.dtd">
<svg version="1.0" xmlns="http://www.w3.org/2000/svg"
 width="3323.000000pt" height="818.000000pt" viewBox="0 0 3323.000000 818.000000"
 preserveAspectRatio="xMidYMid meet">

<g transform="translate(0.000000,818.000000) scale(0.100000,-0.100000)"
fill="#000000" stroke="none">
<path d="M2241 5419 c-63 -5 -135 -15 -160 -23 -25 -9 -86 -20 -134 -25 -50
-6 -104 -19 -125 -30 -37 -19 -133 -41 -182 -41 -15 0 -38 -8 -51 -18 -13 -10
-49 -26 -79 -36 -30 -11 -62 -24 -70 -31 -8 -7 -32 -18 -54 -25 -21 -7 -47
-21 -57 -31 -10 -10 -36 -23 -58 -29 -25 -6 -42 -18 -46 -30 -4 -12 -15 -20
-28 -20 -23 0 -30 -4 -159 -92 -101 -70 -154 -110 -193 -148 -16 -16 -34 -34
-40 -39 -5 -5 -44 -43 -86 -83 -42 -40 -80 -83 -83 -95 -4 -12 -15 -24 -24
-27 -9 -3 -37 -36 -62 -73 -25 -38 -57 -83 -72 -101 -16 -18 -28 -39 -28 -47
0 -8 -4 -15 -10 -15 -5 0 -16 -13 -25 -30 -8 -16 -24 -37 -34 -47 -10 -10 -26
-43 -35 -74 -8 -30 -25 -64 -36 -74 -11 -10 -20 -22 -20 -28 0 -5 -11 -32 -25
-59 -14 -28 -34 -75 -45 -106 -10 -32 -26 -75 -34 -97 -8 -22 -15 -55 -16 -74
0 -18 -9 -50 -19 -70 -33 -62 -46 -197 -46 -471 0 -260 7 -330 46 -470 10 -36
20 -86 24 -113 7 -55 44 -143 73 -173 19 -20 28 -45 46 -125 3 -14 17 -38 31
-53 14 -15 28 -39 32 -54 14 -59 203 -306 302 -395 22 -20 50 -37 60 -37 13 0
28 -15 43 -42 13 -23 39 -52 58 -65 19 -12 40 -27 45 -33 45 -50 95 -93 120
-105 17 -8 62 -35 100 -59 39 -25 83 -48 100 -52 16 -4 35 -15 42 -24 7 -10
34 -23 60 -29 26 -7 62 -21 80 -32 17 -11 55 -27 85 -35 29 -9 63 -22 75 -30
13 -8 56 -19 98 -26 41 -6 75 -15 75 -19 0 -13 33 -21 160 -40 181 -27 484
-51 565 -43 133 11 484 72 499 85 6 5 17 9 26 9 9 0 36 13 61 29 24 16 71 37
104 47 33 10 77 29 98 42 73 44 102 58 148 71 25 7 68 30 95 52 27 21 68 47
90 58 23 11 50 28 60 39 11 11 30 23 43 27 34 10 171 117 223 173 24 26 63 62
87 80 49 38 131 120 131 132 0 4 12 13 28 19 15 6 58 41 96 76 38 36 72 65 76
65 3 0 16 17 28 37 11 21 44 60 71 88 28 27 51 53 51 57 0 4 11 19 25 34 14
15 25 33 25 40 0 19 81 74 110 74 15 0 41 -5 58 -11 26 -9 32 -18 42 -62 11
-54 15 -483 4 -511 -7 -18 74 -97 109 -108 12 -3 101 -6 197 -7 160 -1 177 1
205 19 17 12 44 27 62 35 36 15 53 59 53 133 0 23 7 53 15 65 15 24 24 175 11
196 -4 5 -2 12 4 16 5 3 10 27 11 53 1 88 14 141 44 172 31 32 48 32 95 1 14
-10 44 -25 68 -36 23 -10 64 -39 92 -64 27 -25 72 -66 99 -91 28 -25 56 -55
62 -67 7 -12 30 -35 53 -50 23 -15 59 -43 82 -63 22 -19 66 -53 97 -75 32 -22
57 -43 57 -47 0 -3 9 -10 20 -13 11 -3 26 -12 32 -19 7 -7 36 -25 63 -41 28
-16 52 -32 55 -36 8 -10 83 -49 96 -49 7 0 14 -6 17 -14 3 -8 28 -19 55 -25
26 -5 71 -21 98 -34 27 -14 67 -28 89 -32 22 -3 49 -12 60 -20 40 -25 173 -57
321 -76 123 -16 431 -7 499 14 28 9 100 23 160 32 61 9 128 23 150 30 22 7 55
17 74 20 19 4 54 20 79 36 25 16 51 29 57 29 6 0 47 18 90 40 43 22 93 40 110
40 22 0 40 9 60 30 19 20 39 30 58 30 15 0 43 11 60 24 68 50 141 38 189 -33
30 -45 33 -71 13 -136 -4 -14 4 -32 28 -59 31 -36 38 -40 94 -44 46 -3 71 1
108 17 29 13 71 21 108 22 53 2 63 -1 80 -22 29 -35 19 -195 -17 -298 -29 -82
-31 -112 -15 -159 12 -35 68 -82 98 -82 37 0 82 35 121 96 30 47 45 63 69 67
27 6 82 43 225 154 27 21 54 43 60 48 6 6 41 30 77 54 37 24 72 54 78 67 6 14
19 24 31 24 35 0 83 26 128 68 23 22 59 46 80 53 20 7 42 18 47 26 12 16 70
52 130 81 22 10 46 26 53 35 8 9 38 23 67 32 30 8 57 20 60 25 3 5 20 16 38
24 18 8 58 26 89 40 31 14 60 26 65 26 4 0 28 14 52 30 24 17 55 30 68 30 39
0 87 25 133 69 42 40 45 41 109 41 l66 -1 34 -45 c19 -25 54 -59 78 -77 28
-20 46 -41 50 -59 10 -49 228 -278 265 -278 8 0 38 -16 68 -35 30 -19 62 -35
70 -35 8 0 31 -10 50 -22 52 -32 232 -50 375 -37 111 10 294 58 325 85 9 7 38
23 65 35 28 12 52 25 55 28 12 15 80 61 89 61 6 0 11 4 11 9 0 5 14 14 30 21
17 7 33 22 36 36 7 29 21 40 59 48 44 10 89 -35 111 -110 9 -33 20 -63 24 -69
4 -5 11 -28 15 -50 3 -22 18 -55 32 -73 18 -24 28 -54 34 -104 5 -39 17 -85
28 -103 10 -17 21 -57 25 -88 8 -62 15 -70 69 -85 29 -8 44 -7 70 4 57 27 60
30 74 69 7 21 22 47 33 57 11 10 20 24 20 31 0 7 16 45 35 84 19 39 35 74 35
78 0 4 9 18 19 31 10 13 25 48 31 77 7 28 21 61 31 72 10 11 25 36 34 55 9 19
27 55 40 80 13 25 24 53 24 62 1 9 7 21 14 25 8 4 22 23 32 41 16 26 26 32 52
32 23 0 36 -6 44 -22 6 -13 38 -48 70 -78 33 -30 59 -60 59 -66 0 -6 9 -19 20
-29 11 -10 22 -27 26 -39 4 -11 22 -39 40 -62 19 -23 34 -44 34 -48 0 -10 43
-69 60 -83 8 -6 32 -17 53 -24 34 -11 39 -10 62 11 14 13 25 27 25 32 0 5 10
22 23 39 20 28 22 45 27 193 5 144 8 166 28 199 12 21 27 58 33 82 14 56 53
95 77 77 9 -7 29 -17 44 -23 14 -6 29 -16 32 -24 6 -17 49 -36 202 -89 33 -11
72 -29 87 -38 14 -10 47 -22 73 -28 27 -6 53 -15 59 -20 24 -20 225 -82 305
-94 47 -7 112 -22 145 -33 33 -12 101 -24 150 -28 67 -5 94 -12 107 -25 24
-26 198 -35 603 -34 257 2 349 6 415 18 47 9 137 23 200 32 134 18 184 29 202
48 8 7 35 16 61 20 26 4 87 20 135 35 48 16 119 34 157 40 39 7 84 19 100 26
17 7 53 16 80 19 48 7 227 63 290 91 17 7 59 18 95 25 35 6 78 19 95 28 40 22
171 68 270 96 44 12 99 32 122 44 23 12 57 22 75 22 18 1 51 8 73 16 22 8 56
20 75 26 19 6 53 18 75 28 59 26 105 40 134 40 15 0 36 7 49 15 12 9 61 20
109 26 62 7 105 18 147 39 38 19 82 32 125 36 36 4 77 15 91 24 14 10 48 20
75 23 166 18 235 29 275 42 25 8 116 22 203 30 87 9 175 22 195 31 58 24 336
31 901 22 471 -7 597 -14 746 -38 33 -5 193 -14 356 -19 196 -7 317 -16 360
-26 40 -9 164 -19 334 -25 346 -14 528 -26 635 -44 59 -11 170 -15 366 -15
302 -1 323 -4 351 -53 7 -13 12 -39 13 -59 0 -50 -29 -201 -42 -217 -6 -7 -15
-56 -19 -108 -7 -80 -12 -100 -34 -125 -18 -22 -25 -42 -25 -70 0 -56 12 -73
64 -93 43 -17 46 -16 85 3 22 12 47 31 55 43 11 16 27 22 54 23 24 1 50 10 67
23 15 12 35 22 43 22 9 0 45 20 81 44 37 24 77 47 91 50 31 9 49 16 130 54 36
16 82 35 102 41 20 7 47 20 60 30 13 10 43 22 68 26 25 4 54 16 66 26 11 10
56 28 99 39 43 11 82 25 85 30 3 5 42 17 85 26 44 9 94 24 112 34 19 11 69 23
120 29 49 5 112 19 140 30 28 11 93 27 145 36 51 8 109 22 128 29 19 8 106 19
192 25 100 7 172 17 198 27 38 15 107 17 654 18 336 1 847 -5 1136 -13 289 -8
701 -16 915 -17 215 -2 937 -8 1605 -14 668 -7 1472 -10 1787 -7 542 4 573 5
599 23 15 10 35 24 46 30 37 22 77 67 83 95 4 15 14 38 24 51 22 29 41 83 41
117 0 15 -13 53 -30 86 -16 33 -30 65 -30 71 0 23 -82 84 -114 85 -17 1 -78 5
-136 10 -58 5 -452 15 -876 23 -424 7 -775 15 -780 18 -5 3 -702 9 -1549 12
-1168 5 -1585 10 -1725 21 -102 8 -354 16 -560 20 -580 9 -981 25 -1005 41
-11 7 -76 20 -145 28 -236 30 -284 38 -310 50 -14 8 -60 16 -103 19 -46 3 -88
12 -102 21 -30 19 -136 46 -186 46 -20 0 -47 8 -61 19 -13 11 -42 23 -64 27
-21 4 -50 15 -64 25 -14 10 -56 25 -93 33 -38 7 -74 20 -80 29 -13 15 -98 47
-127 47 -10 0 -28 8 -41 19 -13 10 -44 22 -69 26 -25 4 -55 15 -66 24 -12 9
-41 23 -65 30 -24 7 -51 17 -59 22 -112 64 -162 89 -178 89 -11 0 -36 14 -57
30 -21 17 -50 33 -63 37 -14 3 -41 17 -61 30 -19 13 -45 26 -59 30 -13 3 -34
16 -48 28 -13 12 -41 27 -62 33 -22 7 -45 19 -52 27 -8 9 -30 15 -60 15 -79 0
-89 -26 -82 -213 2 -56 6 -72 26 -92 16 -16 27 -44 35 -92 7 -37 21 -86 32
-109 25 -55 39 -131 39 -220 0 -71 -1 -74 -27 -80 -14 -4 -104 -4 -199 0 -145
5 -182 10 -221 28 -43 18 -78 21 -318 30 -190 6 -277 13 -295 22 -32 17 -217
34 -432 40 -129 4 -175 9 -199 22 -22 11 -78 19 -178 25 -232 15 -372 27 -431
38 -125 22 -234 31 -390 32 -91 0 -187 5 -215 11 -127 26 -673 26 -910 -1 -49
-6 -202 -12 -340 -15 -137 -2 -296 -10 -353 -17 -80 -10 -108 -10 -123 -1 -10
7 -26 12 -34 12 -26 0 -38 49 -44 188 -4 73 -11 136 -17 140 -5 4 -20 24 -33
45 -13 21 -34 40 -47 43 -34 9 -95 0 -130 -19 -16 -8 -53 -27 -81 -40 -29 -14
-53 -30 -53 -36 0 -5 -27 -18 -60 -27 -33 -9 -65 -23 -71 -30 -6 -8 -27 -14
-45 -14 -26 0 -34 4 -34 19 0 33 -21 80 -40 86 -10 3 -20 19 -24 39 -3 18 -15
42 -27 54 -21 23 -52 75 -90 152 -13 25 -28 48 -33 52 -6 4 -18 29 -27 55 -12
36 -26 56 -57 77 -37 26 -46 29 -78 20 -50 -12 -72 -46 -83 -129 -5 -38 -16
-95 -25 -125 -9 -30 -21 -91 -26 -135 -6 -46 -15 -84 -23 -90 -24 -18 -49 -77
-44 -103 4 -18 -2 -35 -19 -55 -13 -16 -27 -46 -30 -68 -4 -22 -19 -53 -35
-72 -16 -17 -29 -35 -29 -38 0 -3 -11 -19 -25 -35 -14 -16 -25 -34 -25 -41 0
-7 -14 -22 -30 -35 -21 -15 -32 -34 -36 -59 -5 -29 -12 -39 -31 -44 -32 -8
-141 -118 -145 -147 -2 -14 -14 -25 -35 -32 -30 -11 -80 -46 -130 -93 -13 -13
-34 -25 -46 -28 -12 -4 -39 -22 -61 -41 -21 -18 -45 -34 -52 -34 -8 0 -17 -6
-20 -14 -3 -8 -23 -18 -45 -21 -38 -7 -63 -23 -71 -46 -2 -7 -35 -16 -73 -20
-41 -5 -80 -17 -95 -27 -15 -11 -61 -24 -110 -32 -47 -7 -101 -21 -120 -32
-27 -16 -63 -22 -175 -28 -85 -5 -158 -14 -185 -24 -75 -27 -257 -39 -510 -33
-215 5 -241 7 -310 30 -49 16 -112 27 -180 32 -78 5 -110 12 -125 25 -12 10
-54 22 -110 30 -54 8 -99 20 -113 30 -12 10 -55 24 -95 30 -49 8 -80 19 -97
35 -15 14 -44 25 -74 29 -27 3 -57 12 -65 20 -9 8 -36 22 -61 32 -25 10 -56
26 -69 36 -13 10 -29 18 -36 18 -7 0 -36 16 -64 35 -28 19 -59 35 -68 35 -34
0 -63 12 -63 26 0 7 -15 21 -32 30 -18 9 -37 23 -41 30 -4 8 -14 14 -21 14 -7
0 -28 14 -46 30 -19 17 -48 34 -65 39 -17 5 -43 20 -58 35 -15 14 -39 29 -55
32 -19 4 -34 17 -47 42 -12 23 -36 45 -60 57 -32 17 -113 85 -170 145 -5 6
-30 29 -54 53 -24 23 -49 48 -55 55 -6 8 -26 29 -43 48 -18 19 -33 39 -33 45
0 5 -11 14 -25 21 -13 6 -29 25 -35 43 -12 36 -44 69 -76 79 -15 5 -26 21 -34
52 -7 25 -19 48 -27 51 -7 3 -22 26 -33 51 -11 25 -27 53 -36 61 -38 41 -119
193 -143 271 -6 19 -31 60 -55 92 -51 64 -86 79 -134 54 -34 -18 -82 -71 -82
-92 0 -8 -13 -33 -30 -56 -16 -22 -30 -47 -30 -55 0 -7 -14 -40 -30 -73 -17
-33 -30 -66 -30 -73 0 -25 -62 -6 -96 29 -27 30 -38 34 -81 34 -60 0 -98 -25
-108 -70 -4 -17 -16 -35 -27 -41 -11 -6 -24 -24 -30 -39 -5 -16 -18 -32 -28
-35 -9 -3 -25 -14 -35 -25 -27 -30 -95 -27 -124 4 -13 13 -35 27 -49 31 -15 4
-47 20 -71 36 -25 16 -54 29 -65 29 -36 0 -66 12 -66 26 0 11 -55 34 -83 34
-4 0 -20 9 -36 21 -17 12 -56 24 -102 31 -41 6 -81 16 -89 23 -20 17 -73 33
-145 44 -33 5 -94 17 -135 26 -115 26 -493 26 -575 1 -33 -10 -107 -24 -165
-31 -84 -10 -107 -17 -121 -34 -14 -17 -29 -21 -76 -21 -61 -1 -123 -18 -151
-43 -22 -19 -110 -31 -162 -22 -30 5 -44 14 -52 30 -6 13 -19 26 -29 28 -17 5
-19 17 -21 119 -2 62 -1 170 1 239 3 125 3 126 -23 153 -39 38 -95 37 -129 -4
-14 -16 -30 -30 -34 -30 -11 0 -93 -83 -93 -93 0 -4 -22 -30 -50 -57 -27 -27
-50 -55 -50 -61 0 -6 -13 -24 -30 -39 -16 -15 -46 -47 -65 -71 -60 -74 -139
-149 -157 -149 -16 0 -24 11 -85 130 -18 34 -36 67 -41 74 -5 6 -12 25 -16 41
-9 39 -61 92 -97 100 -37 8 -96 -11 -109 -36 -6 -10 -17 -19 -24 -19 -18 0
-69 -66 -94 -123 -12 -26 -27 -50 -35 -53 -8 -3 -33 -34 -56 -70 -23 -35 -45
-64 -50 -64 -4 0 -18 -9 -31 -20 -14 -12 -37 -20 -59 -20 -30 0 -47 10 -96 55
-33 30 -70 57 -82 61 -12 3 -24 16 -27 29 -3 12 -25 39 -48 59 -44 37 -69 60
-85 78 -27 31 -130 118 -140 118 -6 0 -21 13 -32 29 -17 23 -30 29 -71 33 -33
3 -63 14 -83 29 -31 23 -38 24 -202 24 -159 0 -172 -1 -206 -23 -20 -12 -63
-27 -95 -33 -33 -6 -68 -19 -80 -30 -11 -10 -25 -19 -31 -19 -19 0 -117 -79
-125 -100 -4 -11 -19 -25 -32 -30 -14 -5 -30 -19 -36 -31 -18 -33 -69 -20
-114 28 -19 21 -36 42 -36 47 0 9 -56 65 -115 114 -15 12 -34 22 -42 22 -8 0
-30 13 -48 29 -23 20 -49 31 -84 36 -28 4 -51 10 -51 15 0 4 -21 16 -47 26
-36 13 -75 18 -154 18 -95 0 -111 -3 -152 -26 -25 -14 -69 -29 -97 -33 -31 -4
-62 -16 -80 -31 -15 -13 -47 -31 -69 -39 -22 -8 -46 -19 -53 -24 -15 -12 -184
-156 -211 -180 -11 -9 -35 -31 -54 -50 -19 -19 -49 -42 -67 -51 -17 -10 -44
-36 -59 -59 -16 -22 -34 -41 -42 -41 -7 0 -33 -22 -58 -50 -60 -67 -106 -82
-196 -64 -27 6 -33 13 -42 50 -6 24 -17 49 -25 55 -20 16 -18 190 3 361 17
136 17 138 -2 153 -37 28 -89 34 -296 36 -287 3 -276 10 -314 -221 -10 -58
-21 -170 -25 -250 -4 -80 -11 -153 -15 -162 -12 -29 -137 -27 -170 2 -11 10
-35 25 -52 34 -18 9 -33 24 -33 32 0 9 -13 21 -29 27 -17 6 -32 21 -35 33 -6
21 -27 45 -210 236 -51 53 -103 112 -115 131 -12 19 -34 40 -51 47 -16 7 -32
21 -36 32 -9 30 -242 252 -307 293 -18 11 -45 33 -62 49 -16 16 -54 40 -82 53
-29 13 -55 28 -58 33 -7 12 -190 100 -207 100 -9 0 -21 7 -28 15 -6 8 -35 23
-63 34 -29 11 -66 26 -83 35 -16 9 -61 20 -99 25 -41 6 -80 18 -97 31 -31 23
-130 39 -242 40 -50 0 -74 5 -88 17 -32 28 -209 38 -427 22z m4246 -1554 c18
-33 37 -69 42 -81 5 -11 23 -41 40 -66 17 -25 31 -51 31 -56 0 -6 26 -37 59
-69 74 -73 181 -119 258 -110 85 11 186 44 277 91 49 25 99 46 112 46 16 0 49
-25 99 -74 47 -46 90 -79 113 -87 20 -6 46 -19 57 -29 30 -26 61 -40 88 -40
29 0 109 27 117 39 3 5 31 16 62 25 31 9 63 25 70 35 7 10 23 23 36 30 12 6
22 17 22 24 0 7 25 34 55 61 30 27 55 54 55 59 0 5 15 26 34 47 23 26 35 51
40 84 7 45 26 66 58 66 19 0 148 -124 148 -142 0 -9 6 -21 14 -27 8 -7 21 -32
30 -57 8 -25 27 -59 41 -75 14 -17 28 -43 31 -57 4 -15 15 -45 25 -67 9 -22
23 -77 29 -123 22 -146 -8 -299 -86 -444 -8 -14 -14 -34 -14 -45 0 -10 -14
-31 -30 -48 -44 -43 -96 -117 -103 -147 -4 -15 -17 -30 -29 -34 -34 -10 -72
-42 -92 -75 -9 -16 -23 -29 -30 -29 -7 0 -33 -14 -57 -32 -48 -35 -82 -55
-146 -86 -24 -12 -43 -28 -43 -36 0 -16 -12 -21 -75 -32 -22 -4 -60 -16 -85
-26 -25 -11 -94 -26 -155 -33 -60 -8 -130 -21 -154 -29 -59 -21 -130 -20 -199
3 -32 11 -114 25 -182 31 -104 9 -128 14 -147 32 -15 14 -44 24 -84 30 -36 5
-67 15 -73 24 -13 17 -68 52 -134 84 -23 11 -48 29 -55 40 -6 11 -33 27 -59
36 -28 9 -49 23 -53 34 -3 10 -46 60 -95 109 -49 50 -91 99 -94 109 -4 11 -18
24 -31 30 -17 8 -25 20 -25 36 0 28 -19 76 -31 76 -4 0 -13 16 -19 35 -6 18
-22 49 -35 68 -12 19 -26 59 -30 88 -4 29 -16 77 -26 108 -27 76 -26 218 0
270 11 20 25 75 31 122 9 69 16 89 38 110 15 15 38 40 52 58 14 17 37 44 52
60 14 17 29 38 32 49 4 10 34 35 67 55 57 33 64 35 92 24 21 -9 41 -32 64 -72z
m4903 -163 c80 -6 175 -13 211 -15 54 -2 72 -8 97 -29 17 -14 48 -29 69 -32
52 -9 139 -44 192 -78 25 -15 55 -28 68 -28 12 0 32 -11 45 -24 13 -14 50 -46
83 -73 97 -77 212 -212 220 -259 4 -21 14 -49 21 -62 8 -12 22 -72 31 -133 14
-91 15 -120 5 -167 -7 -32 -12 -71 -12 -87 0 -15 -16 -51 -35 -81 -19 -29 -35
-56 -35 -61 0 -5 -29 -38 -63 -73 -61 -62 -165 -126 -237 -145 -14 -4 -36 -14
-50 -23 -20 -13 -52 -17 -150 -17 -115 0 -129 2 -180 27 -31 14 -68 30 -83 33
-15 4 -27 11 -27 16 0 5 -12 15 -27 23 -16 8 -43 29 -62 46 -18 16 -37 30 -42
30 -4 0 -22 21 -39 48 -18 26 -39 51 -46 55 -8 4 -14 16 -14 26 0 9 -11 32
-25 51 -14 19 -25 46 -25 60 0 77 -50 142 -125 164 -41 13 -58 13 -133 0 -47
-9 -97 -21 -111 -29 -15 -7 -47 -16 -73 -20 -30 -5 -56 -16 -72 -31 -16 -17
-44 -28 -84 -35 -33 -6 -68 -19 -79 -28 -10 -9 -39 -23 -65 -30 -26 -7 -55
-22 -64 -32 -9 -11 -25 -19 -35 -19 -9 0 -46 -15 -81 -34 -35 -18 -74 -37 -88
-41 -14 -4 -43 -20 -65 -34 -22 -15 -70 -42 -107 -60 -37 -17 -75 -39 -83 -48
-9 -8 -39 -21 -68 -29 -28 -7 -57 -21 -64 -30 -9 -13 -29 -17 -75 -18 l-63 -1
-3 80 c-5 110 7 225 22 225 19 0 48 58 41 81 -7 21 12 79 25 79 4 0 13 19 19
43 6 24 24 61 41 82 16 21 30 45 30 55 0 9 25 41 55 71 33 33 55 62 55 76 0
22 24 53 41 53 21 0 129 106 139 136 9 26 17 33 49 38 29 4 52 19 92 59 30 29
70 59 89 67 19 7 45 22 58 31 13 10 40 23 60 30 20 6 79 31 130 56 159 76 347
94 702 65z m-9034 -51 c5 -5 44 -21 88 -36 93 -30 106 -39 145 -91 16 -21 42
-53 58 -70 67 -72 102 -121 108 -156 6 -32 4 -38 -19 -53 -14 -10 -26 -22 -26
-29 -1 -24 -134 -146 -159 -146 -5 0 -16 -9 -23 -19 -8 -11 -32 -27 -54 -36
-23 -9 -50 -29 -62 -44 -45 -61 -103 -47 -199 47 -30 28 -58 52 -62 52 -17 0
-122 114 -127 139 -13 59 -26 90 -39 95 -9 3 -15 19 -15 40 0 32 4 36 35 45
21 5 48 6 65 1 21 -6 32 -4 40 5 6 8 24 16 40 20 15 3 46 22 69 42 37 31 41
39 36 65 -12 51 2 95 38 116 37 23 49 26 63 13z"/>
</g>
</svg>
