<?xml version="1.0" standalone="no"?>
<!DOCTYPE svg PUBLIC "-//W3C//DTD SVG 20010904//EN"
 "http://www.w3.org/TR/2001/REC-SVG-20010904/DTD/svg10.dtd">
<svg version="1.0" xmlns="http://www.w3.org/2000/svg"
 width="4816.000000pt" height="565.000000pt" viewBox="0 0 4816.000000 565.000000"
 preserveAspectRatio="xMidYMid meet">

<g transform="translate(0.000000,565.000000) scale(0.100000,-0.100000)"
fill="#000000" stroke="none">
<path d="M2555 5370 c-38 -10 -102 -19 -140 -19 -39 -1 -86 -6 -105 -11 -19
-6 -86 -20 -148 -30 -63 -11 -127 -26 -144 -35 -17 -8 -39 -15 -49 -15 -18 0
-80 -32 -109 -56 -8 -7 -42 -17 -75 -23 -62 -11 -158 -44 -178 -61 -7 -6 -25
-20 -42 -33 -28 -21 -40 -27 -130 -60 -21 -8 -50 -27 -63 -42 -12 -15 -40 -37
-61 -49 -69 -37 -148 -95 -155 -111 -3 -8 -12 -15 -21 -15 -8 0 -15 -4 -15
-10 0 -5 -12 -13 -27 -16 -38 -10 -93 -55 -93 -76 0 -10 -23 -31 -57 -50 -44
-26 -63 -45 -81 -81 -14 -26 -32 -47 -41 -47 -21 -1 -64 -47 -80 -87 -8 -18
-17 -33 -22 -33 -5 0 -9 -6 -9 -14 0 -8 -8 -17 -18 -20 -23 -8 -102 -129 -102
-158 0 -15 -14 -33 -41 -52 -40 -28 -78 -91 -79 -128 0 -9 -17 -35 -37 -58
-42 -46 -82 -130 -83 -172 0 -31 -22 -120 -31 -128 -3 -3 -8 -13 -12 -22 -3
-10 -13 -18 -21 -18 -8 0 -25 -27 -39 -63 -21 -53 -28 -93 -37 -226 -10 -147
-14 -167 -39 -214 -44 -82 -54 -156 -52 -400 2 -235 12 -306 54 -397 21 -45
28 -81 36 -195 6 -77 14 -161 16 -186 8 -70 40 -151 73 -184 25 -25 33 -46 46
-115 20 -105 46 -180 62 -180 7 0 16 -9 19 -20 3 -11 13 -20 21 -20 8 0 14 -8
14 -17 1 -10 13 -53 28 -95 22 -64 34 -82 63 -102 22 -15 38 -36 42 -53 5 -27
35 -67 103 -139 16 -18 39 -50 50 -71 25 -49 53 -82 82 -94 13 -5 29 -24 37
-41 16 -39 45 -67 100 -97 23 -12 50 -39 63 -61 12 -22 28 -40 35 -40 12 0 96
-54 107 -68 20 -28 116 -91 147 -97 38 -7 83 -39 83 -59 0 -13 60 -40 150 -68
36 -11 74 -31 86 -43 18 -20 135 -75 158 -75 29 0 119 -35 140 -55 32 -29 142
-65 201 -65 23 0 94 -9 156 -20 63 -11 126 -20 142 -20 23 0 27 -4 27 -30 l0
-30 305 0 305 0 0 30 c0 27 3 30 33 30 17 0 61 7 97 16 36 8 101 19 145 24 86
9 187 39 215 65 18 16 123 55 150 55 22 0 130 54 157 79 11 11 53 30 92 41 40
12 78 28 86 36 7 8 20 14 28 14 9 0 26 12 39 28 29 33 53 47 96 57 19 4 51 26
79 56 27 26 60 51 76 55 15 3 33 11 40 17 6 7 31 24 54 39 23 15 44 36 48 48
3 11 12 20 19 20 7 0 21 9 31 20 10 11 23 20 30 20 13 0 38 28 75 82 14 21 36
43 49 50 21 11 78 85 106 139 5 11 15 19 20 19 11 0 74 78 94 117 6 12 11 32
11 45 1 15 12 30 33 43 36 23 83 102 92 157 4 20 13 39 21 42 8 3 14 11 14 18
0 7 9 19 20 26 25 16 56 79 71 150 7 31 25 78 41 105 15 26 31 60 35 75 3 15
14 45 24 67 10 22 19 52 19 67 0 52 18 74 72 86 70 17 124 15 230 -7 80 -17
162 -21 579 -29 290 -6 494 -14 505 -20 49 -26 164 -52 234 -52 41 0 113 -7
160 -15 58 -11 211 -19 485 -25 359 -8 704 -28 804 -46 20 -4 47 -12 61 -19
14 -7 106 -22 205 -33 144 -17 270 -22 625 -27 245 -3 501 -10 570 -15 69 -5
181 -12 250 -16 69 -3 155 -12 193 -20 179 -38 471 -52 1322 -63 396 -6 943
-14 1215 -19 476 -9 1789 -1 1820 11 8 3 239 8 512 12 376 4 509 9 545 20 30
8 124 15 253 18 122 3 219 10 240 17 24 8 174 15 465 21 237 4 513 13 615 18
102 6 388 13 635 16 614 8 828 21 1250 75 268 34 366 42 635 51 146 5 306 12
356 15 l91 6 6 -68 c4 -38 7 -111 7 -161 0 -167 45 -323 93 -323 9 0 17 -7 17
-15 0 -23 44 -104 56 -105 6 0 37 -26 68 -58 41 -41 72 -64 109 -77 29 -10 72
-29 96 -43 39 -23 55 -26 155 -26 100 -1 116 2 166 25 88 42 129 59 147 59 23
0 93 50 93 66 0 8 5 14 11 14 42 0 119 106 119 163 0 15 6 30 13 33 17 6 61
103 77 169 6 28 16 109 21 180 11 156 16 185 34 185 8 0 32 9 53 20 44 23 108
25 967 34 237 2 644 9 905 15 551 13 2994 14 3152 2 95 -8 109 -11 134 -35 16
-14 32 -26 36 -26 5 0 8 -6 8 -13 0 -7 11 -28 23 -47 13 -19 27 -48 31 -63 4
-17 20 -36 40 -48 26 -15 39 -34 56 -82 12 -34 31 -70 41 -80 11 -10 19 -24
19 -31 0 -7 10 -17 23 -23 13 -6 35 -36 51 -69 30 -62 81 -124 103 -124 7 0
17 -17 23 -38 10 -41 38 -71 82 -90 17 -7 30 -22 34 -39 11 -45 32 -69 79 -94
25 -13 45 -29 45 -36 0 -22 48 -69 89 -88 23 -10 41 -22 41 -26 0 -19 63 -78
90 -84 16 -3 49 -24 73 -46 49 -42 142 -92 194 -104 18 -3 50 -24 73 -46 22
-21 48 -39 59 -39 10 0 34 -6 52 -14 19 -8 61 -19 93 -25 33 -6 62 -15 65 -20
28 -42 174 -89 345 -111 62 -8 117 -22 149 -37 52 -26 208 -52 317 -54 80 -1
218 26 270 53 25 13 72 30 105 36 33 7 99 22 146 32 47 11 96 20 107 20 12 0
56 18 98 40 43 22 87 40 98 40 52 0 316 75 356 101 14 9 43 19 65 22 60 8 355
85 392 102 17 8 40 15 50 15 11 0 46 9 78 20 32 11 65 20 74 20 9 1 34 9 56
20 22 11 48 19 58 20 9 0 45 11 79 25 34 14 80 25 102 25 56 1 244 51 336 89
47 20 105 36 155 41 92 11 183 28 205 39 8 4 39 14 69 21 30 7 78 25 107 40
52 28 185 50 299 50 50 0 174 45 182 66 3 8 12 14 21 14 8 0 23 7 33 16 13 12
54 18 171 24 190 11 307 42 373 100 16 13 46 19 138 24 154 8 386 41 423 61
16 8 34 15 40 15 6 0 21 11 34 25 18 19 34 25 64 25 23 0 104 7 181 15 77 8
183 20 235 25 96 10 174 32 220 62 46 29 298 58 514 58 66 0 130 7 184 20 46
11 90 20 98 20 8 0 34 9 57 20 66 32 195 51 418 60 283 12 459 30 503 52 64
33 510 82 893 98 168 8 258 16 319 30 47 11 97 20 113 20 15 0 47 6 72 14 24
8 114 19 199 25 85 6 232 17 325 25 149 13 303 22 650 40 50 3 126 10 170 15
44 5 155 10 246 10 116 1 179 5 210 16 36 12 213 16 1009 25 531 6 1159 15
1395 20 237 5 975 12 1640 15 1165 6 1837 14 2765 35 239 5 697 12 1016 15
320 3 602 9 627 14 25 4 90 6 146 3 l101 -5 0 502 0 501 -112 2 c-62 1 -207 1
-323 0 -115 -2 -568 -7 -1005 -11 -939 -10 -1127 -14 -1525 -29 -165 -7 -417
-13 -560 -15 -195 -2 -278 -7 -330 -19 -59 -14 -173 -17 -730 -22 -363 -3
-811 -12 -995 -19 -555 -20 -2708 -12 -3460 13 -151 5 -423 9 -605 10 -263 0
-346 3 -410 16 -54 11 -148 17 -290 19 -127 2 -244 9 -295 18 -47 8 -139 18
-205 22 -66 3 -190 13 -275 21 -85 8 -276 19 -425 23 -275 9 -401 23 -542 62
-126 35 -268 48 -738 69 -169 7 -187 10 -285 43 -126 42 -281 67 -419 67 -159
0 -394 20 -411 35 -41 35 -88 50 -175 55 -49 4 -153 14 -230 23 -77 9 -196 21
-265 27 -69 6 -126 15 -128 20 -2 6 -10 10 -18 10 -7 0 -28 9 -46 20 -19 11
-51 20 -75 20 -23 0 -74 7 -113 15 -39 8 -104 17 -143 20 -111 9 -237 36 -287
61 -57 29 -163 51 -310 64 -63 6 -140 17 -170 25 -30 8 -67 15 -82 15 -16 0
-28 4 -28 8 0 28 -155 68 -304 79 -97 7 -280 46 -303 64 -15 14 -138 43 -248
59 -33 5 -85 16 -115 24 -30 9 -68 16 -84 16 -15 0 -45 9 -65 19 -42 23 -192
61 -238 61 -17 0 -50 7 -74 15 -23 9 -74 20 -113 26 -39 6 -73 15 -76 19 -9
14 -129 60 -157 60 -15 0 -50 7 -78 15 -27 9 -82 22 -121 30 -39 8 -94 27
-124 41 -29 14 -81 30 -114 35 -34 5 -79 16 -101 24 -22 7 -83 21 -135 31 -52
9 -122 29 -155 45 -33 15 -94 38 -135 51 -70 21 -92 23 -345 23 -255 0 -273
-2 -330 -23 -32 -12 -70 -22 -82 -22 -12 0 -51 -13 -85 -29 -35 -16 -92 -37
-128 -46 -36 -9 -78 -23 -95 -31 -16 -7 -48 -17 -70 -22 -22 -5 -58 -20 -80
-34 -22 -14 -58 -30 -80 -37 -70 -21 -139 -55 -180 -87 -22 -18 -54 -36 -70
-40 -59 -15 -134 -55 -163 -88 -16 -19 -43 -37 -60 -41 -17 -3 -46 -22 -66
-41 -19 -19 -37 -34 -40 -34 -8 0 -97 -91 -126 -128 -13 -17 -41 -44 -62 -59
-21 -15 -38 -32 -38 -38 0 -14 -60 -78 -92 -99 -16 -10 -30 -34 -38 -61 -9
-32 -19 -46 -40 -55 -36 -15 -66 -48 -74 -82 -3 -16 -30 -52 -59 -81 -53 -53
-52 -50 -94 -209 -2 -10 -17 -25 -33 -34 -16 -10 -33 -27 -38 -38 -6 -12 -23
-49 -39 -82 -29 -65 -67 -94 -138 -108 -87 -16 -945 -26 -2344 -26 -1043 0
-1437 4 -2488 26 l-321 7 -6 30 c-3 16 -6 68 -6 116 0 101 -15 253 -32 330 -9
39 -22 65 -50 94 -21 22 -38 44 -38 47 0 4 -7 30 -16 58 -13 40 -30 63 -87
114 -82 73 -96 81 -168 99 -30 7 -56 16 -59 20 -26 32 -108 34 -250 5 -36 -8
-93 -19 -127 -25 -87 -16 -129 -36 -171 -81 -20 -22 -41 -40 -47 -40 -28 -1
-69 -59 -90 -127 -3 -13 -12 -23 -18 -23 -7 0 -24 -12 -38 -28 -36 -38 -59
-137 -59 -254 0 -52 -3 -130 -7 -172 l-6 -78 -116 5 c-64 3 -165 11 -226 17
-60 6 -218 15 -350 19 -238 9 -259 11 -473 62 -45 10 -106 19 -135 19 -29 0
-135 9 -237 20 -137 15 -255 20 -456 20 -240 0 -277 2 -326 19 -30 10 -95 22
-144 26 -49 3 -143 15 -209 26 -141 23 -268 27 -1022 33 -304 3 -558 8 -564
12 -6 4 -156 10 -333 14 -215 5 -352 13 -416 24 -197 33 -479 47 -1170 57
-377 6 -860 14 -1075 19 -539 12 -1454 12 -1850 -1 -181 -6 -492 -14 -690 -19
-198 -5 -373 -11 -390 -14 -16 -3 -120 -10 -230 -16 -110 -5 -261 -19 -336
-30 -112 -17 -204 -21 -510 -24 -206 -3 -408 -7 -449 -10 -41 -3 -226 -10
-410 -16 -412 -13 -593 -27 -679 -51 -36 -11 -88 -19 -116 -19 -27 -1 -86 -7
-130 -15 -44 -8 -120 -15 -170 -15 -49 0 -160 -7 -245 -15 -85 -8 -284 -19
-443 -24 -158 -6 -291 -12 -296 -15 -5 -3 -96 -10 -202 -16 -107 -5 -230 -15
-275 -21 -48 -7 -111 -9 -157 -5 -75 8 -76 8 -87 41 -6 18 -20 43 -30 56 -11
12 -20 30 -20 41 0 10 -16 35 -35 57 -32 35 -36 45 -41 117 -9 106 -44 198
-94 247 -31 29 -40 45 -40 71 0 40 -51 142 -89 176 -16 15 -34 49 -45 85 -14
44 -29 70 -59 97 -22 21 -48 55 -57 76 -9 21 -23 44 -31 52 -8 8 -21 28 -29
44 -8 16 -21 31 -28 34 -13 4 -52 42 -108 104 -12 13 -44 45 -73 72 -28 27
-51 56 -51 63 0 7 -4 13 -10 13 -18 0 -135 79 -176 119 -23 23 -65 52 -95 65
-30 13 -63 33 -74 45 -23 26 -150 91 -178 91 -11 0 -34 16 -52 35 -37 38 -132
80 -207 90 -26 3 -51 12 -55 18 -21 32 -163 83 -298 107 -38 7 -83 18 -100 26
-116 51 -542 72 -690 34z m450 -2170 c138 -47 155 -56 178 -89 12 -17 40 -42
62 -54 38 -21 41 -27 56 -97 10 -41 22 -100 29 -130 7 -30 13 -71 13 -90 2
-48 -20 -171 -46 -255 -19 -65 -27 -76 -106 -154 -91 -89 -97 -92 -206 -123
-38 -10 -75 -24 -82 -30 -22 -18 -228 -4 -318 21 -44 13 -97 28 -119 34 -42
12 -177 142 -208 200 -26 48 -38 146 -38 305 0 117 4 157 21 212 18 61 24 69
50 75 18 4 47 28 78 63 49 56 73 70 166 94 22 5 56 15 75 21 131 41 269 40
395 -3z"/>
</g>
</svg>
